{"glyphs":{"0":{"ha":610,"x_min":35,"x_max":575,"o":"m 412 925 l 433 920 q 461 886 451 902 q 473 839 472 871 l 496 808 l 493 790 l 521 751 l 518 736 l 528 717 l 521 692 l 539 676 l 549 642 l 549 618 l 570 607 l 562 564 l 572 554 l 570 526 l 575 505 l 559 481 l 566 458 l 539 429 l 538 421 l 567 393 l 534 378 l 521 354 l 553 342 l 514 317 l 519 309 l 494 271 l 492 261 l 479 254 l 469 221 l 461 218 l 450 197 l 438 189 q 415 161 433 184 l 418 158 l 393 123 l 339 69 l 268 8 l 256 8 l 239 -8 q 205 -26 225 -13 l 189 -17 l 183 -20 l 142 -5 q 113 20 119 11 l 100 22 l 90 43 l 78 39 l 74 56 l 53 64 l 61 79 l 68 83 l 65 87 l 69 97 l 54 125 q 45 160 52 129 l 35 160 l 37 186 l 35 207 l 39 215 l 35 216 l 43 271 l 35 306 l 43 311 l 40 317 l 43 350 l 37 371 l 50 392 l 50 422 l 64 479 l 60 479 l 69 500 l 62 509 l 72 514 l 69 524 l 98 611 l 118 650 l 125 656 l 122 681 l 134 689 l 144 717 l 147 717 l 151 730 q 164 747 153 736 l 164 762 l 176 765 l 176 770 l 215 811 l 221 827 l 237 833 l 240 848 q 265 868 263 869 q 300 897 279 888 l 349 918 l 383 918 l 412 925 m 318 790 l 294 775 l 273 741 l 256 723 q 232 688 249 715 l 220 656 l 201 623 l 199 605 q 191 586 197 596 l 191 558 l 172 543 l 168 524 l 168 509 l 151 492 l 151 488 q 126 429 135 452 l 131 407 l 117 376 l 123 372 l 117 349 l 123 339 l 113 307 l 104 262 l 123 253 l 97 237 l 102 228 l 111 228 l 109 196 l 109 164 q 126 143 118 156 l 123 132 q 138 96 132 112 q 170 66 153 88 l 199 74 l 208 58 l 225 66 l 229 75 l 243 78 l 252 102 l 254 102 l 261 114 l 285 114 q 309 150 301 134 l 319 154 l 325 170 l 347 212 l 367 222 l 370 237 l 392 248 l 383 256 l 383 275 q 397 307 397 296 l 397 343 l 408 364 l 400 387 l 404 404 l 410 408 l 403 416 l 403 439 l 400 460 l 403 465 l 390 481 l 395 496 l 408 503 l 407 500 l 404 500 l 397 539 q 414 581 397 554 l 403 603 l 410 627 l 395 663 l 397 663 l 389 672 l 392 682 q 374 728 376 711 l 363 737 l 363 764 l 358 774 l 318 790 z "},"1":{"ha":444,"x_min":33,"x_max":493,"o":"m 418 893 l 428 893 q 456 884 446 884 l 488 895 l 493 872 l 478 854 l 481 823 l 465 812 q 463 806 465 810 q 460 800 460 802 q 440 768 460 782 q 419 729 427 765 l 422 729 l 415 700 q 408 682 413 700 l 415 675 l 389 664 l 389 653 l 378 657 q 359 639 373 643 q 342 601 356 612 q 322 581 328 589 q 311 561 315 572 l 302 536 l 269 465 l 269 441 l 256 428 l 257 415 l 253 415 q 240 393 253 414 l 240 375 l 228 359 l 233 339 q 227 302 227 323 l 229 278 l 224 229 l 211 143 l 224 122 l 201 41 l 210 -22 l 210 -24 q 195 -38 210 -32 q 179 -45 181 -45 l 135 -35 q 117 -46 127 -44 l 113 -62 l 96 -54 q 66 -85 81 -66 l 33 -45 l 46 -26 q 37 -7 37 -12 q 50 14 37 -2 q 73 35 64 24 q 82 47 82 45 l 82 52 l 87 61 q 82 87 82 73 q 94 126 82 108 l 94 165 l 98 165 l 114 227 l 114 236 l 121 243 l 147 325 l 150 325 l 154 361 l 180 432 l 184 437 l 225 542 q 249 589 249 567 l 256 599 l 256 612 l 285 696 q 260 701 272 701 l 244 700 q 235 703 243 700 l 225 684 l 210 684 l 200 659 l 196 659 l 182 642 l 178 644 l 167 633 l 147 636 l 114 621 q 92 648 92 626 q 104 676 92 661 q 125 696 117 691 l 164 721 l 172 733 l 212 750 l 232 764 l 239 762 l 241 770 l 258 770 q 289 789 269 770 q 317 815 304 808 q 334 833 331 815 l 338 833 q 355 846 341 842 l 355 852 l 370 858 q 381 867 375 860 l 397 885 l 400 885 q 418 893 410 885 z "},"2":{"ha":943,"x_min":-107,"x_max":913,"o":"m 794 920 q 829 886 821 911 l 833 886 q 857 854 850 867 q 838 827 854 849 q 818 806 821 804 l 814 794 l 804 794 q 777 753 798 766 q 734 710 760 721 l 734 707 l 732 705 l 734 699 l 730 682 q 713 660 716 676 l 710 663 q 653 619 696 619 l 624 603 l 590 567 l 572 567 q 560 551 568 564 q 536 525 551 538 l 529 528 l 513 500 l 501 503 q 484 481 493 486 l 484 475 q 446 459 456 471 q 435 437 435 447 l 436 433 l 421 431 q 389 406 416 417 l 382 386 l 376 387 q 358 366 367 387 q 347 343 350 345 l 310 321 l 294 297 q 264 278 273 290 l 267 278 l 227 229 l 345 201 q 379 191 366 199 q 399 172 387 172 l 403 172 l 425 153 l 441 158 l 475 146 l 476 139 l 501 132 l 511 118 q 528 103 515 111 l 543 97 q 581 90 553 92 l 579 85 q 586 74 584 80 l 643 60 l 669 62 l 694 100 l 693 135 q 703 152 693 139 q 720 172 712 165 q 739 182 728 178 l 817 208 q 846 191 834 206 l 852 184 q 884 172 856 182 q 913 125 893 151 l 897 65 l 867 62 l 854 47 l 846 47 l 846 41 l 829 46 q 789 11 820 14 l 789 8 q 690 -12 739 -12 q 656 -9 677 -12 l 647 -3 l 643 -8 l 614 -12 l 585 -4 l 564 -20 l 543 -17 l 521 -21 l 521 -5 q 481 8 496 -3 l 469 1 l 447 11 q 422 22 430 24 l 380 16 q 367 21 372 17 q 355 52 361 25 l 343 50 l 322 57 l 319 47 q 278 58 291 58 l 269 58 q 252 69 262 58 q 201 86 242 70 l 178 79 l 143 79 q 135 76 138 78 q 109 47 132 74 l 98 47 l 81 33 l 39 25 q -4 -5 7 6 l 0 -12 q -29 -28 -14 -26 l -29 -35 q -71 -60 -56 -60 q -101 -30 -95 -60 l -107 0 q -94 28 -107 15 q -74 41 -81 41 l -60 64 l -53 58 l -46 64 l -54 69 q -29 106 -29 90 l -29 109 l 39 165 l 85 184 l 134 218 l 165 252 q 195 290 186 253 l 200 285 q 225 309 214 294 l 222 322 l 239 334 l 237 336 q 272 361 267 361 l 286 382 l 313 395 l 338 424 l 380 461 l 396 479 l 408 479 l 419 493 l 457 524 l 465 538 q 485 562 468 545 q 516 589 502 578 q 532 603 530 600 l 602 672 l 652 708 l 679 770 l 675 782 l 647 779 l 625 762 l 589 760 l 579 749 q 533 728 541 734 l 530 730 q 509 692 510 723 l 489 696 l 484 690 l 471 689 q 444 673 467 689 l 429 677 l 414 673 q 404 647 406 648 l 383 654 q 328 607 369 628 q 292 642 304 618 q 315 679 307 671 l 357 724 q 386 740 378 725 q 401 764 394 754 l 418 764 l 447 790 l 453 790 q 481 806 474 790 l 510 815 q 543 836 540 835 l 571 839 q 591 849 586 846 q 616 851 597 851 l 624 850 q 672 865 651 865 q 714 886 691 886 l 718 886 l 730 896 l 754 899 l 768 916 l 775 909 l 794 920 z "},"3":{"ha":673,"x_min":-72,"x_max":684,"o":"m 673 818 l 628 796 l 614 785 q 590 777 608 781 q 559 751 581 766 l 554 737 l 528 726 l 509 715 l 478 713 l 456 697 l 436 688 q 385 642 408 653 q 361 616 361 623 q 364 606 361 610 l 433 615 q 500 591 458 615 l 529 604 l 536 599 l 562 603 q 611 571 588 584 q 647 513 623 542 l 644 488 q 631 465 633 471 q 618 414 628 459 q 585 383 600 400 l 528 319 l 501 310 l 484 282 q 443 272 456 273 q 422 262 429 270 q 412 241 416 247 q 399 228 408 235 q 328 191 360 214 l 317 195 l 315 191 l 290 172 q 265 163 286 168 l 258 152 q 225 131 254 147 q 207 121 224 125 l 146 100 l 132 79 l 98 72 l 96 69 l 97 64 l 121 71 l 125 71 q 179 37 161 71 l 139 11 q 114 -33 120 -8 l 92 -33 l 75 -54 q 41 -79 47 -56 q 9 -98 22 -97 q -31 -115 -9 -115 q -72 -28 -72 -115 l -57 8 q -32 31 -32 8 l -17 35 l -16 37 l -21 47 l -7 53 l -7 62 l 5 62 l 47 98 l 72 114 l 85 127 q 118 147 92 134 l 122 144 l 132 157 l 151 164 l 314 254 l 345 273 l 370 282 l 485 380 l 496 425 q 503 446 497 433 q 453 492 494 471 q 422 497 428 495 l 395 484 l 378 496 l 355 490 l 353 496 l 349 494 l 349 488 l 309 471 l 297 478 l 279 467 l 258 467 q 151 410 218 452 l 117 444 l 125 469 q 155 511 152 484 q 182 536 161 532 l 184 551 l 193 551 q 216 575 197 558 l 212 590 q 250 616 222 594 l 272 644 q 335 697 302 668 l 371 730 q 375 745 375 739 q 289 750 307 750 l 254 742 q 225 736 237 738 q 194 727 214 734 q 163 714 175 720 q 142 729 149 720 q 123 751 135 738 l 123 762 q 140 784 123 769 q 167 811 157 800 l 179 812 l 193 833 l 208 841 q 231 861 215 844 l 235 861 l 257 873 l 294 873 l 302 876 q 332 873 315 873 q 366 879 350 873 q 385 884 382 884 q 411 876 397 884 q 456 865 444 865 l 469 868 l 480 866 q 514 864 492 864 l 521 867 q 554 859 544 859 q 590 872 568 859 q 648 886 623 886 q 684 848 684 886 q 673 818 684 823 z "},"4":{"ha":885,"x_min":0,"x_max":871,"o":"m 650 864 q 670 853 666 861 q 675 827 675 846 l 675 807 q 663 794 665 803 q 668 782 664 790 l 637 732 l 637 725 q 621 688 637 699 q 599 586 607 656 q 574 546 574 570 l 574 521 l 561 489 q 554 436 558 454 q 539 385 550 418 l 543 370 l 539 370 q 551 350 539 359 l 551 353 l 561 353 l 568 359 q 578 353 574 357 l 599 353 q 628 343 616 343 l 653 347 l 685 347 q 709 350 696 347 q 725 353 722 353 q 737 385 737 363 l 729 382 l 733 392 l 739 390 l 739 397 l 747 419 l 764 427 l 764 429 q 799 441 779 441 l 802 454 q 812 457 807 457 q 833 452 819 457 l 833 457 q 846 476 840 471 q 871 452 862 473 q 863 419 864 424 q 860 402 861 414 q 853 383 858 391 l 842 363 l 794 339 l 764 309 l 751 309 l 746 298 l 742 302 l 733 293 l 733 283 l 711 278 l 699 293 l 676 278 l 659 283 l 642 271 l 629 275 q 607 262 619 262 l 591 265 l 578 258 l 558 271 l 533 258 l 530 243 l 526 245 l 526 240 l 521 240 l 492 126 l 511 82 q 485 50 490 55 q 473 39 480 44 q 454 20 467 34 q 428 -6 441 6 q 398 -31 415 -18 q 366 -45 380 -45 q 347 -37 350 -45 q 331 -25 338 -33 q 325 -11 325 -16 q 326 -9 325 -9 l 328 -9 l 350 17 l 359 41 q 370 57 368 50 l 372 57 l 395 126 q 410 176 402 143 l 416 208 l 429 253 q 378 275 429 275 l 366 275 l 366 281 l 345 275 l 345 265 l 288 265 l 278 275 l 271 265 l 249 275 l 215 271 l 183 283 l 183 278 l 171 278 l 171 271 q 140 279 157 279 q 117 275 129 279 l 117 271 l 82 283 q 65 281 71 283 q 37 258 60 278 q 0 288 15 267 l 0 290 q 9 300 0 296 l 7 313 l 20 332 l 32 338 l 32 350 q 47 363 38 363 l 54 366 q 82 395 57 367 q 102 402 87 396 q 136 413 117 409 q 161 422 155 416 l 196 452 q 208 466 196 461 q 228 476 220 471 l 233 492 l 236 489 q 243 501 241 500 l 243 504 l 281 525 l 322 568 q 345 586 328 585 l 353 593 l 353 599 q 364 605 353 604 q 382 608 375 606 q 410 647 390 635 l 410 643 l 414 647 q 427 665 417 658 l 476 707 q 504 747 504 730 l 504 750 l 509 750 l 504 754 l 514 764 l 516 770 q 543 800 526 795 l 568 807 l 581 827 q 608 854 607 850 l 621 854 q 650 864 636 854 m 441 590 q 424 575 432 588 q 407 555 416 562 l 404 558 q 370 535 390 547 q 350 524 351 524 l 347 524 q 318 489 334 505 q 293 476 296 479 q 286 463 290 473 q 258 422 275 437 l 256 410 l 253 407 l 278 395 l 293 395 l 306 375 l 335 375 l 353 367 l 385 375 l 389 375 q 402 372 398 375 q 419 347 406 368 l 429 345 l 439 345 l 441 357 l 447 357 l 461 432 l 461 457 l 473 479 l 464 526 l 473 590 l 469 596 q 454 606 465 606 q 441 590 441 606 z "},"5":{"ha":621,"x_min":-81,"x_max":742,"o":"m 351 921 q 400 900 381 900 l 416 900 l 416 897 l 503 897 l 515 895 l 529 895 l 546 893 l 587 895 l 604 889 l 607 895 l 644 897 l 710 913 q 742 885 735 913 q 728 844 738 876 l 673 810 q 646 790 661 800 q 629 778 630 780 l 612 774 l 599 778 l 597 774 q 501 762 511 772 q 463 774 486 774 l 411 751 l 386 751 l 374 737 q 349 688 373 724 q 338 636 338 658 q 350 618 338 618 q 383 627 360 618 l 387 625 q 401 631 393 631 q 416 621 411 631 q 444 624 425 624 q 472 618 452 624 l 481 625 l 510 615 q 534 593 526 599 q 555 511 555 541 q 524 443 555 475 l 509 428 l 481 389 q 448 369 453 374 q 436 353 442 364 q 427 326 429 341 l 412 326 q 401 317 404 322 q 390 309 390 315 l 364 277 l 349 277 l 332 256 l 332 248 l 325 248 l 319 225 l 311 236 q 289 221 304 221 q 260 183 290 217 q 237 165 239 168 l 222 167 q 202 142 212 161 q 189 122 193 124 l 143 102 l 129 79 l 96 72 l 93 69 l 94 64 l 119 71 l 123 71 q 176 37 157 71 l 136 11 q 111 -33 120 -3 l 89 -33 l 72 -54 q 39 -79 44 -56 q 16 -95 30 -87 l -9 -109 q -33 -115 -20 -115 q -72 -61 -72 -115 l -69 -45 l -81 -26 l -58 9 q -35 31 -35 9 q -17 37 -19 35 l -22 47 l -9 53 l -9 62 l 3 62 l 52 100 l 52 114 l 69 114 l 104 144 l 104 142 l 127 161 l 131 158 q 172 198 131 165 l 203 221 l 256 271 l 290 296 l 306 317 l 321 332 l 334 351 l 347 363 q 367 395 353 370 q 394 438 381 421 q 407 457 407 455 q 379 493 407 469 l 351 490 l 343 493 l 309 490 l 300 488 q 282 494 296 488 l 262 489 q 203 468 225 468 q 165 489 186 468 q 144 541 144 510 l 144 554 q 164 566 164 554 l 164 586 l 174 581 l 178 582 l 176 599 l 184 607 l 183 612 l 199 632 l 199 652 l 204 652 l 204 665 l 208 679 l 208 685 l 214 718 q 232 754 216 726 l 231 768 q 221 794 221 782 l 222 817 l 222 825 q 258 857 237 850 l 258 861 l 272 869 l 275 880 l 290 884 l 298 899 l 351 921 z "},"6":{"ha":643,"x_min":24,"x_max":564,"o":"m 422 917 q 435 875 435 892 q 424 840 435 861 q 415 802 418 829 l 407 802 q 374 770 374 792 l 382 741 q 364 712 371 722 q 354 694 357 703 l 351 694 l 343 663 l 347 656 q 317 623 342 642 l 301 558 l 289 555 l 279 538 l 279 533 q 261 500 279 510 l 265 489 l 260 489 q 233 435 258 457 l 216 399 l 207 374 l 178 329 q 170 283 170 304 q 172 265 170 275 q 170 253 170 257 l 183 256 l 203 273 l 212 273 l 228 286 l 260 290 q 290 309 270 309 l 294 309 l 297 311 l 376 330 q 392 342 383 342 q 397 340 394 342 q 403 339 401 339 l 406 339 l 450 340 l 478 350 q 525 330 483 350 l 528 322 l 528 319 l 543 306 l 558 302 l 554 292 l 554 288 l 564 268 l 554 249 l 559 221 q 537 180 559 218 q 507 136 515 142 l 507 143 l 485 135 l 485 129 l 479 129 q 440 102 461 114 q 414 84 420 90 q 397 73 408 79 q 371 58 386 68 l 364 35 l 325 22 q 232 -22 275 -11 l 192 -28 l 132 -50 q 69 -17 83 -44 l 50 21 l 29 54 l 36 66 l 31 87 l 31 92 q 24 103 31 100 l 29 115 q 35 131 31 121 q 47 151 47 146 l 47 171 l 50 193 l 54 189 q 65 227 65 220 l 69 224 l 72 235 l 75 236 l 75 240 q 80 261 75 252 q 93 301 85 271 l 100 309 l 106 330 l 110 329 l 110 334 l 102 340 l 114 340 l 129 375 l 135 378 l 147 406 q 160 431 152 423 l 160 447 l 165 447 l 161 465 l 168 460 q 187 497 184 496 q 203 539 189 514 l 195 550 q 197 568 197 563 q 193 586 197 580 q 204 597 195 593 l 211 614 q 220 643 214 618 q 245 726 229 701 q 266 751 262 743 q 269 774 269 760 q 267 798 269 789 l 273 798 l 289 863 l 300 882 l 306 882 l 306 890 q 332 911 316 905 q 363 928 357 913 q 412 949 381 949 q 437 933 437 949 q 422 917 437 920 m 399 262 l 380 258 l 380 254 l 361 258 q 350 255 359 258 q 335 244 340 251 l 329 252 q 252 224 298 226 l 252 221 l 228 224 l 203 205 l 187 201 q 160 180 180 199 l 160 175 q 122 102 122 158 q 127 72 122 78 q 144 65 133 65 q 187 72 170 65 q 208 78 204 78 l 222 75 l 232 75 l 254 82 q 272 75 265 82 q 298 72 294 72 q 332 87 309 72 l 403 135 q 428 186 418 159 l 439 189 q 449 232 444 192 l 399 262 z "},"7":{"ha":664,"x_min":58,"x_max":717,"o":"m 467 842 l 473 846 l 564 861 l 631 879 q 656 895 649 895 q 713 860 680 895 l 700 838 l 717 822 l 711 804 l 671 768 l 671 753 q 644 738 648 745 q 621 715 639 730 l 621 699 q 597 681 610 681 l 578 686 l 575 681 q 551 646 553 652 l 538 637 l 536 614 l 468 528 q 445 495 456 515 q 416 465 434 475 l 399 424 l 390 415 l 390 385 l 351 335 l 313 252 l 315 243 l 304 205 q 324 170 311 174 q 345 165 336 165 l 338 125 l 329 92 l 317 79 l 294 22 l 279 9 q 257 -18 271 3 q 191 -50 218 -33 l 176 -29 q 175 -24 175 -28 l 178 -9 q 176 -3 178 -5 l 195 -3 l 180 39 q 207 94 207 65 l 204 114 q 207 132 204 123 q 213 146 210 142 q 221 178 216 151 l 228 180 l 225 187 q 241 216 233 198 q 268 271 241 239 l 268 292 l 278 301 l 313 389 q 339 419 326 419 l 342 419 l 342 428 q 359 481 342 465 l 364 504 q 379 519 376 510 q 390 538 390 527 l 412 575 l 419 579 l 425 598 q 435 612 427 604 l 456 633 l 450 656 q 467 700 461 689 q 472 720 472 711 q 449 732 472 732 l 439 732 l 436 736 q 397 738 407 739 l 361 728 l 353 728 l 342 722 q 313 728 314 726 l 297 739 l 267 729 l 261 737 l 248 729 l 233 741 l 204 737 l 180 741 l 157 732 l 153 745 l 144 745 l 121 729 l 98 741 l 77 733 l 58 777 q 79 799 68 791 q 94 807 91 807 l 98 807 q 113 819 105 818 l 117 815 l 117 819 q 155 860 117 854 q 182 869 163 869 l 186 878 q 248 867 234 867 q 264 869 251 869 q 296 864 271 869 q 364 851 317 851 l 410 844 l 422 846 l 467 842 z "},"8":{"ha":708,"x_min":17,"x_max":787,"o":"m 296 846 l 306 846 q 335 825 335 846 q 325 802 335 816 q 318 785 318 796 l 338 781 l 364 798 l 396 823 l 453 835 l 486 829 l 550 843 l 600 832 l 627 829 l 640 840 l 664 838 l 682 837 q 722 825 689 836 l 737 835 q 777 815 766 831 q 787 787 787 799 l 787 783 q 784 768 787 774 q 777 756 781 762 q 768 747 772 750 q 760 734 764 743 q 749 719 755 726 q 734 705 743 711 l 701 682 l 689 664 l 530 546 l 521 532 l 465 501 l 429 460 l 395 447 l 396 436 l 396 433 l 414 410 q 421 387 418 406 l 435 372 l 475 282 l 478 260 l 486 252 l 479 200 l 479 176 l 414 107 l 304 33 l 278 5 l 256 11 l 191 -26 q 161 -37 185 -37 q 119 -32 143 -37 l 78 -22 l 33 35 l 17 72 l 28 94 l 26 111 l 56 147 l 74 186 q 105 227 94 214 q 138 271 117 240 q 154 283 151 279 l 200 330 q 243 370 226 355 l 240 374 l 240 387 l 244 393 l 204 458 l 183 518 l 176 526 l 179 534 l 171 543 l 161 589 l 139 604 q 118 632 137 612 q 124 648 118 637 l 129 656 l 142 705 l 174 732 l 178 753 l 248 814 l 268 823 l 296 846 m 437 747 l 399 714 l 371 696 l 358 663 l 326 664 l 319 653 l 302 653 q 297 619 297 631 l 301 595 l 301 591 l 304 581 l 326 561 l 334 533 l 346 515 q 355 492 353 505 l 370 489 q 426 526 406 509 q 446 550 446 543 l 513 607 q 576 653 570 646 l 606 684 l 629 697 l 636 711 l 597 722 l 597 725 l 581 728 l 567 724 l 529 737 l 482 732 l 437 747 m 275 336 l 275 334 q 266 312 275 320 q 256 302 256 304 l 232 268 l 192 237 l 174 204 l 154 186 l 144 161 q 126 139 143 157 l 127 92 l 131 72 q 140 67 131 68 l 150 65 l 199 71 l 262 92 l 277 100 q 292 104 285 104 l 311 106 q 361 150 325 134 q 368 175 368 164 l 366 192 l 366 197 q 325 260 343 226 q 307 301 307 295 l 307 321 l 296 346 l 281 346 l 275 336 z "},"9":{"ha":644,"x_min":62,"x_max":707,"o":"m 471 972 l 503 953 l 515 929 l 528 926 l 545 904 l 545 892 q 551 861 545 869 l 558 864 l 562 863 l 571 873 l 585 871 l 593 877 q 627 886 596 879 q 661 878 633 880 q 682 899 667 899 q 698 890 690 899 q 707 871 707 881 q 703 859 707 867 l 684 827 l 677 799 q 659 755 673 786 q 636 729 640 743 l 624 700 l 586 639 l 564 616 l 536 551 l 492 504 l 482 476 l 467 456 l 443 419 l 418 410 l 421 404 l 411 385 l 416 385 l 403 353 q 359 265 359 307 l 359 231 l 342 154 l 342 132 l 336 132 q 330 115 330 121 l 334 102 l 334 72 q 342 49 334 51 l 422 86 l 447 75 l 452 57 q 445 35 452 56 q 431 9 437 14 l 374 -21 l 351 -43 l 267 -81 l 222 -86 l 229 -43 l 216 -24 l 241 115 l 269 252 l 294 260 l 294 265 q 309 319 294 290 l 314 319 l 329 346 l 354 410 l 378 449 l 382 493 l 399 503 l 402 519 q 419 549 404 526 q 400 564 416 560 l 385 555 q 332 528 359 538 q 299 498 314 503 q 244 485 284 492 q 188 470 204 477 q 152 444 172 463 q 119 425 132 425 q 95 445 106 425 q 69 488 85 464 l 69 515 l 62 538 l 77 558 l 83 586 q 102 610 95 599 q 112 631 109 621 q 131 665 115 641 l 153 701 l 196 761 l 215 777 l 212 779 q 240 811 220 798 l 245 833 l 264 852 l 284 878 q 310 896 288 882 l 313 907 l 330 914 l 364 953 q 387 966 374 966 l 400 965 l 441 968 l 471 972 m 411 700 l 403 774 q 387 815 397 799 q 370 832 377 832 q 349 825 354 832 l 322 791 l 307 786 l 297 765 l 293 765 l 273 742 q 225 675 239 684 q 204 663 208 668 q 196 628 199 659 l 178 608 l 178 575 l 165 546 q 172 530 167 534 l 179 530 q 221 551 200 537 l 256 567 l 281 574 q 325 591 317 592 l 325 600 l 342 607 q 358 616 353 611 l 374 631 l 374 624 l 418 659 q 428 672 428 664 l 427 682 l 411 700 z "}," ":{"ha":321,"x_min":0,"x_max":0,"o":""},"!":{"ha":557,"x_min":97,"x_max":557,"o":"m 554 1090 l 557 1082 q 542 1065 557 1073 q 530 1047 535 1059 l 517 1021 l 488 981 l 465 924 l 431 867 q 440 857 433 863 q 418 810 427 836 q 408 782 416 795 l 386 750 q 384 740 386 747 l 378 713 l 371 688 l 366 640 l 353 618 l 355 583 l 353 583 l 353 576 l 346 533 l 349 529 l 343 521 l 346 521 l 346 517 l 339 517 l 336 498 l 330 412 l 336 400 l 334 372 l 339 363 l 323 318 l 298 302 l 282 278 q 264 265 279 273 l 252 273 l 229 261 l 220 265 q 201 253 210 253 l 192 256 l 184 268 l 184 271 l 197 309 l 184 350 l 195 390 l 197 424 q 204 434 197 427 q 222 441 212 440 l 222 444 q 229 467 229 460 l 222 489 l 244 494 l 252 517 q 255 558 254 550 q 257 568 257 566 l 257 574 q 254 593 254 587 q 264 608 254 604 l 267 621 l 264 621 l 264 633 l 269 631 l 267 646 l 273 656 l 273 672 l 296 672 l 286 693 q 304 754 304 752 l 304 775 l 314 807 l 321 807 l 326 810 l 330 817 l 334 817 l 339 822 q 326 864 339 837 q 343 908 340 894 l 349 914 l 343 924 l 353 926 l 366 958 l 374 965 l 396 1015 l 403 1013 q 408 1031 408 1025 q 432 1059 408 1045 q 465 1082 455 1072 l 468 1078 l 465 1078 l 468 1075 l 478 1088 q 503 1100 500 1095 l 554 1090 m 208 -45 q 184 -57 202 -52 q 160 -62 167 -62 q 130 -40 140 -47 q 106 -12 119 -32 l 97 -9 l 103 3 l 103 9 l 119 41 l 127 37 q 150 60 132 51 l 150 62 l 167 72 l 172 72 l 182 79 l 179 85 l 182 89 q 210 107 182 107 q 262 88 241 107 q 283 41 283 69 q 273 12 283 18 l 241 -7 l 208 -45 z "},"\"":{"ha":650,"x_min":154,"x_max":599,"o":"m 428 642 l 403 650 l 401 689 l 410 702 q 415 728 414 708 l 436 750 l 431 800 q 464 846 464 838 q 458 866 464 857 q 452 878 452 876 q 453 880 452 880 l 467 936 l 481 959 q 513 990 489 970 q 561 970 540 985 l 561 939 l 587 936 l 590 929 l 590 920 l 599 916 l 599 890 q 584 859 592 875 q 550 825 576 842 l 559 806 q 541 781 549 793 q 526 754 532 768 q 514 726 519 741 l 505 696 l 469 650 l 447 656 l 428 642 m 170 647 l 154 660 q 165 703 159 676 l 182 717 l 170 746 l 186 750 l 195 786 q 213 843 211 812 q 221 876 216 874 l 245 949 l 261 968 q 279 979 264 972 l 306 972 l 311 953 l 340 949 q 357 918 357 921 l 357 908 l 366 904 l 366 879 q 338 829 353 850 l 339 808 l 326 794 q 296 753 320 783 q 260 701 271 724 l 232 648 l 205 633 l 170 647 z "},"#":{"ha":875,"x_min":-4,"x_max":892,"o":"m 461 918 l 461 882 l 443 857 l 440 823 l 424 806 l 383 682 l 375 675 l 385 675 l 395 673 l 408 675 l 425 673 q 456 671 453 671 l 471 672 l 494 671 l 524 673 l 541 673 q 585 665 572 665 l 607 667 l 607 677 l 619 688 q 623 702 621 694 q 629 715 626 709 q 636 737 633 721 q 643 764 640 753 q 652 787 647 776 q 660 808 657 798 q 667 812 664 810 l 664 812 q 679 852 673 845 l 686 851 q 692 859 692 857 l 692 861 l 689 871 l 694 880 l 701 879 l 700 885 q 704 905 700 890 q 717 921 709 921 l 755 918 l 755 882 l 736 857 l 734 823 l 718 806 l 677 682 l 671 671 l 684 668 l 703 668 q 709 667 705 668 q 719 668 713 666 q 729 669 724 669 l 749 667 q 765 668 760 667 q 779 664 774 664 q 787 667 782 664 q 817 669 804 669 l 839 668 q 878 679 844 668 q 892 643 881 659 l 886 631 l 872 624 l 861 625 q 852 615 857 623 q 839 607 844 608 l 831 616 q 819 623 827 623 q 803 612 815 612 q 789 614 794 612 l 785 611 l 772 611 l 734 608 l 710 614 l 676 612 l 660 612 l 654 593 q 631 555 652 585 l 628 517 q 618 493 628 505 q 604 461 604 469 l 599 425 l 586 385 l 579 347 l 595 354 q 643 351 636 349 q 653 353 649 353 l 672 350 q 689 351 684 350 q 703 347 697 347 q 711 350 705 347 q 741 353 728 353 l 762 351 q 781 356 771 351 q 802 363 791 361 q 815 328 804 342 l 810 315 l 796 307 l 785 309 q 777 298 782 307 q 762 292 770 294 l 754 301 q 743 306 751 306 q 726 296 739 296 q 713 297 718 296 l 707 294 l 696 294 l 659 292 l 633 297 l 600 296 q 566 301 587 296 l 549 252 l 543 212 l 521 122 l 517 118 l 518 110 q 500 81 503 92 q 444 -53 484 -45 l 436 -43 l 399 -45 l 404 -21 l 404 -18 l 411 -4 q 427 62 414 20 q 441 90 441 73 l 444 90 l 453 117 l 457 115 l 464 151 q 492 235 483 193 l 494 235 l 493 239 l 505 294 l 446 297 l 421 294 q 403 293 415 293 q 368 297 389 293 l 349 301 l 326 298 l 289 301 l 268 297 l 265 281 l 259 262 q 254 241 256 252 l 249 212 l 228 122 l 222 118 l 224 110 q 205 81 208 92 q 194 14 199 35 q 179 -25 189 -7 q 164 -47 170 -43 q 134 -53 157 -51 l 126 -43 l 106 -45 l 110 -21 l 110 -18 l 117 -4 q 132 62 120 20 q 147 90 147 73 l 150 90 l 158 117 l 163 115 l 170 151 q 197 235 188 193 l 200 235 l 200 239 l 211 292 l 208 301 l 200 296 l 170 296 l 149 294 l 90 296 l 50 294 l 40 294 l 33 297 l 31 292 q 9 275 18 285 q -4 294 7 285 q 13 315 3 307 q 34 333 24 323 q 61 350 45 342 q 122 357 77 357 l 149 353 q 158 357 154 353 l 193 353 l 214 354 q 222 353 218 354 q 235 368 224 360 l 239 416 l 253 460 l 258 465 l 253 475 q 265 501 255 489 l 267 513 l 269 510 l 265 528 l 277 529 l 281 564 l 283 562 q 297 616 294 583 l 282 616 l 273 612 l 243 612 l 222 610 l 164 612 l 123 611 l 114 611 l 107 614 l 104 607 q 83 591 91 602 q 69 611 78 602 q 87 632 77 625 q 107 649 96 640 q 134 666 117 659 q 196 673 151 673 l 222 669 q 231 673 227 669 l 267 669 l 288 671 q 311 668 304 671 l 318 672 l 325 688 q 333 711 327 700 q 341 737 340 723 q 354 779 342 751 q 366 808 366 806 q 372 812 370 810 l 370 812 q 386 852 378 845 l 392 851 q 397 859 397 857 l 397 861 l 395 871 l 400 880 l 407 879 l 406 885 q 411 907 406 892 q 424 921 416 922 l 461 918 m 518 350 l 518 359 q 528 376 518 370 l 533 416 l 547 460 l 553 465 l 547 475 q 559 501 549 489 l 561 513 l 564 510 l 558 528 l 571 529 l 575 564 l 578 562 q 590 610 589 584 l 517 614 l 490 611 q 468 610 484 610 q 436 613 455 610 l 418 616 l 397 615 l 361 618 l 358 585 l 342 562 q 334 517 334 550 q 325 493 334 503 q 310 461 310 467 l 306 425 l 281 354 l 315 359 l 325 357 l 339 359 l 370 355 l 431 355 l 454 357 l 471 357 q 518 350 496 350 z "},"$":{"ha":917,"x_min":41,"x_max":806,"o":"m 371 37 l 347 31 l 345 32 l 322 31 l 254 21 l 187 28 l 155 18 l 115 28 l 98 30 q 77 39 90 31 q 58 56 64 47 l 41 79 l 45 121 l 56 123 l 66 135 l 85 143 q 114 168 94 155 l 178 168 l 178 149 l 176 140 l 184 132 l 169 117 q 153 92 161 110 l 158 81 l 191 66 l 199 81 l 221 86 l 252 79 l 317 75 l 339 86 l 358 86 q 376 90 373 87 l 372 109 q 378 125 372 114 l 375 140 l 378 154 l 374 180 l 376 204 l 379 203 l 378 211 l 386 221 q 376 248 376 240 l 378 264 q 386 282 386 272 q 385 290 386 288 l 389 289 q 378 332 378 313 q 380 354 378 340 l 385 355 l 379 359 l 383 372 l 386 454 l 389 456 l 389 461 q 392 472 389 467 l 390 475 l 393 478 l 392 482 l 386 473 l 358 486 l 354 473 l 332 473 l 328 482 l 301 486 l 278 476 l 257 479 q 229 490 248 481 l 216 485 l 204 490 l 203 481 l 167 476 l 165 482 l 151 481 l 127 500 l 122 515 q 109 533 119 522 q 134 555 123 545 l 140 555 l 151 576 l 163 576 l 176 591 l 207 612 l 239 642 l 256 653 l 278 661 l 298 682 l 317 690 l 335 705 l 364 724 l 387 749 q 412 765 390 753 q 425 808 412 787 l 427 806 l 429 807 l 429 822 l 427 829 q 431 839 431 833 q 429 846 431 843 q 432 865 432 852 q 431 878 432 872 q 435 884 435 882 l 435 886 q 443 896 443 890 q 437 907 443 899 l 444 907 l 447 917 l 452 917 l 447 922 q 450 942 447 925 l 456 945 l 457 953 q 453 966 457 960 q 470 996 457 970 q 482 1029 482 1021 l 482 1051 q 511 1075 490 1075 q 523 1070 513 1075 q 542 1063 532 1065 l 524 1034 q 505 1006 517 1021 l 505 954 l 476 879 l 464 852 l 468 828 l 463 802 l 481 815 l 492 815 l 507 833 q 538 854 526 845 l 541 863 q 546 875 545 871 q 593 911 570 891 l 597 911 l 597 917 l 606 917 l 608 926 l 635 933 l 682 962 l 697 953 l 720 956 l 745 926 l 745 914 l 761 901 l 768 872 l 765 854 l 768 854 l 761 757 l 745 742 l 720 729 l 692 693 l 676 688 q 661 680 667 686 l 644 664 l 612 679 l 604 701 l 618 718 l 608 737 l 624 766 q 615 796 619 791 l 583 791 l 561 802 l 534 791 l 538 778 l 511 755 l 501 755 l 443 720 l 450 708 l 440 701 l 446 696 q 428 546 431 683 l 453 545 l 460 533 l 486 533 l 507 518 l 558 522 l 575 522 l 586 513 l 604 513 q 627 503 612 505 l 640 490 l 652 490 q 675 500 659 496 q 700 468 693 485 l 749 436 l 796 395 l 786 375 l 806 355 l 791 314 l 787 273 l 774 253 q 761 218 768 243 l 734 204 l 729 189 l 624 117 l 604 121 l 602 110 l 498 72 l 481 58 l 447 58 l 437 50 l 421 50 l 412 40 l 408 41 q 404 1 404 21 l 404 -12 q 396 -65 396 -58 q 404 -100 396 -77 l 395 -132 l 397 -186 q 375 -227 382 -201 l 350 -233 l 355 -220 l 349 -221 q 336 -212 342 -221 q 330 -193 330 -202 q 338 -157 330 -180 l 335 -147 q 347 -132 347 -141 q 345 -122 347 -130 l 349 -121 l 353 -94 l 351 -85 q 361 -69 351 -75 l 366 -22 l 361 -9 q 370 1 365 -8 l 374 9 q 371 37 374 24 m 386 546 l 389 553 l 399 610 l 395 615 q 400 646 400 630 q 397 668 400 661 q 401 681 401 676 l 401 684 q 408 699 406 691 q 361 661 379 683 l 347 659 l 342 647 l 310 639 l 313 632 l 290 624 l 229 576 q 258 547 248 564 l 272 555 l 281 545 l 304 554 l 322 545 l 353 547 l 386 546 m 406 98 l 421 98 l 435 102 l 488 122 l 505 126 q 543 142 528 140 l 551 151 l 559 149 l 611 178 l 625 204 l 652 212 l 650 229 l 660 243 l 656 248 l 668 282 l 667 297 l 673 317 l 659 346 l 665 368 l 650 403 l 635 407 q 615 436 627 428 l 583 432 l 574 453 q 558 468 572 457 l 518 458 l 510 468 l 485 475 q 474 481 479 476 l 460 493 l 453 485 l 435 490 l 425 481 l 425 467 l 419 425 l 416 302 l 412 248 l 418 233 l 408 212 l 410 193 l 404 193 l 406 178 l 414 176 l 418 147 l 404 131 l 410 115 q 406 98 410 107 z "},"%":{"ha":974,"x_min":-50,"x_max":1008,"o":"m 726 876 q 714 873 720 876 l 717 867 q 660 800 699 854 q 616 732 622 746 q 599 703 610 719 l 590 710 l 590 693 l 578 681 q 559 646 568 659 l 541 621 l 471 504 l 436 454 l 433 437 l 420 427 q 404 404 414 422 l 399 407 l 390 390 l 399 385 l 386 355 l 364 347 l 359 328 q 330 282 336 298 q 308 248 325 265 q 278 196 291 231 q 256 174 271 196 l 250 174 l 248 154 l 212 123 q 170 64 186 82 q 142 27 154 47 l 131 9 l 115 -32 l 89 -57 l 61 -110 q 17 -136 39 -118 q -38 -118 -25 -125 q -50 -98 -50 -111 q -18 -50 -50 -84 l -16 -37 l -11 -37 q 7 -20 5 -37 l 12 -20 l 32 3 q 52 22 34 22 l 54 22 q 64 32 54 29 l 69 50 q 123 117 123 93 l 123 119 l 126 123 q 149 142 146 126 l 155 149 l 155 144 l 161 149 l 164 179 l 171 176 q 191 201 180 193 l 193 214 l 203 221 l 205 236 l 211 236 q 228 250 218 241 q 253 313 239 259 l 265 325 l 275 325 q 297 355 281 351 l 300 372 l 313 385 l 319 404 q 338 432 322 412 l 342 429 l 345 437 l 357 441 l 357 447 q 372 489 357 470 q 395 511 390 491 l 397 507 q 427 574 399 547 l 432 574 l 429 581 l 439 589 l 486 665 l 489 665 q 501 681 492 676 l 501 685 l 505 685 l 511 702 q 519 718 514 713 l 533 734 l 536 754 l 543 760 l 583 810 l 583 817 q 615 867 609 836 l 618 869 q 628 879 628 871 q 647 899 645 882 l 660 911 q 677 930 660 928 l 677 939 q 720 986 692 967 l 720 983 l 722 983 l 732 996 l 732 1006 q 745 1018 745 1006 q 764 1047 755 1027 l 766 1047 q 774 1055 774 1047 q 786 1072 784 1055 l 791 1068 l 802 1078 l 804 1075 l 804 1082 q 817 1100 804 1088 l 823 1100 q 833 1122 833 1112 q 856 1137 850 1129 l 859 1135 q 864 1154 862 1141 l 868 1152 l 868 1154 l 876 1166 l 896 1177 l 903 1185 l 918 1194 q 935 1220 930 1217 q 943 1223 940 1223 q 956 1217 945 1223 q 986 1210 968 1210 q 1004 1211 998 1210 q 1008 1197 1008 1203 q 965 1160 1008 1176 l 937 1109 l 846 1025 l 821 1006 l 811 981 l 772 939 q 726 889 745 903 l 726 876 m 382 1084 l 414 1075 q 467 993 437 1044 q 446 965 446 988 l 452 939 l 401 896 l 389 848 q 376 819 381 838 l 342 804 l 278 732 l 233 705 l 212 681 l 200 688 q 149 675 167 675 q 121 700 132 675 l 114 697 q 100 722 100 705 l 102 732 l 98 732 l 92 766 l 98 794 l 98 807 l 109 817 q 120 847 119 825 q 139 908 121 869 l 149 908 q 171 921 160 912 q 182 961 182 957 l 205 974 q 227 987 214 987 l 231 1003 l 238 1017 q 262 1038 240 1021 l 262 1040 l 290 1060 q 329 1078 307 1078 l 342 1078 l 357 1072 l 364 1082 l 376 1082 l 382 1084 m 231 892 l 212 879 l 218 861 l 215 844 q 222 817 215 840 q 243 787 229 794 l 248 779 q 260 794 250 788 l 265 794 l 288 814 l 288 819 l 290 822 l 294 819 l 294 822 l 307 827 l 317 848 l 319 842 l 329 848 l 332 848 l 338 884 l 332 904 l 332 943 l 313 949 l 278 949 l 262 943 l 237 943 l 231 892 m 710 404 l 757 397 l 757 400 l 777 397 l 786 400 l 796 390 q 839 375 815 390 l 836 372 l 864 340 l 859 306 l 878 258 q 838 190 852 224 q 808 139 823 155 l 757 82 l 729 69 l 729 66 l 692 40 l 657 0 l 628 -9 l 578 -41 l 543 -41 l 521 -45 q 515 -35 519 -42 q 501 -18 508 -24 l 484 0 q 478 8 479 5 l 476 17 q 473 39 474 24 l 471 56 q 469 64 471 59 q 467 75 467 70 q 471 92 467 81 l 476 102 l 489 174 l 496 174 l 511 214 l 518 214 q 533 227 533 216 q 530 236 533 229 l 543 239 l 543 256 l 553 268 q 568 290 566 272 q 590 318 589 290 l 606 328 q 647 370 642 366 l 685 395 l 685 397 l 710 404 m 583 167 l 583 151 q 581 129 581 135 l 590 107 l 603 107 l 612 89 l 612 75 l 650 104 q 685 126 675 104 q 761 199 755 160 l 754 199 q 734 271 754 241 q 710 283 714 271 l 688 288 l 669 278 l 650 278 l 637 253 l 590 201 l 583 167 z "},"&":{"ha":793,"x_min":56,"x_max":682,"o":"m 612 802 l 625 791 l 625 789 q 660 802 646 802 q 682 779 677 802 q 647 728 665 734 l 600 713 l 562 681 l 515 685 l 481 675 l 458 675 q 411 656 429 661 l 408 650 q 332 599 359 637 l 367 593 q 386 585 373 593 q 411 576 399 576 l 414 576 q 456 589 446 589 l 478 581 l 513 581 l 518 574 l 538 533 l 496 507 q 481 482 486 491 q 446 455 476 473 l 418 439 l 351 363 l 260 268 q 197 142 214 222 l 187 139 l 193 123 l 193 107 q 205 94 193 100 q 235 114 210 100 l 248 110 l 257 119 l 260 117 l 272 117 l 272 119 l 288 126 l 288 123 l 329 129 l 342 123 q 349 142 349 130 l 431 176 l 424 186 l 432 184 l 439 186 q 468 214 457 190 l 473 208 l 490 224 l 496 224 q 505 239 505 229 l 505 256 q 500 283 500 272 l 524 294 q 541 313 528 296 l 541 309 l 570 328 q 586 322 578 322 q 591 332 591 322 q 590 343 591 339 l 635 353 l 669 306 l 647 236 l 595 92 l 570 9 l 538 -85 l 505 -201 l 496 -214 l 500 -224 q 492 -247 498 -231 q 479 -289 485 -262 q 466 -329 473 -315 q 451 -373 460 -342 q 443 -412 443 -405 l 446 -412 q 364 -507 423 -480 l 339 -511 l 304 -536 q 315 -507 309 -515 q 322 -482 322 -500 l 307 -457 l 317 -439 q 329 -422 319 -422 l 339 -422 q 357 -404 349 -408 l 357 -385 l 376 -359 l 376 -322 q 392 -268 388 -288 q 418 -227 417 -246 l 421 -158 l 431 -151 l 433 -136 q 448 -96 446 -121 q 452 -65 450 -71 q 471 -50 454 -59 l 471 -22 l 484 -16 q 480 13 477 0 l 484 47 l 471 60 l 473 89 q 476 106 476 94 q 473 123 476 119 l 458 132 q 441 116 450 127 q 419 99 432 104 q 401 94 407 94 l 383 97 q 371 85 377 97 q 341 61 359 71 q 297 45 323 52 l 220 22 q 193 12 208 16 q 183 16 187 16 l 168 9 l 153 9 q 115 -7 132 -3 q 103 -1 106 -3 q 93 22 99 2 l 71 16 q 56 41 56 20 l 58 56 q 61 72 60 70 q 76 114 68 86 q 90 153 83 142 l 103 174 l 134 231 l 146 221 l 146 233 q 215 318 176 263 q 237 347 222 347 l 248 347 l 252 350 l 252 359 q 260 370 252 370 l 272 382 l 275 375 l 282 387 q 326 450 326 434 l 326 454 q 285 472 324 472 l 275 472 l 275 482 q 239 475 254 475 q 220 482 229 475 l 200 476 l 175 504 l 163 489 l 150 494 q 158 524 156 512 l 172 529 q 179 548 178 538 q 205 583 180 557 l 210 581 l 220 596 l 222 593 l 250 640 q 266 644 257 640 q 294 675 275 648 l 319 681 l 361 713 l 396 720 l 414 737 q 493 760 443 740 l 505 779 l 562 779 l 572 794 l 587 785 l 612 802 z "},"'":{"ha":416,"x_min":154,"x_max":366,"o":"m 170 647 l 154 660 q 165 703 159 676 l 182 717 l 170 746 l 186 750 l 195 786 q 213 843 211 812 q 221 876 216 874 l 245 949 l 261 968 q 279 979 264 972 l 306 972 l 311 953 l 340 949 q 357 918 357 921 l 357 908 l 366 904 l 366 879 l 354 854 l 340 833 q 337 823 338 829 l 335 804 l 326 794 q 296 753 320 783 q 260 701 271 724 l 232 648 l 205 633 l 170 647 z "},"(":{"ha":753,"x_min":278,"x_max":796,"o":"m 762 1025 q 783 1015 770 1020 q 796 1004 796 1010 q 787 987 796 996 l 752 956 l 740 941 q 723 928 732 933 l 698 914 q 686 880 696 884 q 666 876 675 876 l 661 876 l 585 817 l 576 807 l 556 794 l 538 766 l 512 747 l 503 726 q 490 707 496 713 l 469 690 l 456 631 l 427 576 l 434 571 l 434 551 q 421 511 424 529 l 430 504 l 421 486 l 421 447 l 414 410 l 421 395 l 427 359 l 434 348 q 439 313 437 343 l 456 290 l 487 236 l 506 218 l 547 142 l 573 107 l 569 107 l 576 97 q 588 57 582 68 l 534 12 l 516 -28 q 494 -48 511 -39 q 459 -57 477 -57 q 439 -29 446 -57 q 380 79 432 -1 l 320 171 l 292 253 q 295 265 292 255 q 285 291 292 275 q 280 325 278 307 l 295 469 l 304 501 l 304 517 l 317 521 l 311 529 l 313 539 q 327 558 327 543 l 327 564 l 323 558 q 336 589 334 578 l 342 589 q 355 615 355 606 l 355 628 q 380 659 380 646 l 380 668 q 389 681 389 672 q 402 692 397 685 q 409 706 407 699 q 425 728 412 713 l 425 734 l 434 741 l 434 745 q 452 762 438 745 l 456 762 q 494 798 471 795 q 516 822 500 821 q 573 873 536 857 q 608 901 584 897 l 642 933 q 655 956 645 936 l 667 956 l 705 983 l 698 981 l 707 993 l 713 993 q 732 1006 732 993 l 732 1008 l 745 1018 l 759 1018 l 762 1025 z "},")":{"ha":753,"x_min":41,"x_max":488,"o":"m 269 978 l 301 965 l 349 889 l 392 827 l 433 741 l 447 719 q 458 696 456 705 l 465 668 q 464 656 464 664 q 478 621 464 636 l 471 599 q 478 561 473 593 q 476 553 476 559 q 480 538 476 547 l 484 529 l 484 486 q 488 467 484 475 q 458 404 480 437 l 456 404 q 436 359 452 378 q 427 338 427 342 l 427 335 l 424 335 q 399 283 415 300 q 367 253 374 264 q 371 240 367 247 q 322 179 340 195 l 260 123 l 237 94 l 210 82 l 191 57 l 143 20 l 128 -2 q 106 -25 121 -12 l 98 -47 l 92 -47 q 55 -34 64 -47 q 41 22 45 -21 l 46 22 l 50 31 q 71 50 52 35 l 81 47 q 86 66 86 56 l 96 66 q 103 89 96 89 l 115 89 q 123 94 122 89 q 138 104 134 94 l 140 104 q 165 114 159 109 q 178 110 170 114 l 180 123 q 197 139 194 129 l 200 136 l 203 139 l 200 144 q 222 154 207 150 l 220 158 q 237 176 233 158 l 240 174 l 240 183 l 244 179 l 243 183 q 249 189 243 189 q 260 186 252 189 l 260 192 q 269 201 267 193 q 296 245 286 214 q 310 278 305 275 l 314 309 l 329 328 l 326 330 l 342 359 l 342 382 l 351 387 l 354 397 l 336 422 l 339 464 l 342 460 q 345 464 345 463 q 336 472 345 470 l 332 504 l 319 536 l 319 558 l 297 628 l 297 633 l 285 646 l 279 675 l 257 700 l 240 732 q 210 789 216 754 l 212 789 l 212 791 l 203 798 l 203 802 l 193 817 l 191 807 q 178 842 180 821 q 165 854 165 844 q 168 876 165 869 l 172 879 l 175 892 q 180 889 178 889 q 184 901 184 889 l 187 901 l 193 914 q 210 930 208 926 q 237 956 237 931 l 240 953 l 262 965 l 262 968 l 267 968 l 269 978 z "},"*":{"ha":905,"x_min":135,"x_max":815,"o":"m 363 1060 l 371 1043 q 370 1029 370 1039 q 410 956 370 1002 l 440 921 q 450 933 447 928 l 453 930 q 460 956 460 947 q 452 978 460 966 l 452 1000 l 453 1018 l 460 1015 l 463 1025 l 465 1021 l 472 1028 l 479 1028 l 485 1035 q 500 1038 496 1038 q 532 1006 508 1038 l 519 993 q 526 971 522 976 l 510 953 l 513 936 l 507 899 l 507 892 q 524 886 516 886 q 534 896 533 886 q 541 895 538 895 q 547 900 543 895 q 554 908 550 906 q 570 926 556 925 q 591 939 578 939 l 596 946 q 608 965 598 955 l 602 968 l 629 987 l 636 987 l 636 1006 l 646 1008 l 648 1018 l 656 1021 l 659 1031 q 671 1028 665 1031 l 677 1031 l 677 1035 q 708 1008 694 1027 l 693 991 q 664 968 686 983 l 629 946 l 608 918 l 586 908 l 557 876 l 529 867 l 529 857 q 564 817 529 817 q 611 836 588 817 l 643 829 l 658 839 q 684 844 665 844 q 722 850 701 844 l 741 857 l 753 857 l 753 861 l 785 867 q 801 859 787 867 q 815 844 814 851 q 794 814 811 829 l 705 804 l 671 814 l 627 798 l 599 798 q 582 779 587 792 l 589 772 q 621 732 603 751 l 684 665 q 721 633 695 652 q 753 611 734 628 l 725 589 q 705 561 721 586 l 668 571 l 686 583 l 690 596 l 673 631 l 648 646 l 633 677 l 602 715 l 586 720 q 553 761 578 743 q 513 779 528 779 q 492 762 505 779 l 479 656 l 475 656 l 465 640 l 469 618 q 457 583 458 594 l 460 583 l 444 568 l 453 539 q 438 510 453 528 q 406 492 422 492 q 368 524 387 492 q 380 568 368 547 l 383 568 l 383 593 q 393 618 391 595 l 396 618 l 415 640 q 425 699 425 696 q 421 722 425 704 q 400 741 417 741 q 387 737 399 741 l 371 715 l 314 668 l 298 665 l 283 647 l 239 610 l 214 600 l 196 553 q 182 536 192 543 q 167 530 172 530 q 144 542 153 530 q 135 559 135 553 q 157 590 135 576 l 165 590 l 165 595 l 170 595 l 174 597 l 174 603 q 189 615 184 615 l 200 615 l 196 619 l 201 619 q 239 642 231 632 l 239 647 q 269 669 258 652 q 283 681 278 673 q 296 693 296 681 l 343 728 l 346 722 q 358 734 348 734 l 358 737 q 380 782 380 762 q 375 791 380 788 l 349 785 l 336 798 q 299 790 317 795 q 258 783 282 785 q 232 782 234 781 l 189 794 l 167 785 l 147 814 l 150 819 l 154 817 l 150 827 l 157 829 l 154 832 q 182 844 167 843 l 176 844 q 192 851 180 849 q 214 842 205 847 q 232 828 225 828 l 236 829 l 245 829 l 267 827 l 277 827 q 358 810 311 827 l 363 819 l 366 817 l 380 827 q 393 817 389 821 l 428 827 l 428 822 q 447 842 433 821 l 437 867 l 437 886 q 417 898 429 895 q 400 914 406 901 q 384 923 388 914 q 380 933 380 932 l 380 935 q 363 955 380 944 q 334 978 346 965 q 326 1003 332 991 q 321 1034 321 1015 q 328 1063 321 1053 l 330 1063 l 330 1065 q 335 1069 330 1069 l 336 1069 l 363 1060 z "},"+":{"ha":1157,"x_min":172,"x_max":985,"o":"m 539 828 l 619 828 l 619 454 l 985 454 l 985 375 l 619 375 l 619 0 l 539 0 l 539 375 l 172 375 l 172 454 l 539 454 l 539 828 z "},",":{"ha":416,"x_min":28,"x_max":252,"o":"m 72 -269 l 69 -260 l 52 -265 l 37 -252 q 28 -239 28 -248 q 31 -233 28 -237 q 33 -224 33 -229 l 33 -212 q 51 -202 33 -210 q 69 -179 69 -193 q 68 -172 69 -175 l 81 -163 q 118 -151 103 -159 l 125 -127 l 139 -106 l 157 -65 l 167 -29 l 127 -46 q 94 -21 117 -42 l 82 -7 q 50 18 77 0 q 35 40 35 22 q 62 72 35 54 l 87 127 q 139 163 104 163 l 151 158 q 171 154 163 154 q 193 158 178 154 l 201 142 q 213 127 205 134 l 233 111 l 233 89 l 249 43 l 252 29 l 252 8 l 245 -24 l 241 -24 l 236 -56 q 224 -72 224 -57 l 224 -78 l 227 -90 q 214 -103 222 -100 l 216 -103 q 218 -106 218 -103 q 201 -138 218 -119 l 201 -143 l 199 -140 l 186 -160 l 186 -165 q 157 -187 170 -186 q 142 -197 149 -197 q 104 -237 141 -222 q 90 -257 104 -248 l 87 -254 l 72 -269 z "},"-":{"ha":603,"x_min":83,"x_max":519,"o":"m 286 351 l 306 349 l 309 351 q 328 343 315 345 l 325 340 l 345 343 l 350 343 l 350 338 l 361 338 l 378 329 l 367 329 l 406 315 l 416 318 l 439 310 l 439 307 l 450 307 l 450 304 l 456 307 l 467 301 l 469 301 q 517 290 500 301 l 517 282 l 519 282 l 503 260 l 469 254 l 458 227 q 431 204 437 215 l 414 201 l 395 210 l 372 214 q 361 219 367 215 l 347 229 l 328 229 q 283 245 307 245 l 241 245 l 214 257 l 205 257 q 117 204 165 257 l 117 201 l 111 204 l 111 201 q 83 220 83 201 q 94 254 83 233 q 122 290 104 276 q 134 310 127 304 l 139 307 l 144 323 l 167 329 l 167 332 l 186 338 l 183 335 q 205 340 202 335 l 208 338 l 211 343 l 214 343 l 216 340 l 256 351 l 267 349 l 267 354 q 275 347 269 347 q 286 351 280 347 z "},".":{"ha":416,"x_min":28,"x_max":271,"o":"m 147 171 l 227 118 l 241 92 q 267 72 263 78 q 271 53 271 66 l 236 9 q 224 -8 230 1 q 204 -33 218 -17 l 176 -37 l 147 -72 l 144 -72 l 135 -68 l 129 -60 l 117 -28 l 94 -8 l 72 17 q 28 52 28 33 q 40 92 28 73 l 47 92 l 47 102 l 50 98 q 78 126 56 126 l 85 123 l 95 134 q 110 161 100 139 l 125 168 l 147 165 l 147 171 z "},"/":{"ha":669,"x_min":41,"x_max":628,"o":"m 593 1015 l 603 1015 l 603 1013 l 628 1008 l 555 886 l 533 864 l 526 832 l 507 817 l 467 741 l 447 700 l 429 675 l 407 608 l 382 583 l 372 546 q 359 524 370 532 q 340 494 343 503 l 322 439 l 306 410 l 302 387 l 283 350 l 245 258 l 227 224 l 214 186 l 179 102 l 174 97 l 174 89 q 151 62 157 76 q 79 -60 113 -60 l 75 -60 l 62 -50 l 41 -47 l 50 -25 l 50 -22 l 60 -9 q 85 54 71 27 q 104 79 100 63 l 107 79 l 119 104 l 123 102 l 136 136 l 149 157 q 176 214 155 165 l 179 214 l 179 218 l 199 268 q 224 315 214 307 l 221 325 q 233 340 221 335 l 245 387 l 265 425 l 273 457 l 293 498 l 300 504 l 296 514 q 313 539 298 528 l 315 549 l 318 546 l 315 564 l 328 564 l 338 599 l 340 596 l 349 610 q 359 646 353 615 q 375 672 370 654 l 385 677 l 387 705 l 400 713 q 405 725 401 719 q 414 738 409 732 q 425 759 418 744 q 436 786 431 774 q 448 806 441 797 q 460 827 455 816 l 464 827 l 467 829 l 464 829 q 486 867 477 861 l 492 864 q 498 873 498 869 l 498 884 l 504 892 l 511 889 l 511 896 q 532 942 516 923 q 549 968 549 962 l 551 968 q 582 996 559 996 l 586 996 l 593 1015 z "},":":{"ha":416,"x_min":41,"x_max":285,"o":"m 161 627 l 240 574 l 256 547 q 281 528 277 533 q 285 509 285 522 l 250 465 q 218 422 231 436 l 191 418 l 161 383 l 158 383 l 149 387 l 143 396 l 131 428 l 109 447 l 86 472 q 50 490 58 482 q 41 513 41 498 q 54 547 41 526 l 61 547 l 61 557 l 64 554 q 92 582 71 582 l 98 579 l 109 590 q 123 616 114 595 l 139 624 l 161 621 l 161 627 m 161 171 l 240 118 l 256 92 q 281 72 277 78 q 285 53 285 66 l 250 9 q 237 -8 241 0 q 218 -33 233 -17 l 191 -37 l 161 -72 l 158 -72 l 149 -68 l 143 -60 l 131 -28 l 109 -8 l 86 17 q 50 35 58 27 q 41 57 41 42 q 54 92 41 71 l 61 92 l 61 102 l 64 98 q 92 126 71 126 l 98 123 l 109 134 q 123 161 114 139 l 139 168 l 161 165 l 161 171 z "},";":{"ha":416,"x_min":41,"x_max":285,"o":"m 161 627 l 240 574 l 256 547 q 281 528 277 533 q 285 509 285 522 l 250 465 q 218 422 231 436 l 191 418 l 161 383 l 158 383 l 149 387 l 143 396 l 131 428 l 109 447 l 86 472 q 50 490 58 482 q 41 513 41 498 q 54 547 41 526 l 61 547 l 61 557 l 64 554 q 92 582 71 582 l 98 579 l 109 590 q 123 616 114 595 l 139 624 l 161 621 l 161 627 m 87 -269 l 85 -260 l 66 -265 l 53 -252 q 43 -239 43 -248 q 46 -233 43 -237 q 49 -227 49 -229 l 49 -224 l 47 -218 q 66 -201 47 -210 q 85 -180 85 -193 q 83 -172 85 -175 l 96 -163 q 134 -151 119 -159 l 140 -127 l 154 -106 l 172 -65 l 182 -29 l 143 -46 q 110 -21 133 -42 l 97 -7 q 65 18 92 0 q 50 40 50 24 q 78 72 50 54 l 103 127 q 154 163 117 159 q 186 154 171 154 q 208 158 198 154 l 216 142 q 229 127 221 134 l 249 111 l 249 89 l 264 43 l 267 29 l 267 8 l 261 -24 l 257 -24 l 252 -56 q 239 -72 239 -57 l 239 -78 l 241 -90 q 229 -103 237 -100 l 232 -103 q 233 -106 233 -103 q 216 -138 233 -119 l 216 -143 l 214 -140 l 201 -160 l 201 -165 q 172 -187 186 -186 q 157 -197 167 -195 q 119 -237 156 -223 q 106 -257 119 -249 l 103 -254 l 87 -269 z "},"<":{"ha":1157,"x_min":179,"x_max":978,"o":"m 978 777 l 978 690 l 300 414 l 978 139 l 978 52 l 179 379 l 179 449 l 978 777 z "},"=":{"ha":1157,"x_min":172,"x_max":985,"o":"m 172 583 l 985 583 l 985 504 l 172 504 l 172 583 m 172 323 l 985 323 l 985 244 l 172 244 l 172 323 z "},">":{"ha":1157,"x_min":179,"x_max":978,"o":"m 179 777 l 978 449 l 978 379 l 179 52 l 179 139 l 857 414 l 179 690 l 179 777 z "},"?":{"ha":789,"x_min":97,"x_max":846,"o":"m 572 1075 q 589 1084 582 1084 l 610 1083 q 619 1093 619 1083 q 646 1101 623 1101 q 680 1097 660 1101 l 699 1093 l 711 1096 l 721 1080 l 751 1071 q 806 1040 777 1053 l 821 1014 l 843 1002 l 846 983 l 825 961 l 808 932 l 781 907 l 758 872 l 726 847 l 696 812 l 667 798 l 629 765 l 600 753 l 530 703 l 418 608 l 346 557 l 297 510 l 292 497 q 264 472 289 492 l 257 412 l 241 375 q 264 357 241 366 q 319 347 288 347 q 336 348 332 347 q 374 363 341 349 q 380 351 380 356 q 365 333 380 343 q 349 306 349 322 l 346 306 q 288 215 349 261 l 254 249 l 229 249 l 207 261 l 191 258 l 148 265 q 113 286 129 269 q 98 311 97 302 l 109 358 l 103 363 l 109 380 q 121 422 121 393 l 127 425 q 125 432 125 428 q 134 437 125 435 q 155 463 154 446 l 163 463 l 165 469 q 182 485 165 485 l 182 494 l 191 494 q 199 503 195 494 q 212 520 203 512 q 225 534 221 528 l 235 539 q 250 564 235 553 l 254 564 q 255 569 254 567 q 257 574 256 572 q 260 578 258 576 q 263 581 261 580 q 268 584 265 583 q 274 585 271 585 q 283 591 277 586 l 294 602 l 332 624 l 346 646 l 367 648 l 374 664 l 383 668 l 386 677 q 406 690 406 680 l 406 693 l 411 693 q 424 703 424 693 l 424 708 l 431 713 l 433 705 q 463 730 444 726 l 463 733 l 477 743 q 485 742 480 742 q 496 755 494 742 q 522 775 515 775 l 528 775 q 536 785 531 781 l 547 790 l 647 857 q 664 872 649 872 l 676 895 l 664 926 l 667 954 l 651 958 q 630 975 644 964 q 570 993 616 985 l 488 954 q 474 948 486 953 q 448 929 462 944 l 433 936 l 427 931 q 399 926 424 929 l 376 901 l 363 899 q 336 879 358 897 q 311 895 327 892 l 311 920 q 332 946 313 921 l 332 942 l 349 951 l 349 964 l 364 964 l 374 966 l 386 983 l 401 977 l 401 993 l 408 989 l 420 1002 l 436 1002 l 433 1006 q 458 1015 450 1013 l 465 1028 l 518 1048 l 513 1053 l 522 1055 l 522 1053 l 550 1059 l 547 1061 l 559 1071 l 562 1068 q 579 1075 579 1069 l 572 1075 m 232 122 l 244 110 q 278 101 270 108 q 286 89 286 94 q 282 78 286 84 q 301 60 298 74 l 297 53 q 285 43 292 43 l 277 53 l 277 1 q 262 -11 262 1 l 260 -11 l 244 -33 l 191 -35 q 172 -65 175 -64 q 155 -69 170 -67 q 146 -50 150 -53 q 134 -45 143 -47 q 121 -22 121 -36 q 165 50 121 -11 l 175 47 l 175 62 q 191 85 185 72 q 203 94 197 87 q 220 87 210 90 l 222 107 l 232 122 z "},"@":{"ha":1369,"x_min":98,"x_max":1272,"o":"m 807 228 q 597 85 724 85 q 461 147 513 85 q 410 313 410 210 q 514 567 410 451 q 739 682 618 682 q 889 550 859 682 l 925 672 l 1022 672 l 907 258 q 895 184 895 215 q 912 134 895 153 q 958 115 929 115 q 1083 171 1012 115 q 1198 320 1155 226 q 1240 530 1240 414 q 1107 835 1240 719 q 775 951 973 951 q 344 780 511 951 q 178 343 178 609 q 339 -23 178 110 q 733 -155 501 -155 q 1149 -16 956 -155 l 1169 -40 q 725 -191 966 -191 q 270 -35 441 -191 q 98 364 98 121 q 289 802 98 618 q 757 985 480 985 q 1132 858 991 985 q 1272 519 1272 730 q 1173 214 1272 343 q 947 85 1073 85 q 807 228 815 85 m 859 510 q 826 614 859 574 q 745 654 793 654 q 581 508 654 654 q 509 254 509 361 q 536 155 509 191 q 610 118 564 118 q 782 254 706 118 q 859 510 859 390 z "},"A":{"ha":1104,"x_min":-28,"x_max":1187,"o":"m 676 1025 l 708 1021 l 724 996 l 721 965 q 725 950 723 956 q 730 908 726 943 l 736 892 l 736 867 l 751 851 l 751 842 l 774 665 l 781 665 l 790 653 l 768 653 q 790 576 781 616 l 812 568 l 833 586 l 856 576 l 865 576 l 868 574 l 872 576 q 900 571 875 574 l 935 596 l 989 593 l 991 603 l 1026 593 l 1086 608 l 1099 621 q 1116 631 1105 628 l 1143 640 l 1156 621 l 1178 621 l 1187 593 q 1162 554 1175 566 l 1156 558 l 1101 501 l 1074 482 l 1007 482 l 970 472 l 937 479 l 872 452 l 868 454 l 828 437 l 838 290 l 840 290 l 840 283 l 831 273 l 840 265 l 843 233 l 850 227 l 843 214 l 856 196 l 863 142 l 872 129 l 882 132 l 885 123 l 884 114 l 875 114 l 878 35 q 852 0 865 14 l 828 -3 l 821 -22 l 803 -20 l 806 -37 l 795 -51 q 758 -77 790 -57 l 734 -57 q 725 -42 730 -54 l 717 -22 l 717 16 l 704 75 l 699 85 l 704 123 l 699 157 l 711 183 l 696 239 q 704 273 702 252 l 699 283 l 704 313 q 696 363 704 325 l 708 390 l 704 435 l 684 447 l 669 441 l 669 447 l 639 444 l 642 425 l 627 429 l 610 425 l 606 422 q 545 407 574 407 l 525 410 l 485 397 l 443 390 l 440 372 l 411 385 l 411 372 l 406 372 l 386 353 l 358 353 l 368 325 l 342 330 l 301 306 l 292 296 l 269 302 l 244 283 l 220 283 l 220 265 l 195 261 l 184 239 l 172 227 l 155 183 l 160 179 q 138 154 158 173 l 135 117 l 115 102 l 118 94 l 109 94 l 109 79 l 86 62 l 86 57 q 71 32 81 52 l 65 32 l 49 -16 l 43 -7 l 43 -12 l 26 -25 l 22 -38 q 8 -57 21 -45 l -17 -47 q -24 -35 -21 -36 l -21 -25 l -21 -20 l -17 -7 q -26 45 -24 6 l -17 40 l -24 47 l -24 57 l -21 60 l -26 77 l -21 89 l -28 104 l -24 110 q -26 151 -25 125 l -14 161 l 24 132 l 46 132 l 125 231 l 113 239 l 115 253 l 90 243 l 86 236 l 81 239 l 65 231 q 36 224 58 227 l 14 253 q 43 300 30 294 q 65 330 43 307 l 81 335 l 78 338 l 103 372 l 106 372 l 165 385 l 172 372 l 184 375 l 187 372 l 195 372 l 200 385 l 220 382 l 220 387 l 235 400 l 225 416 l 237 435 l 269 447 l 267 454 l 271 465 q 292 486 272 469 q 319 546 304 538 l 314 546 l 346 586 l 349 583 l 396 659 l 393 659 l 411 685 l 415 685 l 453 754 l 458 754 l 490 807 l 500 810 l 515 839 q 528 869 518 842 l 550 886 l 550 889 l 562 921 l 570 924 l 572 949 l 582 949 l 585 958 l 587 958 l 595 974 l 648 1006 l 676 1025 m 570 822 l 547 817 l 547 807 l 525 785 l 518 785 l 488 741 l 485 741 l 463 697 l 463 690 l 454 678 q 443 667 450 671 l 424 656 l 415 633 q 408 586 411 624 l 396 589 l 393 571 l 368 551 l 371 549 l 371 533 l 349 524 l 331 474 q 321 452 326 460 l 304 429 l 307 425 l 307 422 l 314 419 l 354 419 l 371 410 l 424 441 l 468 444 l 471 435 l 475 452 l 500 452 l 545 464 l 557 460 l 585 469 l 585 472 l 627 486 l 627 489 l 679 501 l 679 517 l 661 533 l 661 586 l 676 621 l 661 631 l 642 621 l 616 656 l 652 659 l 652 668 l 610 677 l 614 688 l 602 703 l 610 715 l 587 750 l 591 757 l 597 760 l 587 770 l 579 817 l 570 822 z "},"B":{"ha":1059,"x_min":69,"x_max":1031,"o":"m 158 1063 l 174 1061 q 199 1050 182 1060 l 224 1055 l 236 1040 l 252 1040 l 252 1034 l 264 1040 l 271 1040 l 273 1028 l 286 1031 l 289 1021 l 343 1018 l 343 1013 l 334 1003 l 343 996 l 346 1008 l 368 1008 l 406 1018 l 444 1006 l 435 1003 l 494 990 l 488 974 l 574 946 l 576 936 q 624 924 598 935 l 636 926 l 643 914 q 703 901 674 912 l 718 908 l 743 901 l 755 882 l 768 882 l 772 864 l 787 851 l 790 832 l 781 832 l 765 800 l 725 765 l 703 737 l 693 737 q 668 705 688 730 l 654 702 q 640 694 646 700 l 624 681 l 621 671 l 611 671 q 564 631 583 634 l 561 623 l 551 625 l 542 606 l 625 575 l 692 562 l 772 536 l 790 524 l 806 521 q 838 501 812 519 l 838 497 l 869 501 l 895 492 l 907 494 q 936 447 911 483 l 958 444 l 964 437 l 993 437 l 1006 415 l 993 403 l 1006 390 l 1018 390 l 1031 382 q 1012 342 1022 353 q 989 321 1002 331 l 986 313 q 947 290 951 293 l 936 279 q 914 245 929 273 l 897 249 l 895 236 l 882 233 l 876 221 l 854 216 l 810 189 l 794 189 l 785 186 l 781 176 l 772 176 l 768 167 l 747 154 l 737 144 l 718 139 l 703 127 q 681 119 696 122 l 664 100 l 633 94 l 567 62 l 444 22 l 418 9 l 403 12 l 380 0 l 347 -8 q 321 -22 340 -9 l 296 -22 l 254 -54 l 232 -57 q 207 -85 216 -69 l 184 -92 l 170 -89 l 135 -107 l 100 -104 l 85 -89 l 94 -57 l 119 -35 l 113 -3 l 129 22 l 131 35 q 147 72 132 40 l 138 94 l 147 104 l 142 126 l 157 149 l 164 151 l 164 170 q 189 189 180 179 l 184 204 l 199 208 l 195 227 l 207 236 l 207 256 l 216 281 l 220 315 l 239 415 l 232 425 l 239 444 l 227 460 l 252 479 l 232 485 l 227 526 l 236 536 l 224 558 q 239 599 232 568 l 261 614 l 267 633 l 264 643 l 283 668 l 261 700 l 281 725 l 264 747 l 264 760 l 277 779 l 277 800 l 289 810 l 293 847 l 283 854 l 283 886 l 286 899 l 273 921 l 216 926 l 132 921 l 126 946 l 107 939 l 97 926 l 82 936 l 69 964 l 72 974 l 85 971 l 119 1025 l 158 1063 m 425 867 l 406 847 l 400 832 l 389 817 q 383 787 383 808 l 383 772 l 363 741 l 368 713 l 353 705 q 340 636 349 667 q 363 624 357 631 l 403 653 q 445 673 420 660 l 469 688 l 514 703 l 522 715 l 545 718 l 586 745 l 611 753 l 616 753 l 636 770 l 639 794 l 627 791 l 604 807 l 591 814 l 582 827 l 542 847 l 519 844 l 482 857 l 425 867 m 378 482 l 368 482 l 368 469 l 358 469 l 343 457 l 323 460 l 315 425 l 330 293 l 306 256 l 298 227 l 306 214 l 286 167 l 286 139 q 264 114 277 121 l 273 94 l 261 94 l 264 50 l 277 40 l 293 45 l 301 50 l 319 52 q 343 62 328 53 l 371 60 l 415 79 l 428 75 l 457 94 l 507 110 q 532 126 530 121 l 567 119 l 576 135 l 604 140 q 627 154 608 142 l 639 154 l 656 164 l 656 174 l 677 174 l 715 201 l 807 239 l 835 268 l 885 293 l 901 318 l 882 353 l 854 363 l 819 387 l 800 410 q 768 425 770 421 l 747 415 l 715 435 l 708 435 l 701 436 l 691 437 q 680 441 686 437 l 664 450 l 633 447 l 582 460 l 574 467 l 564 467 l 554 479 l 529 472 l 526 467 l 507 467 l 494 472 l 485 460 l 472 469 l 450 467 l 437 476 l 435 469 l 406 476 l 383 472 l 378 482 z "},"C":{"ha":999,"x_min":49,"x_max":985,"o":"m 191 0 l 182 16 l 125 35 l 93 69 l 83 107 l 68 119 l 49 164 l 49 199 l 58 212 l 54 228 l 58 245 l 78 283 l 68 313 l 78 318 l 90 353 l 86 390 l 109 400 l 109 425 l 121 425 l 127 454 l 131 454 l 138 464 l 131 469 l 138 469 l 140 478 l 140 509 l 182 539 l 178 546 l 207 586 l 210 586 l 220 606 l 237 611 l 237 624 l 244 624 l 248 640 l 279 677 l 285 681 l 289 688 q 304 705 304 703 l 311 710 l 323 732 l 371 775 l 393 802 q 407 814 399 810 l 428 827 l 431 836 l 465 848 l 463 854 q 490 871 478 868 l 490 873 l 500 889 l 525 899 q 575 933 558 928 l 619 949 l 632 943 l 647 949 l 652 949 l 669 943 l 673 926 l 682 930 l 686 926 l 686 918 l 696 892 l 701 791 l 699 791 l 701 789 l 686 720 l 682 728 l 676 693 l 679 679 l 667 663 l 664 663 l 663 652 l 668 632 l 661 608 l 661 603 l 644 603 l 632 571 l 632 568 l 629 568 l 595 526 l 582 521 l 575 504 l 562 511 l 566 489 l 559 479 l 547 479 l 545 486 l 515 498 l 503 526 l 505 549 l 510 551 l 554 671 l 585 707 l 591 747 l 582 819 l 546 829 l 518 827 l 500 817 l 497 817 l 484 798 l 433 766 l 414 770 l 399 750 l 401 747 l 401 745 l 386 741 l 383 728 q 339 690 365 713 q 314 659 336 685 l 314 656 l 298 646 l 298 640 l 282 633 l 282 624 l 279 624 l 248 576 l 252 571 l 212 494 l 197 489 l 197 482 l 205 482 l 201 450 l 192 432 l 179 375 l 165 363 q 155 281 157 288 l 174 268 l 170 221 l 179 176 q 201 121 199 146 l 221 131 l 241 107 l 277 77 q 336 66 312 68 l 367 83 l 376 71 l 436 86 l 453 78 l 456 83 l 545 110 l 557 110 l 604 142 l 647 154 l 679 167 l 721 196 l 730 196 l 746 208 l 808 271 l 828 283 l 818 318 l 778 338 l 781 353 l 925 416 l 929 422 q 957 435 953 429 l 966 435 l 977 410 l 985 410 l 977 372 l 966 372 l 954 347 l 954 353 l 947 347 l 940 323 l 909 293 l 907 300 q 880 265 885 268 l 880 256 l 850 236 q 840 227 845 230 l 825 227 l 821 218 q 799 192 807 213 l 755 171 l 751 167 l 749 171 q 726 151 736 165 l 721 151 l 711 139 l 704 142 l 701 129 l 676 126 l 663 113 q 629 94 657 107 l 629 92 l 619 94 q 597 82 610 93 l 595 66 l 582 69 l 570 62 l 570 60 l 545 60 q 508 33 526 41 q 436 16 489 26 l 436 7 l 406 9 l 406 -3 l 389 0 l 383 -3 l 383 -7 l 364 -7 l 361 -20 l 323 -24 l 191 0 z "},"D":{"ha":1053,"x_min":0,"x_max":1025,"o":"m 290 1038 l 313 1035 l 315 1031 l 346 1031 l 412 1028 l 412 1015 l 415 1018 l 441 1015 l 479 993 l 489 993 l 492 983 l 511 983 l 514 978 l 596 961 l 646 949 l 648 939 l 684 926 l 688 922 q 718 914 690 921 q 745 892 726 901 l 750 892 l 750 886 l 757 889 l 760 879 l 765 879 q 785 861 771 871 l 807 865 l 810 854 l 819 854 l 819 844 l 832 839 l 842 822 l 864 819 l 864 814 l 854 810 l 860 782 l 901 766 l 911 754 l 924 757 l 929 737 l 949 728 l 956 703 l 999 659 l 1025 555 l 1018 542 l 1018 517 l 1003 494 l 990 412 l 964 378 l 961 366 l 939 322 l 929 315 l 926 309 q 882 265 897 284 l 882 271 l 817 208 l 798 199 l 775 179 q 747 164 750 167 l 741 164 q 703 139 705 142 l 703 136 l 661 110 l 636 107 l 633 102 q 606 82 618 96 l 602 89 l 567 72 l 567 69 l 558 69 l 554 62 q 532 54 537 60 l 529 54 l 454 12 l 447 16 l 306 -47 l 302 -54 l 273 -62 l 258 -62 l 239 -79 l 201 -92 l 154 -126 q 117 -158 121 -156 l 117 -171 l 94 -179 l 82 -199 l 31 -208 l 18 -208 q 0 -183 1 -186 l 12 -164 l 3 -114 l 12 -85 l 35 -75 l 129 -20 l 129 -25 l 139 -28 l 142 -9 l 151 -3 l 154 12 l 157 9 l 189 104 l 192 144 l 204 186 l 204 313 l 211 322 l 221 444 l 256 618 l 239 640 l 252 675 l 249 713 l 221 715 l 221 710 l 199 710 l 199 703 l 186 703 l 176 690 l 151 690 q 132 713 149 695 l 139 722 q 164 741 160 734 l 167 734 l 170 745 l 170 747 l 179 757 l 182 757 l 204 772 q 216 791 208 775 l 258 810 l 256 844 l 239 854 l 229 886 l 204 899 l 176 892 l 164 908 l 174 924 l 229 936 l 216 978 l 208 978 l 211 990 l 290 1038 m 435 864 l 435 861 l 415 848 l 410 817 l 419 810 l 403 770 l 385 621 l 375 574 l 355 533 l 350 526 l 359 498 l 353 498 l 340 407 l 313 325 l 293 189 l 283 171 l 256 75 l 252 72 l 221 9 l 224 -7 l 321 20 l 346 32 l 403 54 l 419 47 l 428 62 l 454 62 l 450 66 l 463 82 l 494 92 l 501 92 l 529 110 l 539 110 l 536 114 l 611 151 l 624 154 l 633 164 l 636 164 l 648 167 l 661 183 l 668 179 l 722 208 l 722 214 l 725 214 l 725 218 l 762 240 l 854 318 l 876 343 l 929 429 l 939 439 l 936 476 l 908 561 l 892 583 l 892 603 l 869 624 l 860 646 l 807 690 l 794 705 l 775 710 l 765 728 l 728 741 l 703 762 l 661 789 l 631 794 l 614 810 l 606 804 l 504 842 l 487 846 q 450 865 479 848 l 435 864 z "},"E":{"ha":945,"x_min":-47,"x_max":896,"o":"m 823 889 l 828 885 l 785 829 l 781 822 l 750 807 l 733 814 q 699 789 717 795 l 686 791 l 673 772 l 659 766 l 635 782 l 628 802 l 582 791 l 551 804 l 498 794 l 447 794 q 433 732 442 751 l 437 725 l 429 677 l 419 643 l 419 616 l 412 610 l 416 597 l 526 589 l 582 600 l 629 587 l 656 618 l 697 618 l 703 606 l 725 596 l 725 576 l 713 566 q 694 530 708 561 l 659 505 l 635 494 q 600 489 622 489 l 524 498 l 485 492 l 456 482 l 425 486 l 408 482 l 390 482 l 385 479 l 372 447 l 364 419 l 347 390 l 329 288 l 317 179 l 304 151 l 302 75 l 315 66 l 364 60 l 385 47 l 412 47 l 427 39 l 447 45 l 468 37 l 530 46 l 561 45 l 567 50 l 599 50 l 627 60 l 653 57 l 660 62 l 717 79 l 707 102 l 714 117 q 742 186 728 161 l 777 183 l 802 199 l 840 199 q 890 151 856 177 l 896 114 l 896 102 l 884 85 l 884 72 l 868 62 l 868 47 q 806 16 849 24 l 800 4 q 789 -7 796 -3 l 771 -20 l 697 -22 l 664 -45 l 614 -45 l 602 -37 l 591 -45 l 579 -32 l 519 -50 l 489 -50 l 479 -60 l 441 -53 l 395 -66 l 372 -62 l 355 -72 l 317 -66 l 265 -72 l 245 -66 l 233 -94 l 221 -110 l 218 -119 q 200 -142 216 -123 l 200 -149 q 178 -179 185 -164 l 143 -192 l 100 -221 l 87 -189 l 96 -167 l 94 -142 l 118 -107 l 142 -97 l 155 -60 l 121 -50 l 113 -57 l 96 -45 l 35 -45 l 25 -57 l -17 -54 l -43 -12 l -43 20 l -45 20 l -47 41 l -32 47 l -26 60 l 3 83 l 35 83 l 64 94 q 125 81 87 94 l 155 92 q 208 79 178 92 l 216 97 l 212 114 l 237 248 q 252 300 239 261 l 248 318 l 260 343 l 281 472 l 257 511 q 292 551 266 528 l 286 583 l 294 586 l 309 618 l 304 633 l 315 656 l 300 677 l 309 703 l 302 720 l 302 745 l 313 760 l 300 772 l 300 807 l 252 817 l 239 817 l 153 796 l 104 804 l 92 785 l 65 782 l 43 822 l 52 839 l 61 842 l 69 857 l 104 886 l 129 886 l 142 911 l 151 908 q 174 926 161 918 l 186 926 l 204 921 l 245 918 l 290 924 l 304 914 l 304 918 l 313 924 l 338 914 l 339 921 l 385 930 l 378 933 q 425 953 409 951 l 419 933 l 429 928 l 472 939 l 482 926 l 534 918 l 547 908 l 558 911 l 564 896 l 615 911 l 615 901 l 639 899 l 668 908 l 737 895 l 799 950 l 815 957 l 839 957 l 856 946 l 859 925 l 833 889 l 823 889 z "},"F":{"ha":815,"x_min":35,"x_max":885,"o":"m 847 928 l 865 924 l 864 904 l 885 876 l 869 882 l 857 854 l 847 852 l 846 843 l 822 829 l 814 833 l 794 822 l 789 810 q 734 770 769 798 l 726 774 l 725 768 l 708 772 l 700 793 q 633 804 641 797 l 596 804 l 585 793 l 576 803 l 517 808 l 511 800 l 501 800 l 503 818 q 465 793 481 800 l 464 768 l 465 758 l 459 737 q 457 727 457 728 l 456 720 l 456 714 l 455 708 l 454 702 q 447 688 454 700 l 453 677 l 437 619 l 437 590 l 428 585 l 429 557 l 444 546 l 467 545 l 478 533 l 481 539 l 503 530 l 541 530 l 619 524 l 632 525 l 652 521 l 661 522 l 681 515 l 729 530 l 745 503 l 768 496 l 766 473 l 754 467 l 749 446 l 705 424 l 701 410 l 644 376 l 637 367 l 631 374 q 607 359 622 367 l 595 380 l 579 387 l 572 383 l 561 411 l 539 411 l 517 413 q 493 421 507 414 l 473 419 l 472 410 l 456 424 l 401 419 l 395 411 l 382 418 l 368 407 l 370 383 l 361 367 l 355 297 l 334 257 l 335 232 l 323 231 l 323 199 l 283 85 l 277 79 l 260 33 l 256 11 l 218 -36 l 215 -49 l 191 -75 l 189 -90 q 149 -121 183 -100 l 119 -125 l 96 -139 l 45 -144 l 35 -109 l 58 -92 l 64 -71 l 61 -64 l 66 -39 l 100 -26 l 126 -3 q 167 20 145 7 l 170 25 q 211 94 201 62 l 224 135 l 232 140 q 252 192 252 191 l 250 214 q 268 248 250 224 l 267 262 l 273 275 l 272 292 l 286 306 l 285 321 l 273 329 l 286 343 l 285 354 l 309 371 l 298 397 l 285 404 l 281 392 l 222 397 l 210 401 l 192 422 l 200 440 l 191 469 l 229 509 q 261 524 236 507 l 271 522 l 292 543 l 294 572 l 306 586 l 300 606 l 313 633 l 310 640 l 297 644 l 304 659 l 293 669 l 307 693 l 314 734 l 313 745 l 315 753 l 309 772 l 315 782 l 286 817 l 285 800 q 236 817 256 806 l 220 805 q 186 793 212 800 l 170 804 l 158 793 l 139 790 l 138 778 l 127 770 l 106 771 l 100 786 q 91 798 98 790 l 72 815 l 78 847 q 121 868 96 862 l 127 880 l 164 903 l 170 908 l 212 914 l 214 924 l 227 913 l 235 916 q 281 909 253 916 l 304 903 l 326 907 l 335 890 l 350 893 l 364 900 l 387 901 q 406 905 399 901 l 415 900 l 431 904 l 450 903 l 447 913 l 460 904 l 473 913 l 482 909 l 501 911 l 510 896 l 526 890 l 525 893 l 534 897 l 570 895 l 585 903 l 607 901 l 631 905 q 650 914 639 912 l 654 920 l 682 914 l 710 914 l 724 897 l 770 909 l 823 901 l 847 928 z "},"G":{"ha":860,"x_min":0,"x_max":749,"o":"m 538 904 l 554 901 l 570 896 l 604 899 l 624 892 l 627 884 l 629 886 l 636 871 l 646 871 l 667 836 l 659 819 l 661 789 l 661 757 l 646 741 l 654 722 l 673 728 l 689 725 l 689 710 l 681 690 l 708 631 l 699 622 q 667 606 696 618 l 661 583 l 664 558 l 652 536 q 604 511 622 524 l 599 498 l 572 507 q 547 472 552 488 l 515 469 l 503 492 l 507 511 l 494 539 l 513 583 l 510 603 l 515 637 l 515 672 l 522 728 l 510 770 l 503 782 l 497 782 l 478 791 l 443 791 q 396 766 399 772 l 390 766 l 286 663 l 273 633 l 264 628 l 261 611 l 229 576 l 220 529 l 205 513 q 195 495 197 504 l 187 469 l 172 469 l 172 441 l 163 435 l 153 372 l 135 357 l 132 338 l 138 322 l 127 296 l 132 245 l 118 233 l 113 208 l 122 183 l 125 151 l 160 89 l 170 66 l 204 47 l 182 47 l 182 28 l 210 22 l 273 28 l 282 25 q 317 47 302 35 l 323 47 l 339 75 l 390 102 l 403 112 q 437 129 408 117 l 437 136 l 460 142 q 479 165 462 152 q 510 179 496 179 q 542 221 525 208 l 542 258 l 599 315 l 619 322 l 671 357 l 689 359 l 711 343 l 721 357 l 749 343 l 730 293 l 718 290 l 721 142 l 728 132 l 728 97 l 718 79 l 721 47 l 714 37 l 714 7 l 681 -85 l 665 -144 l 656 -160 l 656 -172 l 646 -192 q 624 -227 625 -221 l 621 -220 l 618 -229 l 596 -244 l 586 -264 l 574 -277 l 561 -304 l 542 -326 l 532 -346 q 494 -383 513 -360 l 469 -390 l 472 -408 q 441 -425 453 -422 l 437 -433 l 437 -446 l 412 -456 l 397 -478 l 385 -481 l 380 -494 l 309 -534 l 296 -547 l 286 -545 l 261 -572 l 249 -570 l 227 -585 l 216 -614 l 196 -619 l 174 -616 l 132 -636 l 114 -627 l 94 -652 l 79 -654 l 72 -648 l 56 -656 q 39 -662 47 -661 l 16 -664 l 0 -644 l 12 -616 l 18 -619 l 28 -607 l 35 -610 q 69 -597 59 -604 l 72 -602 l 85 -595 l 94 -595 q 125 -577 99 -588 l 151 -567 l 164 -567 l 174 -557 l 201 -547 l 264 -515 l 283 -497 l 313 -485 l 325 -475 l 338 -468 l 385 -428 l 385 -421 l 425 -380 l 441 -368 l 447 -349 l 489 -306 l 489 -289 l 532 -222 l 532 -212 l 546 -207 l 570 -132 l 567 -89 l 579 -72 q 564 3 575 -15 l 576 54 l 582 57 l 572 82 l 557 92 l 542 139 l 529 139 q 503 110 511 127 l 475 104 l 463 89 l 450 85 l 440 72 l 368 20 l 301 -16 l 292 -25 l 241 -45 l 235 -37 l 192 -45 l 170 -32 l 163 -16 l 147 -25 l 118 0 l 115 25 l 100 33 q 81 54 93 37 l 83 72 l 62 94 l 68 110 l 56 149 l 78 161 l 71 186 l 58 192 l 58 208 l 78 245 l 62 265 l 71 290 l 87 300 l 75 318 l 75 328 l 90 357 l 87 382 l 106 425 l 113 435 l 110 452 l 147 546 l 157 546 l 167 581 l 183 597 q 195 615 192 606 l 187 631 q 207 656 197 640 l 214 659 l 216 656 l 220 672 q 257 728 253 701 l 289 757 l 330 789 l 336 802 q 378 829 349 804 l 380 827 q 428 864 419 861 l 468 879 l 475 886 l 490 889 l 510 901 l 538 904 z "},"H":{"ha":1137,"x_min":41,"x_max":1096,"o":"m 888 933 q 930 921 918 922 l 943 884 l 928 854 l 880 745 l 880 732 l 861 725 l 859 715 l 848 715 q 859 677 856 705 l 848 675 l 846 633 l 831 615 l 827 589 l 818 586 l 821 564 l 814 549 l 814 524 l 808 517 l 808 494 l 799 472 l 875 460 l 880 454 l 914 458 q 932 464 925 460 l 950 476 l 978 472 l 1010 489 q 1065 509 1046 498 l 1096 503 l 1096 453 l 1074 419 l 1074 407 l 1054 410 l 1039 404 l 1019 407 l 1000 397 l 991 404 l 978 387 l 930 378 l 903 363 l 871 363 l 833 353 l 831 359 l 808 353 l 793 328 l 793 231 l 786 221 l 796 199 l 793 171 l 799 149 l 799 126 l 814 117 l 846 117 l 871 110 l 875 85 l 852 66 l 848 47 l 823 12 l 818 -9 l 799 -25 l 793 -45 l 742 -75 q 726 -97 732 -91 q 711 -109 719 -102 l 704 -114 l 660 -129 l 663 -104 l 679 -94 l 685 -75 l 692 -69 l 697 -54 l 679 -37 l 694 35 l 692 45 l 697 66 l 692 79 l 707 123 l 697 167 l 701 179 l 704 273 l 707 300 l 704 306 l 704 318 l 689 343 l 689 359 l 660 363 l 660 343 l 619 350 l 607 350 l 568 335 l 568 325 l 530 318 l 511 325 l 509 318 l 496 322 l 452 314 l 382 288 l 374 273 l 374 171 l 364 151 l 414 132 l 414 104 l 416 92 l 404 82 l 399 54 l 401 25 l 408 20 q 392 -7 401 1 l 374 -7 l 374 -16 l 365 -22 q 347 -50 361 -25 l 342 -50 l 326 -66 l 292 -60 l 272 -60 l 257 -47 l 260 -34 q 275 -16 262 -28 l 278 16 l 272 37 l 278 79 l 275 104 l 285 139 l 282 171 l 285 174 l 285 192 l 294 214 l 294 227 l 285 243 l 294 278 l 278 293 l 257 296 l 248 283 l 237 290 q 210 281 229 283 l 196 268 l 114 253 l 106 253 l 96 240 l 71 253 l 49 243 l 41 256 l 49 273 l 41 281 l 52 325 l 74 335 l 79 343 l 123 353 l 146 347 l 153 340 l 180 353 l 205 350 l 225 353 l 244 347 l 250 357 l 260 359 l 265 357 l 278 363 q 310 353 281 357 l 319 370 l 313 416 q 335 457 331 440 l 326 460 l 339 479 l 326 521 l 335 568 l 329 618 l 339 631 l 335 640 l 345 663 l 339 705 l 315 704 q 293 696 304 703 q 272 677 282 690 l 260 681 l 248 669 q 233 660 240 663 l 212 653 l 218 625 l 205 593 l 203 612 q 168 581 184 597 l 158 587 l 134 579 l 131 571 l 109 558 l 109 549 l 68 561 l 52 579 l 52 606 l 64 640 l 96 675 l 121 685 l 138 697 q 171 713 146 703 l 178 722 l 205 728 l 212 737 l 228 737 l 257 760 l 278 760 l 285 770 l 313 770 l 337 783 q 354 802 342 785 l 369 803 q 392 814 376 804 l 395 827 l 414 829 l 424 842 l 433 842 l 452 864 l 486 876 l 518 873 q 550 839 533 853 l 550 807 l 543 794 l 509 789 l 503 760 l 485 703 l 471 643 l 471 624 l 458 611 l 461 589 l 452 576 l 429 472 l 416 454 l 414 419 l 421 407 l 446 410 l 476 400 l 509 407 l 581 412 l 597 412 l 603 407 l 647 416 l 654 422 l 679 422 l 707 416 l 726 428 l 721 464 l 737 486 l 729 507 l 739 539 l 737 570 l 743 591 l 737 611 l 743 628 q 758 650 746 636 l 745 668 l 761 705 l 761 728 l 754 760 l 761 770 l 754 779 l 774 814 l 779 817 l 783 851 l 793 857 l 799 871 l 818 879 l 856 911 l 878 911 l 888 933 z "},"I":{"ha":536,"x_min":0,"x_max":612,"o":"m 568 943 l 581 939 l 583 911 l 612 901 l 612 892 l 593 879 l 587 861 q 501 817 540 844 q 467 785 481 792 l 385 745 l 395 732 l 375 690 q 363 646 373 672 l 354 624 l 328 501 l 310 385 l 300 387 l 300 296 l 293 296 l 300 281 l 297 265 l 306 158 l 302 149 l 315 136 l 382 142 l 398 136 q 422 123 416 129 q 372 72 387 73 l 367 60 l 347 62 l 328 35 l 313 32 l 304 20 q 275 0 300 16 l 258 3 l 224 -9 l 168 -16 l 64 -35 l 39 -45 l 20 -32 l 4 -37 l 0 0 l 41 37 l 48 46 q 69 60 52 50 l 74 75 l 77 69 l 107 89 l 149 97 l 164 94 l 185 103 q 215 123 196 107 l 215 142 l 205 154 l 211 211 l 205 221 l 215 245 l 211 283 l 203 290 l 215 309 l 211 328 l 218 350 l 211 363 q 237 404 223 389 l 224 422 l 237 457 q 218 479 235 466 l 237 507 l 211 521 l 224 542 l 218 568 l 224 603 l 224 621 l 240 640 q 253 690 245 675 l 262 697 l 250 732 l 258 754 l 237 762 l 196 750 l 176 732 q 158 720 167 727 l 146 720 l 134 739 q 121 779 129 747 l 134 803 q 171 819 142 817 l 171 829 l 180 832 l 189 844 l 203 844 q 243 873 224 857 l 265 876 q 300 896 296 896 l 319 896 l 319 892 q 363 876 336 890 l 387 892 l 479 889 l 496 886 l 549 930 l 568 943 z "},"J":{"ha":644,"x_min":-278,"x_max":672,"o":"m 633 901 l 672 879 l 668 863 q 660 848 665 854 l 646 832 l 633 829 l 633 810 l 603 804 q 549 772 568 782 l 535 770 q 511 757 529 770 l 489 762 l 464 757 l 467 732 l 464 732 l 469 710 l 467 681 l 464 677 l 469 672 l 467 628 l 467 606 l 460 606 l 467 583 l 467 533 l 457 492 l 454 454 l 441 400 l 412 227 l 400 218 l 404 201 l 390 183 l 390 158 l 382 158 l 370 123 q 357 69 363 89 l 343 54 l 300 -79 l 283 -123 l 249 -151 l 261 -179 l 245 -201 l 245 -211 l 232 -224 q 205 -265 227 -231 l 192 -290 l 179 -300 l 168 -322 q 157 -338 161 -335 l 142 -349 q 119 -359 132 -357 q 99 -395 112 -384 q 79 -407 85 -407 l 66 -407 l 60 -419 l 35 -432 l 32 -452 l 9 -467 l 3 -464 q -41 -498 -31 -488 l -47 -498 l -60 -517 l -72 -521 l -85 -529 l -96 -534 q -119 -555 -102 -536 l -139 -561 q -174 -586 -153 -581 l -176 -599 l -179 -596 l -179 -603 l -231 -640 l -249 -643 l -256 -628 l -278 -618 l -273 -581 l -253 -576 q -201 -539 -215 -547 l -199 -539 l -179 -529 l -144 -507 l -117 -486 l -92 -472 l -57 -444 l -35 -439 q -16 -407 -21 -422 l -7 -410 q 50 -366 11 -386 l 60 -343 l 69 -338 l 117 -288 l 144 -245 l 161 -214 l 174 -201 l 186 -171 l 208 -132 l 211 -117 l 245 -37 l 249 -16 l 268 57 l 268 37 l 276 66 q 288 82 278 72 l 283 102 l 293 139 l 302 144 l 306 186 l 311 199 q 325 221 313 205 l 318 240 l 322 258 l 318 273 l 338 293 l 330 313 q 343 353 338 343 l 340 357 l 347 370 l 335 397 l 347 419 l 343 454 l 353 464 l 350 494 l 330 514 q 347 536 340 523 l 338 568 l 300 621 l 300 646 l 309 672 l 288 754 l 256 760 l 245 757 l 221 762 l 199 760 l 192 766 l 165 761 q 142 745 161 760 l 107 760 l 92 794 l 107 817 l 123 819 l 154 851 l 171 854 l 211 884 l 233 889 l 290 889 l 309 879 l 318 889 l 325 886 l 375 884 q 422 899 413 898 l 441 889 l 441 879 l 460 867 l 546 867 l 564 876 l 589 876 l 633 901 z "},"K":{"ha":1227,"x_min":21,"x_max":1227,"o":"m 1064 917 l 1076 917 l 1093 901 l 1089 882 l 1111 869 l 1089 869 l 1039 832 q 977 798 1014 819 l 972 787 l 945 787 l 929 762 l 903 746 l 897 741 q 865 723 875 730 q 843 699 856 715 l 831 699 q 812 677 821 682 l 803 656 l 778 646 l 757 631 q 733 621 746 624 l 721 596 l 689 579 l 679 557 l 686 547 l 652 510 l 664 492 l 657 465 l 661 444 q 673 383 671 414 l 667 380 l 667 371 l 676 378 l 696 340 l 708 311 l 724 301 l 726 296 l 749 281 l 764 259 q 790 229 771 249 l 815 216 q 843 207 818 214 l 847 201 l 875 192 q 897 176 895 176 l 989 172 l 1007 170 l 1036 170 l 1029 172 l 1054 172 l 1051 179 l 1080 182 l 1083 192 l 1116 192 l 1105 201 l 1105 224 l 1108 249 l 1111 245 l 1143 283 l 1153 281 q 1178 289 1170 281 l 1171 296 l 1178 311 l 1200 314 l 1210 330 l 1218 330 l 1227 309 l 1222 289 l 1225 281 l 1218 267 l 1225 258 l 1215 254 q 1203 227 1204 238 l 1193 216 l 1200 214 l 1193 207 l 1175 167 l 1171 164 l 1171 150 l 1158 138 l 1148 132 q 1133 115 1143 129 l 1111 113 l 1111 107 l 1096 103 l 1083 87 l 1010 72 l 974 71 l 950 77 l 922 71 l 890 83 l 843 74 l 783 96 l 779 106 l 742 98 l 714 112 q 692 134 710 114 l 663 140 l 656 155 q 632 183 654 161 l 615 187 l 597 212 l 597 231 l 578 240 l 575 257 l 566 262 l 568 269 l 550 288 l 546 310 l 528 357 l 525 368 q 511 389 524 374 l 485 397 l 471 380 l 467 359 q 459 336 465 346 l 443 311 l 443 281 l 433 267 l 440 252 l 428 245 l 433 232 l 428 199 l 433 192 l 428 182 l 433 164 l 428 147 l 424 94 l 427 79 q 440 50 428 72 l 431 -9 l 424 -17 l 424 -22 l 406 -32 l 386 -54 q 349 -77 357 -69 l 326 -64 l 339 -39 l 329 -26 l 334 -7 l 314 8 l 323 28 l 323 43 q 328 78 326 68 l 332 98 q 346 129 334 107 l 339 147 l 346 176 l 354 241 l 364 273 l 364 281 l 371 311 l 374 346 l 380 358 q 389 393 384 388 l 386 403 l 406 488 l 408 522 l 415 529 l 415 551 l 421 574 l 415 599 l 399 608 l 399 627 l 421 648 l 424 677 l 418 705 l 428 728 l 428 743 l 418 755 l 376 775 q 320 755 351 764 q 286 746 288 746 l 264 750 l 237 737 l 172 725 l 174 710 q 187 684 175 703 l 207 684 l 222 656 l 195 636 l 195 629 l 175 611 l 156 609 q 113 591 147 608 l 106 599 l 87 596 l 74 567 l 61 582 l 65 602 l 46 611 l 46 627 l 31 633 l 21 648 q 33 708 26 685 l 46 705 l 65 733 l 71 733 l 74 743 l 83 743 l 92 755 q 122 772 96 760 l 122 781 l 140 785 l 155 800 l 172 803 l 175 812 l 197 815 l 212 829 l 232 829 l 254 835 l 267 847 l 286 844 l 346 854 l 376 867 l 408 872 l 428 879 l 456 879 l 500 885 l 528 897 l 534 907 l 557 911 l 553 917 l 602 920 l 619 889 l 604 872 l 602 857 l 575 822 l 579 807 q 550 708 550 722 l 553 699 l 545 677 l 538 677 l 541 671 l 538 656 l 541 652 q 522 611 536 648 l 534 599 l 515 547 l 525 545 l 553 551 l 553 557 l 570 564 l 579 579 l 614 582 l 614 596 l 639 604 l 679 633 l 699 643 l 718 664 q 736 673 721 668 l 743 686 q 771 713 746 690 l 843 753 q 860 785 850 764 l 909 815 l 925 835 l 982 876 l 991 879 q 1017 897 1010 894 l 1029 892 l 1064 917 z "},"L":{"ha":996,"x_min":-69,"x_max":954,"o":"m 539 949 q 668 924 576 954 l 680 913 q 700 904 686 908 l 696 896 l 750 854 l 768 827 l 734 785 l 673 745 l 665 720 l 661 725 l 639 728 l 627 725 l 615 741 q 600 755 608 750 l 576 770 l 564 798 l 557 798 l 551 807 l 536 811 q 522 819 526 814 l 507 832 l 488 822 l 479 804 l 447 762 l 447 732 l 425 697 l 403 581 l 404 564 l 374 404 q 364 347 367 370 l 358 343 l 361 335 l 350 322 l 353 302 l 350 286 l 343 278 q 335 249 340 275 l 328 214 l 315 189 q 302 144 310 176 l 277 119 l 282 102 l 262 94 l 268 72 l 340 66 l 363 66 l 385 50 l 485 45 l 475 47 l 494 50 l 542 47 l 564 50 l 579 41 l 621 35 l 636 45 l 665 41 l 684 41 l 696 47 l 730 41 l 725 60 q 753 94 743 88 l 819 139 l 829 142 l 882 167 l 901 164 q 954 126 926 140 l 945 104 q 932 84 939 92 l 911 62 l 882 54 q 854 12 874 45 l 829 7 l 822 -3 l 812 -3 l 785 -22 l 762 -20 l 750 -28 l 718 -22 l 684 -45 l 639 -41 l 633 -50 l 621 -41 l 596 -47 l 591 -60 l 557 -47 l 549 -47 l 526 -60 l 492 -60 l 460 -62 l 425 -62 l 371 -69 l 358 -60 l 340 -69 l 309 -62 l 195 -60 l 160 -54 l 157 -45 l 144 -57 l 135 -54 l 122 -72 l 100 -72 l 97 -35 l 87 -32 l 75 -37 l 47 -25 l 8 -32 l -20 -22 l -22 -12 l -41 -12 l -61 0 l -69 45 l -41 47 l -26 85 l -11 90 q 28 114 -4 92 l 28 119 l 69 123 l 90 107 q 132 102 114 104 l 144 94 l 151 94 l 157 92 l 179 92 l 192 89 l 211 110 q 221 161 213 127 l 227 167 l 239 218 l 241 278 l 252 281 l 277 385 l 273 452 l 293 479 l 281 494 l 293 498 l 302 524 l 296 529 l 309 603 q 298 618 305 612 l 298 633 l 306 637 l 309 703 l 321 725 l 318 757 l 328 762 l 340 814 l 350 817 l 358 842 l 403 876 l 437 899 l 444 899 l 450 908 l 475 911 l 497 933 l 510 936 l 504 943 l 539 949 z "},"M":{"ha":1261,"x_min":0,"x_max":1185,"o":"m 435 918 l 443 914 l 463 884 l 478 822 l 464 828 q 492 699 490 770 l 507 681 l 500 637 l 510 631 l 517 586 l 526 576 l 526 533 l 539 514 l 530 494 q 549 464 535 483 l 549 432 l 543 416 l 570 399 l 582 368 l 597 371 q 624 385 604 372 l 636 385 l 636 390 l 665 435 l 671 435 l 668 444 l 718 498 l 730 524 q 768 551 736 522 l 775 549 l 777 557 q 790 574 778 561 q 805 592 802 588 q 844 618 822 613 l 850 640 l 842 665 l 844 685 l 857 690 l 850 705 q 876 728 872 721 l 879 754 l 889 762 l 895 782 l 901 782 l 901 802 l 917 817 q 974 844 939 827 q 1018 873 996 864 l 1036 842 l 1046 848 l 1063 842 l 1055 829 l 1068 775 l 1046 745 l 1031 745 l 1021 715 l 1006 690 l 1002 656 l 996 624 l 1002 586 l 986 568 l 984 550 q 974 526 983 542 l 974 517 l 977 498 l 974 486 l 986 412 l 981 397 l 983 366 l 1023 258 l 1100 110 l 1105 79 l 1105 75 l 1109 60 l 1128 60 l 1140 72 l 1140 66 l 1165 82 l 1169 66 l 1185 54 l 1169 16 l 1137 -3 l 1128 -22 l 1078 -37 l 1063 -60 l 1031 -72 l 1023 -69 l 1008 -37 l 1002 -45 l 986 -41 l 974 -54 l 958 -50 l 951 -41 q 971 -9 961 -28 l 936 85 l 924 94 l 895 167 l 882 218 l 847 300 l 847 309 l 835 350 l 828 363 q 821 397 825 370 l 800 524 l 718 419 l 659 328 l 652 309 l 636 300 l 652 273 l 648 249 l 659 243 l 643 224 q 616 189 639 214 l 616 176 q 591 144 600 157 l 576 154 l 551 126 l 536 115 q 519 96 529 110 q 507 75 510 82 l 488 72 q 467 123 476 91 l 473 132 l 467 149 l 467 199 l 469 221 l 460 243 l 463 245 l 453 268 l 440 359 l 431 382 l 433 407 q 430 416 431 412 l 423 435 q 416 448 421 439 q 403 467 411 456 l 378 460 l 368 441 l 368 422 l 330 300 l 311 273 l 289 199 l 289 192 l 267 154 l 281 136 l 270 115 q 254 97 264 104 l 252 75 l 229 62 l 233 54 l 227 47 l 229 22 l 207 -3 l 211 -20 q 195 -41 197 -33 l 179 -50 l 164 -82 l 122 -102 l 97 -117 l 87 -136 l 47 -154 l 31 -149 l 16 -151 l 0 -142 l 8 -132 l 43 -126 l 35 -85 l 43 -82 l 50 -69 l 40 -60 l 43 -35 q 90 -3 87 -18 q 151 22 123 15 l 160 54 l 170 72 l 175 103 q 181 117 176 110 l 195 136 l 189 149 l 199 186 l 211 196 q 227 243 212 212 l 220 256 l 233 278 l 233 288 l 239 296 l 236 309 l 245 328 l 267 422 l 277 429 l 283 452 l 273 457 l 283 482 l 281 524 l 283 533 l 281 561 l 293 583 l 273 621 l 283 650 l 273 668 q 286 705 281 696 l 271 741 q 224 713 250 734 l 216 715 l 176 690 l 154 672 l 117 650 l 87 646 l 65 697 l 75 700 l 72 710 q 110 737 96 722 l 117 737 q 167 772 124 745 l 167 779 l 189 779 l 245 814 l 254 814 l 261 827 l 264 819 l 271 829 l 293 829 l 363 871 q 385 890 380 886 l 393 896 q 418 901 397 899 l 435 918 z "},"N":{"ha":1118,"x_min":21,"x_max":1215,"o":"m 1086 1028 l 1092 1025 l 1108 1025 l 1171 981 l 1215 933 l 1140 879 l 1131 867 l 1079 854 l 1054 857 l 1032 873 l 1019 873 l 962 757 l 937 728 l 935 697 l 913 656 l 903 624 l 890 606 l 885 561 l 876 537 q 859 517 875 533 l 859 501 l 850 472 l 856 454 q 838 410 846 422 l 840 385 l 831 353 l 838 347 l 838 330 l 850 318 l 843 296 l 850 245 l 846 245 l 843 208 q 872 164 843 197 l 865 154 l 878 139 l 885 75 l 868 60 l 868 41 l 859 20 l 850 20 l 821 -22 l 796 -20 l 774 -46 l 733 -75 l 704 -22 l 704 32 l 694 79 l 699 102 l 660 158 l 669 174 l 660 192 l 667 199 l 642 208 l 632 201 q 607 237 629 214 l 597 237 l 582 290 l 553 317 l 538 347 q 525 379 526 367 l 488 414 l 478 433 l 481 449 l 471 464 l 461 468 l 453 489 l 446 489 l 436 515 l 416 541 q 408 566 412 546 l 392 562 l 374 524 l 374 511 q 358 452 369 484 l 345 444 l 351 422 l 367 412 l 361 382 l 361 347 l 329 309 l 332 281 l 323 261 l 332 240 l 326 233 l 329 214 l 317 186 l 317 167 l 304 151 l 294 110 l 294 97 l 289 92 l 257 -7 l 248 -25 l 222 -37 l 225 -45 l 175 -66 l 150 -60 l 143 -35 l 160 -16 l 153 -7 l 134 -7 l 134 0 l 155 20 l 150 45 l 172 50 l 203 92 l 212 129 l 212 144 l 228 161 l 228 189 l 269 359 l 267 370 l 267 397 l 285 425 l 279 444 l 294 469 l 297 486 l 304 511 l 301 524 l 311 561 l 285 628 q 304 646 291 637 l 294 681 l 301 703 l 314 705 l 317 725 l 260 725 l 203 705 l 191 713 l 160 650 l 81 576 l 39 558 l 21 593 l 21 618 l 36 624 l 33 637 l 24 640 l 24 656 l 39 668 l 39 681 l 64 672 l 71 681 l 61 690 q 90 728 64 697 l 125 737 l 127 760 l 143 757 l 156 771 q 170 779 160 775 l 197 789 l 200 794 l 219 796 q 239 804 231 798 q 281 817 248 811 l 314 822 l 390 865 l 408 885 l 447 900 l 481 904 l 498 868 q 482 818 479 833 l 503 708 l 513 682 l 513 664 l 530 664 l 533 636 l 562 611 l 559 593 l 566 586 l 619 494 l 676 382 l 692 366 l 692 357 l 704 343 l 724 340 l 726 357 l 736 359 l 736 370 l 761 452 l 763 471 q 777 514 764 479 l 803 533 l 803 549 l 818 574 l 818 593 q 840 643 833 612 q 852 654 845 645 l 859 663 l 897 766 q 911 786 904 781 l 920 822 l 932 832 l 947 861 l 957 889 l 969 904 q 982 930 975 911 l 994 933 l 1029 999 l 1044 1013 l 1051 1013 q 1064 1025 1059 1025 l 1086 1028 z "},"O":{"ha":689,"x_min":49,"x_max":640,"o":"m 419 918 l 436 914 q 457 890 441 908 q 473 836 472 871 l 496 807 l 493 789 l 521 750 l 518 734 l 528 715 l 521 690 l 541 672 l 549 640 l 578 640 l 606 627 q 618 618 612 624 l 635 603 l 628 561 l 637 551 l 635 526 l 640 507 l 625 482 l 631 460 l 610 437 q 603 419 606 432 l 628 395 l 603 382 l 583 350 l 559 344 q 536 334 546 340 l 511 318 l 518 309 q 493 265 492 269 l 481 258 l 471 227 l 464 224 l 452 201 q 414 161 434 187 l 416 158 l 397 132 l 385 136 l 392 126 l 342 75 l 272 16 l 260 16 l 243 -3 q 212 -20 229 -7 l 196 -9 l 191 -12 l 164 -4 q 134 12 151 0 q 111 28 119 27 l 102 49 l 89 47 l 86 60 l 69 66 l 74 75 l 86 82 l 79 89 l 83 97 l 74 117 l 66 127 q 57 167 64 132 l 49 167 l 52 186 l 49 205 l 54 218 l 49 221 l 57 271 l 49 302 l 57 309 l 54 318 l 57 350 l 52 370 l 64 390 l 64 422 l 79 486 l 77 486 l 83 501 l 79 507 l 86 511 l 83 524 l 110 589 l 111 586 l 111 599 l 114 618 l 121 621 l 121 633 l 123 640 l 136 643 l 131 646 l 139 653 l 136 677 l 146 685 l 155 710 l 158 710 l 163 725 q 178 745 165 732 l 178 757 l 191 760 l 191 766 l 228 807 l 233 822 l 250 829 l 253 844 q 278 864 275 863 q 310 892 285 882 l 357 911 l 392 911 l 419 918 m 325 798 l 297 779 l 275 745 l 258 728 q 233 690 250 720 l 221 659 l 209 635 q 199 599 203 624 l 191 589 l 191 561 l 174 546 l 168 524 l 168 511 l 151 494 l 151 489 l 126 429 l 131 407 l 117 375 l 123 370 l 117 347 l 123 338 l 114 309 l 104 258 l 117 253 l 96 240 l 104 221 l 111 221 l 109 196 l 109 161 q 126 142 122 151 l 123 132 q 139 92 134 109 l 151 85 q 174 60 155 82 l 203 66 l 212 50 l 237 62 l 240 69 l 256 72 l 262 94 l 265 94 l 272 107 l 294 107 q 319 144 315 131 l 332 149 l 338 167 l 359 208 l 379 218 l 382 233 l 411 245 l 397 258 l 397 273 q 411 306 408 290 l 384 314 q 364 330 379 315 l 335 325 l 350 340 l 376 353 l 389 363 q 409 379 404 371 q 416 400 414 388 l 427 407 l 416 419 l 416 439 l 414 460 l 416 467 l 404 482 l 407 492 l 419 498 l 424 507 l 416 507 l 411 539 l 414 555 l 397 561 l 395 583 l 401 589 q 385 640 399 610 l 392 640 l 376 659 l 379 668 q 359 715 362 699 l 350 725 l 350 750 l 345 762 l 338 766 l 325 798 z "},"P":{"ha":1013,"x_min":-28,"x_max":1013,"o":"m 338 981 l 351 971 l 489 958 l 493 956 l 628 936 l 637 914 l 653 904 l 679 918 l 685 918 l 697 924 l 710 918 l 732 918 l 742 904 l 749 914 l 779 911 l 789 901 q 846 873 834 895 l 899 867 l 896 857 l 905 848 l 918 848 l 931 841 q 962 832 937 838 l 972 819 l 997 817 l 1013 775 l 1000 749 q 994 720 997 745 l 1003 703 l 975 653 q 960 635 969 642 q 926 616 950 629 l 908 608 l 836 558 l 734 504 l 718 503 l 703 502 q 679 492 697 501 l 667 494 l 657 484 q 623 464 653 479 l 583 457 l 553 435 l 411 395 l 404 400 l 367 385 l 354 385 l 338 363 l 338 328 l 332 296 l 332 258 l 313 243 l 319 236 l 322 224 l 317 218 l 310 176 l 317 171 l 300 151 l 313 139 l 302 126 l 300 92 l 288 79 l 290 62 l 272 22 l 272 -9 l 237 -82 l 224 -101 q 208 -136 218 -110 l 196 -142 l 196 -154 l 104 -245 l 52 -273 l 29 -273 l 26 -281 l 1 -281 l -16 -268 q -5 -233 -13 -244 q -28 -208 -15 -217 l -16 -189 l 26 -154 l 45 -149 l 69 -149 l 86 -174 q 139 -119 134 -138 l 153 -114 l 149 -104 l 161 -82 l 168 -79 l 171 -66 l 180 -60 l 183 -50 l 183 -22 l 203 -9 l 196 -3 l 212 20 l 212 28 l 221 57 l 225 80 q 237 110 228 92 l 231 117 l 240 123 l 231 132 l 243 136 l 237 144 l 253 208 l 253 231 l 262 256 l 250 265 l 262 268 l 275 300 l 248 343 l 240 375 l 240 385 l 248 400 l 282 425 q 290 441 288 441 l 285 454 l 288 469 l 290 472 l 290 504 l 272 517 l 278 524 l 275 551 l 285 568 l 278 576 l 265 576 l 275 603 l 282 606 l 272 611 l 265 640 l 253 643 l 262 656 l 253 668 l 253 685 l 243 690 q 250 713 248 699 l 235 722 l 200 697 l 200 688 l 174 668 l 155 650 l 121 633 l 74 589 l 61 603 l 61 611 l 49 621 l 51 633 q 69 672 52 637 l 98 697 l 111 713 l 161 741 l 168 754 l 180 754 q 205 770 197 768 l 215 782 q 256 804 253 800 l 256 814 l 245 833 q 218 864 240 842 l 212 892 l 218 904 l 256 911 q 313 965 283 947 l 338 981 m 524 839 l 498 827 l 464 829 l 441 827 l 419 829 l 404 772 l 411 760 l 407 737 l 411 725 l 399 705 l 401 643 l 392 606 l 399 589 l 395 564 l 399 551 l 385 526 l 385 482 q 441 467 422 477 l 473 479 l 496 479 l 509 489 l 575 504 l 777 589 l 787 598 q 814 611 791 603 l 814 615 l 836 624 l 878 659 l 893 688 q 843 747 870 728 l 836 747 l 770 798 l 726 804 l 714 817 l 679 819 l 653 817 l 647 829 l 628 836 l 590 819 l 566 829 l 546 822 l 524 839 z "},"Q":{"ha":1154,"x_min":49,"x_max":1154,"o":"m 543 958 l 559 945 q 566 936 562 943 l 575 914 l 575 886 q 597 848 587 860 l 597 811 q 610 745 607 774 l 632 720 l 637 659 l 644 650 l 650 611 l 647 594 q 640 568 644 577 l 635 558 l 597 533 l 610 521 l 663 533 l 697 521 l 704 472 l 722 464 l 714 457 l 679 359 l 667 340 l 667 330 l 640 296 l 644 290 l 628 281 q 600 253 618 267 l 600 243 l 578 214 l 550 192 q 521 158 539 174 l 521 149 l 543 136 q 562 121 555 129 l 578 97 l 610 94 q 625 69 620 85 l 650 69 l 663 50 l 707 32 l 726 37 l 736 25 l 751 32 l 774 25 l 786 32 l 799 25 l 799 32 l 859 32 l 873 41 l 893 41 l 903 22 l 921 54 l 937 60 l 960 60 l 953 62 l 968 75 l 985 75 l 990 89 l 994 118 q 1003 136 994 123 l 1019 139 l 1042 136 l 1042 149 q 1057 174 1056 165 q 1089 199 1068 176 l 1107 192 l 1154 114 l 1149 104 l 1067 32 q 1032 20 1042 28 l 1019 26 q 916 -20 969 -14 l 833 -28 l 811 -25 l 796 -35 l 781 -39 q 761 -54 774 -41 l 736 -45 l 726 -47 l 726 -54 l 701 -57 l 685 -45 l 675 -60 l 650 -50 l 632 -50 l 632 -41 l 600 -45 l 587 -32 l 568 -32 l 566 -16 l 528 0 l 536 -32 l 498 -32 l 468 -9 l 449 -9 l 441 0 l 418 7 q 379 26 407 9 l 347 26 l 313 7 l 294 16 l 243 -20 l 215 -25 l 200 -12 l 193 9 l 155 41 l 136 37 l 143 54 l 74 126 l 66 139 l 86 149 l 54 171 l 54 224 l 49 231 l 49 249 l 57 258 l 54 281 l 66 347 q 77 395 72 389 l 74 410 l 83 425 l 96 454 q 111 489 107 475 l 126 498 l 126 536 l 136 551 l 139 568 l 149 581 l 159 605 q 183 637 165 620 l 215 668 q 228 703 221 679 l 235 703 l 231 722 l 243 732 l 248 745 l 237 750 l 282 775 l 275 779 l 297 794 l 319 814 l 338 844 l 354 854 l 395 889 l 407 908 l 439 921 l 498 956 l 515 939 l 524 949 l 543 958 m 427 810 l 372 789 l 364 760 l 338 745 l 275 663 l 272 656 l 237 611 l 231 599 q 208 581 228 593 q 183 524 201 557 l 187 504 l 161 454 l 165 439 l 153 429 l 158 419 l 143 412 l 143 375 l 126 363 l 123 350 l 123 325 q 114 271 120 284 l 98 261 l 109 231 l 118 224 l 102 196 l 183 107 l 180 104 l 200 75 l 208 85 l 212 97 l 262 144 l 272 144 l 370 171 l 392 171 l 395 161 l 458 174 l 464 189 l 489 199 l 489 214 l 509 227 l 543 290 l 553 293 l 571 322 l 603 404 q 533 412 572 410 l 518 460 l 476 464 l 458 492 l 458 511 l 452 521 l 458 533 l 429 539 l 449 546 l 454 576 l 452 596 l 464 606 l 458 639 l 452 754 l 441 802 l 436 810 l 427 810 z "},"R":{"ha":957,"x_min":-28,"x_max":908,"o":"m 454 961 l 489 958 l 482 936 l 507 924 l 517 933 l 524 924 l 564 914 l 576 926 l 586 911 l 608 901 l 624 901 l 633 896 l 643 904 l 659 896 l 728 884 l 734 879 q 794 884 759 879 q 844 867 812 873 l 848 851 l 842 832 l 854 807 l 791 728 l 770 720 l 685 650 l 656 631 l 564 576 l 551 564 l 539 571 l 507 551 l 494 526 l 498 482 l 524 382 l 603 265 l 636 227 l 628 208 l 656 192 l 673 179 q 684 176 677 176 l 700 174 l 725 142 l 741 142 l 762 136 l 762 144 l 779 139 l 791 139 l 814 126 l 842 119 l 884 85 l 892 85 l 899 60 l 908 54 l 908 41 l 869 12 l 839 7 l 819 12 l 819 16 l 782 25 l 734 47 l 703 75 l 682 86 q 656 107 671 92 l 636 107 l 618 129 l 603 132 l 603 139 l 576 149 l 568 144 q 539 174 543 166 l 511 176 l 507 199 l 492 211 l 460 214 l 444 233 l 425 240 l 425 249 l 454 249 q 403 265 424 255 l 395 283 l 385 288 l 382 309 l 359 330 l 385 375 l 375 385 l 347 387 l 340 412 l 318 425 l 315 419 l 296 412 l 293 390 l 278 378 l 278 359 l 268 338 l 283 318 l 273 315 q 258 256 269 279 l 261 243 l 253 233 l 256 214 l 249 214 l 253 183 l 243 132 l 243 82 l 236 72 l 231 32 l 224 0 l 221 -25 l 201 -60 l 199 -73 q 186 -97 199 -79 l 189 -102 l 171 -144 l 157 -154 l 142 -184 q 132 -197 139 -192 l 114 -214 l 114 -224 l 94 -227 l 97 -243 l 89 -268 l 37 -306 l 3 -300 l -7 -290 l -3 -283 l -9 -283 l -3 -268 l -22 -253 l -20 -224 l -28 -218 l -22 -203 q -3 -179 -20 -196 l -7 -171 q 37 -123 9 -143 l 75 -132 l 92 -132 l 89 -142 l 102 -129 l 102 -114 l 117 -107 l 117 -89 l 122 -82 l 126 -85 l 126 -54 l 136 -54 l 142 -37 l 132 -22 l 144 -3 l 151 47 l 157 47 l 157 57 l 167 62 l 157 89 l 171 107 l 179 110 l 171 149 l 176 144 l 183 171 l 179 179 l 187 212 q 201 233 189 218 l 196 258 l 204 258 l 199 281 l 201 281 l 231 419 l 249 432 l 245 452 l 256 482 l 253 494 l 256 514 l 268 521 l 265 542 l 273 551 l 271 576 l 278 596 l 265 611 l 281 621 l 281 631 l 258 643 l 253 659 l 253 663 l 243 668 l 256 685 l 233 681 l 218 663 q 200 648 208 653 l 176 633 l 151 633 l 144 650 l 129 656 l 154 703 l 183 722 q 192 741 186 732 l 201 745 q 224 770 207 753 l 208 791 l 217 810 q 224 851 221 819 l 218 861 l 227 871 l 236 873 l 241 881 q 278 904 243 884 l 281 911 q 350 939 311 927 l 366 930 l 382 936 l 390 930 l 407 949 l 425 949 l 429 958 l 454 961 m 583 827 l 561 817 l 561 802 l 536 791 l 441 794 l 412 789 l 400 772 l 403 745 l 372 675 l 347 668 l 347 656 l 363 643 l 355 621 l 363 618 l 340 593 l 340 576 l 325 546 l 318 504 l 343 511 l 350 521 l 359 524 l 370 551 l 384 556 q 403 571 390 558 l 425 574 l 429 589 l 460 603 l 476 586 l 571 646 l 596 659 l 615 675 l 627 679 q 643 690 633 681 l 656 688 l 663 705 l 693 722 l 710 741 l 722 749 q 737 770 728 754 q 720 798 737 777 l 599 807 l 583 817 l 583 827 z "},"S":{"ha":947,"x_min":21,"x_max":850,"o":"m 714 1000 l 730 987 l 755 990 l 783 958 l 783 946 l 800 930 l 810 899 l 806 879 l 810 879 l 800 772 l 783 754 l 755 741 l 724 700 l 696 693 l 671 668 l 636 685 l 627 710 l 642 728 l 632 750 l 648 782 q 639 814 644 810 l 604 810 l 579 819 l 538 810 l 542 794 l 513 770 l 500 770 l 368 688 l 346 665 l 329 663 l 323 650 l 289 640 l 292 633 l 267 624 l 210 581 l 200 571 l 214 562 q 232 539 220 558 l 248 549 l 257 536 l 282 546 l 301 536 l 336 539 l 446 536 l 456 524 l 485 524 l 507 507 l 547 521 l 562 521 l 576 511 l 595 511 l 607 501 l 627 501 l 636 492 l 647 490 q 667 476 652 489 l 679 476 q 705 486 690 483 l 724 469 l 733 452 l 787 416 l 840 370 l 828 347 l 850 328 l 835 281 l 831 236 l 817 213 q 800 174 810 201 l 771 158 l 765 142 l 648 62 l 627 66 l 624 54 l 497 12 l 478 -3 l 440 -3 l 431 -12 l 411 -12 l 403 -22 l 383 -16 l 329 -35 l 326 -32 l 301 -35 l 257 -45 l 182 -37 l 147 -47 l 103 -37 l 94 -37 l 85 -36 l 78 -35 q 65 -28 75 -35 q 46 -16 54 -21 l 21 20 l 24 66 l 36 69 l 49 82 l 68 92 q 100 119 79 106 l 172 119 l 172 97 l 170 89 l 179 79 l 157 58 q 144 35 153 54 l 150 22 l 184 7 l 195 22 l 220 28 l 254 20 l 296 16 l 321 28 l 343 28 l 374 35 l 386 41 l 411 41 l 428 45 l 486 68 l 505 72 l 520 81 q 558 90 526 85 l 568 100 l 578 97 l 635 129 l 650 160 l 679 168 l 677 186 l 689 201 l 684 207 l 699 245 l 696 261 l 704 283 l 688 315 l 694 340 l 677 378 l 661 385 q 639 416 652 406 l 604 410 l 593 435 q 576 452 591 439 q 542 464 561 454 l 519 441 l 510 452 l 475 460 l 456 479 l 446 469 l 428 476 l 415 464 l 386 476 l 374 457 l 343 472 l 339 457 l 314 457 l 309 467 l 279 472 l 254 460 l 224 463 q 200 476 220 464 l 184 469 l 172 476 l 170 464 l 131 460 l 127 467 l 113 464 l 87 486 l 81 503 q 65 524 78 511 q 93 549 81 536 l 100 549 l 113 571 l 125 571 l 140 589 l 175 611 l 210 643 l 229 656 l 254 665 l 277 688 l 296 697 l 317 715 l 349 734 l 378 766 l 411 785 q 433 798 419 793 l 437 807 l 478 836 l 490 836 l 507 857 q 542 879 528 868 l 545 889 l 559 896 l 562 901 q 614 943 593 924 l 619 943 l 619 949 l 629 949 l 632 958 l 661 968 l 714 1000 z "},"T":{"ha":832,"x_min":35,"x_max":985,"o":"m 909 940 l 957 968 l 985 972 l 982 930 l 956 896 l 911 873 l 903 856 l 859 836 l 851 823 l 815 810 l 766 804 l 745 799 l 729 811 l 710 804 l 717 827 l 685 831 l 675 827 l 657 833 l 637 827 l 625 833 l 606 827 q 586 783 600 808 l 574 761 l 568 720 l 526 628 l 524 618 l 509 598 q 501 566 501 587 l 501 533 l 492 509 l 476 484 l 464 436 l 473 416 l 464 372 l 457 359 l 461 345 l 452 335 l 457 329 l 452 297 l 454 288 l 444 258 l 443 229 l 428 186 l 419 134 l 378 45 l 378 35 l 387 20 l 368 3 q 343 -5 366 0 l 343 -8 l 306 -37 l 286 -35 l 281 -18 l 252 -22 l 229 -8 l 245 32 l 254 35 l 286 86 q 309 121 292 111 l 311 155 l 319 200 l 336 240 l 354 290 l 343 329 l 350 364 l 363 404 q 374 457 367 441 q 389 481 381 473 l 375 496 l 385 511 l 379 524 q 401 566 389 552 l 401 581 l 416 587 l 414 610 l 407 603 l 416 625 l 410 637 l 424 682 l 410 694 l 410 700 l 424 710 l 424 726 l 414 734 l 424 751 l 444 817 l 424 814 l 322 791 l 288 796 l 275 783 l 245 777 l 250 751 l 208 722 l 186 700 l 176 704 l 164 693 q 151 669 158 688 l 117 660 l 111 647 l 102 650 l 89 672 l 52 704 l 35 751 l 39 764 l 57 764 q 102 804 66 777 l 111 831 l 146 839 l 146 848 l 168 851 l 174 865 l 221 868 l 240 871 l 256 865 l 262 878 l 297 873 l 310 878 l 332 878 l 328 880 l 347 890 l 370 886 l 401 886 l 414 900 l 427 896 l 471 900 l 473 908 l 486 908 l 498 900 l 514 900 l 518 896 l 553 903 l 593 916 l 603 905 l 635 908 l 660 903 l 700 890 l 697 896 l 722 918 l 770 913 q 833 925 813 925 l 861 921 l 909 940 z "},"U":{"ha":1038,"x_min":96,"x_max":933,"o":"m 422 822 l 447 819 l 457 807 l 479 802 l 485 766 l 475 760 l 467 741 l 412 700 l 403 685 l 309 457 l 298 444 l 302 429 l 293 422 l 293 395 l 281 359 q 261 309 269 338 l 264 306 l 254 288 l 239 179 l 241 151 l 235 110 l 245 104 l 264 107 l 271 114 l 298 123 l 318 144 l 343 158 q 368 174 361 173 l 387 196 l 400 199 l 422 224 l 428 224 l 467 261 l 482 273 l 492 287 q 514 302 497 293 l 536 347 l 545 347 q 570 378 557 371 l 576 395 l 602 400 l 627 432 l 636 432 l 656 486 l 677 482 l 690 494 l 686 507 l 693 521 l 718 633 l 728 631 l 737 653 l 770 681 l 803 700 l 817 697 l 827 711 q 831 713 829 713 l 851 725 l 860 725 l 864 734 l 882 737 l 892 737 l 904 710 l 885 693 l 899 677 l 864 533 l 847 507 l 829 328 l 832 258 l 842 227 l 832 199 l 857 149 l 876 136 l 889 154 l 901 154 l 914 139 l 933 136 l 933 107 l 911 92 l 838 12 l 785 -28 q 760 0 768 -16 l 730 0 l 686 97 l 700 119 l 677 142 l 668 253 l 671 281 l 671 318 l 677 338 l 668 350 l 671 372 l 668 385 l 564 265 l 542 245 l 539 236 l 494 196 l 482 192 l 469 167 l 460 164 q 432 139 450 151 l 410 132 l 397 119 l 340 72 l 318 72 l 309 50 q 252 25 271 30 l 241 12 l 227 16 l 201 3 q 154 -9 189 -3 l 142 -22 l 113 -25 l 104 -16 l 107 -7 l 97 0 l 110 45 l 129 97 l 122 114 l 142 174 l 125 199 l 142 231 l 142 258 l 151 281 l 160 283 l 167 318 l 179 330 l 179 340 l 170 343 l 167 375 l 176 385 l 176 395 l 192 412 l 192 492 l 211 469 l 213 492 q 221 517 214 504 l 211 533 l 224 536 l 233 568 l 214 571 l 221 596 l 236 581 l 236 624 l 227 633 l 189 628 l 142 606 l 129 596 l 100 611 l 96 643 l 132 665 l 167 690 l 236 722 l 241 728 l 289 741 l 302 762 l 306 760 l 328 772 l 328 779 l 363 789 l 355 791 l 380 807 l 422 822 z "},"V":{"ha":932,"x_min":21,"x_max":932,"o":"m 860 936 q 895 921 875 923 l 903 930 l 932 930 l 909 889 q 920 819 911 858 l 909 794 l 897 785 l 907 766 l 847 643 l 831 619 q 808 603 828 615 l 771 521 q 704 447 751 480 l 699 422 l 684 411 q 673 396 676 404 l 664 375 l 653 371 q 629 347 648 370 l 616 347 l 550 265 l 545 249 l 530 239 q 510 213 524 235 q 488 174 496 191 l 476 167 q 458 144 471 164 l 458 119 l 478 97 l 450 69 l 428 66 l 415 54 l 376 28 l 371 12 l 339 -7 l 339 -16 l 317 -22 l 298 -9 l 289 12 l 298 72 l 311 89 l 304 102 q 287 118 289 114 l 281 127 q 277 167 279 132 l 285 179 l 267 192 l 267 224 l 260 271 l 277 273 l 279 300 l 269 343 l 269 357 l 260 359 l 260 419 l 241 439 l 244 454 q 252 479 248 460 l 237 501 q 244 539 242 515 l 222 549 l 212 568 l 200 568 l 203 589 l 203 606 l 195 608 l 200 618 l 191 643 l 197 665 l 191 675 l 207 700 l 191 705 l 195 728 l 184 737 l 163 737 l 160 705 l 140 700 l 125 700 l 115 688 l 68 681 l 39 685 l 31 697 l 21 700 l 26 713 l 21 737 l 43 762 l 49 762 l 71 779 l 135 810 l 147 827 l 184 832 l 191 842 l 229 854 l 292 886 l 304 899 l 329 901 q 358 873 354 882 q 342 836 355 858 l 349 804 l 342 789 l 349 747 l 342 734 l 346 677 l 329 653 l 342 637 l 358 574 l 351 571 l 349 542 l 364 526 l 364 494 l 368 492 l 364 467 l 396 429 l 389 407 l 418 357 l 431 309 l 428 265 l 433 249 l 443 249 l 463 265 l 465 273 l 481 271 l 497 283 l 505 302 l 525 325 q 547 357 541 350 l 559 366 l 597 416 l 623 429 l 657 494 l 679 514 l 692 539 l 724 576 l 724 586 l 743 586 l 751 596 l 758 663 l 768 685 q 790 745 782 699 l 796 745 q 803 772 800 770 l 796 791 l 783 793 q 751 814 778 794 l 746 839 l 758 861 l 768 864 l 796 899 l 808 901 l 818 918 l 838 924 l 860 936 z "},"W":{"ha":1567,"x_min":21,"x_max":1525,"o":"m 433 844 q 468 822 461 831 l 471 802 l 500 794 q 458 760 494 788 l 446 728 l 446 710 l 450 697 l 428 656 l 431 611 l 421 589 l 411 526 l 421 507 l 418 482 l 421 476 l 411 469 l 443 353 l 436 347 l 481 268 l 500 278 l 502 290 q 509 304 503 296 q 538 330 515 313 q 557 366 538 337 l 559 363 l 570 372 l 572 385 l 585 395 l 582 416 q 619 432 592 418 l 627 447 l 632 447 q 664 482 644 467 l 667 498 q 699 536 673 503 l 696 539 l 704 546 l 704 571 l 714 603 l 701 628 l 704 653 l 696 668 q 711 688 697 673 l 721 688 l 739 697 l 739 715 l 755 725 l 768 720 q 786 745 778 736 l 818 754 l 843 741 l 860 688 l 895 665 l 900 593 l 903 581 l 900 564 l 909 555 l 916 514 l 932 464 l 935 447 l 994 328 l 1032 261 l 1059 253 l 1061 218 l 1076 211 l 1083 211 l 1099 196 q 1121 161 1105 189 l 1140 164 l 1149 183 l 1162 192 l 1171 205 q 1197 231 1175 211 l 1203 233 l 1217 252 q 1240 271 1225 261 l 1244 283 l 1263 300 q 1281 331 1274 326 q 1304 343 1288 337 l 1310 359 l 1314 357 l 1321 385 q 1335 407 1322 390 l 1341 407 l 1352 416 l 1357 444 l 1379 486 l 1389 494 l 1382 504 l 1396 529 l 1396 571 l 1401 571 l 1409 581 l 1414 581 l 1409 628 l 1401 665 l 1354 665 l 1341 690 l 1352 703 l 1357 715 l 1368 728 q 1379 750 1373 734 l 1392 757 l 1392 770 l 1409 779 l 1417 772 l 1421 794 q 1464 819 1455 811 l 1486 810 l 1503 822 l 1512 822 l 1525 798 l 1515 782 l 1525 754 l 1525 656 l 1515 646 l 1518 631 l 1515 606 l 1508 603 l 1496 549 l 1485 531 q 1476 513 1478 521 l 1471 492 l 1471 479 l 1446 432 l 1396 372 l 1398 363 l 1377 325 l 1282 221 l 1270 214 l 1250 189 l 1105 28 l 1067 12 l 1051 0 l 1036 4 l 1011 -25 l 999 -20 l 966 75 l 966 92 l 958 98 q 945 123 954 102 l 942 123 l 897 179 l 897 199 l 868 221 q 838 249 854 235 l 831 281 l 815 293 l 825 309 l 803 335 l 758 454 l 761 460 l 758 479 l 730 476 l 717 435 l 689 410 l 692 404 l 604 302 l 532 196 l 525 180 q 512 164 522 174 q 488 144 503 154 l 484 123 l 465 107 l 463 94 l 450 89 l 450 72 l 424 47 l 386 47 l 380 28 l 361 16 q 334 -12 347 -3 l 311 8 q 301 28 307 12 l 317 60 q 334 107 319 73 l 326 123 l 329 126 l 329 144 l 336 151 l 326 186 l 334 205 l 319 233 l 323 243 l 314 249 l 314 268 l 289 404 l 289 425 l 260 469 l 260 492 l 279 533 l 279 536 l 269 546 l 282 611 q 294 650 290 642 l 277 690 l 184 672 l 153 659 l 135 659 l 113 646 l 81 618 l 39 621 l 21 665 l 33 668 l 49 688 q 63 703 58 700 q 83 715 68 705 l 96 715 q 140 745 104 726 l 143 754 l 178 757 l 201 770 l 216 770 l 222 766 q 235 779 224 772 l 241 762 l 294 782 l 294 785 l 317 782 l 329 785 q 361 810 334 789 l 389 807 q 408 836 391 817 l 433 844 z "},"X":{"ha":896,"x_min":0,"x_max":854,"o":"m 782 968 l 807 958 l 832 958 l 854 926 l 854 908 l 839 873 l 844 861 l 832 832 l 810 819 l 810 802 l 747 720 l 729 690 q 710 675 725 685 l 693 677 l 684 663 l 690 656 q 663 624 680 646 l 650 606 l 564 524 l 551 504 l 541 500 q 514 476 536 498 l 519 435 l 596 357 l 615 328 l 718 236 l 747 171 l 766 161 l 768 148 q 779 129 770 142 l 747 94 l 747 82 l 693 41 l 650 16 l 602 89 l 576 119 l 574 158 l 561 176 l 498 227 l 485 245 l 471 261 q 454 288 464 268 l 432 300 l 422 325 l 395 335 l 343 288 l 330 283 q 309 249 314 265 l 283 249 l 281 221 l 261 205 l 149 62 l 144 32 l 154 9 l 126 -16 l 104 -25 l 28 -92 l 3 -62 l 3 -32 l 0 -25 l 28 16 l 45 35 q 92 79 64 71 l 85 79 q 96 95 91 87 q 106 112 101 103 q 121 131 111 120 q 137 151 132 142 l 151 174 l 186 183 l 196 214 l 218 227 l 221 245 l 249 253 l 249 271 l 273 302 l 283 306 l 290 325 l 300 330 l 315 363 l 330 372 l 353 410 l 347 441 l 318 472 q 300 501 307 498 l 302 514 l 290 536 l 293 564 q 271 599 280 588 l 271 628 l 261 633 l 265 646 l 256 685 l 239 685 l 239 690 l 233 681 l 211 681 l 199 690 l 196 685 l 192 693 l 167 668 l 144 668 q 94 653 112 656 l 82 631 l 62 624 l 40 637 l 35 665 l 50 675 l 66 694 q 75 715 69 697 l 110 732 l 110 737 l 125 739 q 157 754 132 741 l 157 760 l 176 757 l 174 762 l 186 762 l 199 770 l 204 762 l 211 772 l 239 779 q 286 819 258 798 l 309 829 l 325 829 l 318 848 l 328 861 l 340 854 l 343 848 l 355 848 l 368 857 l 395 857 l 412 817 l 416 775 l 422 762 l 419 750 l 429 710 l 425 700 l 454 596 l 450 568 l 459 549 q 479 524 464 539 l 494 526 l 501 542 l 507 539 l 511 551 l 529 558 l 533 581 q 549 593 543 587 l 581 631 l 608 653 l 606 659 l 621 681 l 654 711 q 668 732 664 731 l 677 772 l 677 791 l 693 807 l 690 829 l 688 832 l 677 829 l 656 839 l 646 832 l 608 864 l 608 884 l 640 911 l 656 918 q 718 953 693 943 l 715 946 l 727 955 q 766 965 732 958 l 772 961 l 775 968 l 782 968 z "},"Y":{"ha":1018,"x_min":83,"x_max":935,"o":"m 396 924 l 413 916 q 428 905 424 911 l 440 889 l 431 884 l 421 844 l 399 807 l 406 802 l 386 782 l 386 770 l 376 757 l 376 734 l 358 710 l 339 631 l 326 618 l 326 586 l 317 581 l 294 501 l 290 494 l 282 425 l 292 419 l 289 395 l 298 385 l 317 395 l 361 435 l 368 447 l 396 460 l 450 517 l 467 530 q 485 551 475 536 q 519 564 503 555 l 532 599 l 545 603 l 553 611 q 572 621 557 615 l 575 633 l 604 668 l 623 677 l 623 681 l 634 688 q 654 715 639 690 l 671 710 l 684 725 l 686 750 q 704 772 690 751 l 710 757 l 710 802 l 721 827 l 724 819 l 736 847 q 755 876 739 854 l 753 879 l 803 911 l 848 930 q 888 936 856 933 l 913 907 l 895 886 l 907 832 l 935 817 l 909 802 l 913 791 l 890 771 q 882 760 885 766 q 875 741 880 753 l 878 685 l 865 640 q 860 599 862 621 l 872 574 l 869 479 l 831 390 l 835 370 l 847 370 l 825 353 q 847 306 847 321 l 840 268 l 828 256 l 828 236 q 796 132 808 208 l 808 117 l 796 102 l 800 66 l 790 54 l 793 35 l 787 25 l 787 -7 l 765 -50 l 768 -50 l 765 -85 l 749 -102 l 721 -183 l 701 -268 l 689 -273 l 689 -290 l 671 -322 l 652 -340 l 642 -370 l 582 -435 l 557 -444 l 547 -469 l 528 -482 l 497 -494 l 453 -533 l 431 -536 l 431 -546 l 415 -555 l 371 -596 l 298 -628 l 282 -608 l 291 -595 q 298 -558 294 -589 l 358 -526 l 406 -492 l 424 -472 l 433 -469 l 433 -467 l 446 -464 l 488 -435 q 503 -419 490 -429 l 503 -412 q 541 -382 523 -393 l 550 -357 l 582 -322 l 582 -313 q 619 -278 595 -306 l 610 -256 l 639 -221 l 648 -196 l 648 -179 l 657 -167 q 679 -144 668 -157 q 664 -123 674 -131 l 676 -94 l 671 -72 q 678 -46 671 -64 q 696 -20 685 -27 l 701 12 l 699 22 l 714 45 l 701 54 l 721 85 l 718 114 l 724 123 l 730 174 l 724 218 l 733 218 l 733 256 l 746 258 l 736 309 l 726 315 l 733 338 l 724 370 l 736 395 l 733 407 l 736 412 l 730 422 l 730 435 l 733 441 l 730 452 l 721 546 l 708 549 l 708 581 l 704 624 q 699 643 699 638 l 701 663 l 686 663 l 595 561 l 567 549 l 503 479 l 500 472 l 421 400 l 406 390 l 361 347 l 290 300 l 254 273 l 195 256 l 165 233 l 155 247 q 143 278 150 253 q 172 336 160 302 q 187 372 183 370 l 187 407 l 182 416 q 197 452 197 445 l 197 476 l 195 498 q 212 526 208 524 l 229 608 l 229 633 l 241 653 l 239 668 l 252 700 l 241 728 l 248 734 l 241 760 l 222 760 l 212 750 l 191 747 l 182 725 l 165 722 l 150 697 l 113 685 l 83 732 l 90 760 q 113 785 103 768 l 140 794 l 153 817 l 314 889 l 336 901 l 351 901 l 396 924 z "},"Z":{"ha":960,"x_min":-21,"x_max":925,"o":"m 885 1013 l 900 1006 l 913 1013 l 925 996 l 925 936 l 917 911 q 872 886 899 903 l 856 886 l 847 867 l 699 693 l 692 690 l 671 659 l 582 568 l 570 561 l 528 504 l 488 479 l 446 422 l 424 407 l 406 386 q 386 375 403 382 q 368 335 382 352 l 368 313 l 351 300 l 351 281 l 342 261 l 301 243 l 286 226 q 252 199 279 218 l 254 186 l 273 174 l 277 161 l 292 161 l 307 151 q 329 129 327 128 l 334 104 l 349 110 l 393 107 l 393 85 l 424 79 l 431 66 l 456 62 l 463 69 l 534 62 l 550 54 l 570 66 l 585 60 l 639 69 l 660 77 q 676 89 671 82 l 692 89 l 714 106 q 736 114 718 110 l 749 158 l 765 179 l 774 179 l 783 189 l 800 193 q 818 205 808 196 l 835 210 q 860 224 843 211 l 865 221 l 888 233 l 913 192 l 907 183 l 907 158 q 878 136 882 143 l 847 126 l 835 107 l 812 97 l 800 79 l 636 -3 l 616 -16 l 570 -28 l 557 -28 l 528 -37 l 497 -28 l 488 -35 l 437 -41 l 418 -32 l 393 -35 l 371 -25 l 326 -22 l 317 -16 l 279 -12 l 260 3 l 225 7 l 109 66 l 100 82 l 90 79 l 83 97 l 71 97 l 43 117 l 40 132 l 1 139 l -9 156 q -21 196 -14 164 l -14 211 l 31 245 l 61 245 l 71 256 q 81 264 75 261 l 94 273 q 113 279 103 278 l 143 281 l 163 253 l 207 273 l 220 300 l 225 315 l 254 363 l 264 366 l 304 395 l 334 422 l 355 425 q 364 447 358 434 l 396 457 l 396 476 l 418 482 l 433 479 l 446 482 l 433 507 l 450 504 l 458 539 l 478 558 l 493 576 l 515 593 l 528 618 l 562 643 l 595 693 l 616 715 l 632 728 l 664 762 l 661 794 q 684 836 670 804 q 661 861 665 849 l 636 848 q 619 871 621 865 l 557 873 l 532 886 q 503 873 520 884 l 485 884 l 443 879 l 408 867 l 393 832 l 399 802 l 386 775 l 386 745 l 371 710 l 342 697 l 336 681 l 317 681 l 277 653 l 260 665 l 248 665 l 229 693 l 248 720 l 244 734 l 241 782 l 252 785 l 257 817 l 248 819 l 254 844 l 244 867 l 257 886 l 257 899 l 269 913 q 294 933 273 921 l 301 930 l 301 939 l 314 936 l 326 949 l 349 953 l 374 970 l 415 974 l 428 965 l 440 974 l 490 983 l 493 971 l 500 974 l 597 978 l 607 974 l 639 974 q 671 983 660 982 l 686 978 l 736 981 l 781 987 l 787 987 l 793 971 l 803 965 l 800 971 l 863 996 l 885 1013 z "},"[":{"ha":753,"x_min":139,"x_max":669,"o":"m 625 1010 l 648 991 q 660 971 653 987 l 653 962 l 669 946 l 647 940 l 647 937 l 618 928 q 611 921 614 921 q 603 933 607 921 q 581 943 599 936 l 571 933 l 571 937 q 550 903 554 918 q 553 896 553 900 q 546 886 553 890 l 553 884 l 541 880 l 541 873 q 532 865 532 871 q 533 861 532 863 q 510 819 515 836 l 514 810 l 504 802 l 497 761 l 475 722 l 465 675 l 458 675 q 453 661 453 675 q 440 624 453 640 l 446 615 q 431 589 433 604 q 440 576 437 582 l 431 564 l 418 561 l 421 529 l 415 517 q 404 471 404 494 q 406 454 404 459 l 403 454 l 396 422 l 389 419 l 393 397 l 386 400 q 396 366 398 376 l 374 278 l 361 218 l 351 189 l 348 162 q 336 126 346 149 l 342 107 l 325 61 l 330 41 l 315 49 l 315 26 l 313 17 l 306 17 l 294 11 l 294 -5 l 309 -3 l 309 -16 l 343 -21 q 380 -8 355 -21 q 428 1 390 -1 l 428 -3 l 450 -18 l 450 -33 q 403 -65 434 -65 l 328 -65 l 302 -68 q 285 -72 288 -72 q 268 -58 282 -72 l 252 -62 l 236 -58 q 227 -65 233 -65 q 214 -58 221 -65 q 201 -72 214 -71 l 196 -68 q 167 -72 174 -72 q 149 -56 158 -72 q 139 -37 139 -40 l 139 -24 l 154 -8 q 164 26 156 6 q 186 61 169 24 q 205 66 203 61 l 229 117 q 248 149 248 127 l 252 144 q 268 158 268 149 q 262 174 268 166 q 257 189 257 182 q 267 204 267 191 q 264 221 267 216 l 264 214 q 269 237 269 225 q 267 256 269 250 l 279 265 l 279 283 l 283 283 l 283 300 l 289 296 q 298 321 298 307 q 292 343 298 330 l 301 350 l 298 359 q 307 385 307 376 l 307 407 q 321 429 315 408 l 336 486 l 349 571 l 358 583 l 368 675 q 354 734 354 719 q 361 775 354 760 l 367 789 q 375 807 370 795 q 388 841 380 819 q 399 868 395 863 l 395 871 l 395 873 l 401 886 l 401 921 q 407 924 407 921 q 404 930 407 928 q 435 960 418 960 q 446 958 441 960 l 449 962 q 501 997 482 975 l 543 1003 l 610 1003 l 618 1010 l 625 1010 z "},"\\":{"ha":669,"x_min":87,"x_max":582,"o":"m 546 -60 l 541 -40 l 536 -40 q 509 -12 515 -40 l 505 -12 l 504 -3 q 475 60 475 26 l 475 66 l 467 65 l 463 72 l 464 82 q 458 92 464 88 l 453 89 l 446 96 q 433 126 443 98 l 436 126 l 433 129 l 429 129 l 425 142 q 405 183 412 157 q 392 216 397 209 q 379 243 386 223 l 368 250 l 367 278 l 358 283 l 354 300 l 345 310 q 330 359 341 342 l 326 357 l 321 392 l 309 392 l 313 410 l 310 407 l 307 416 q 293 440 293 433 l 293 441 q 297 452 296 448 l 292 457 l 275 498 l 269 530 l 254 568 l 245 615 q 235 631 235 622 l 237 640 q 216 688 229 649 l 201 737 l 203 742 l 200 742 l 182 791 l 172 811 q 157 854 167 819 l 153 851 l 142 876 l 139 876 q 122 901 138 891 q 116 918 119 909 q 110 938 113 927 q 105 957 106 949 q 93 978 103 965 l 94 981 l 87 1003 l 102 1004 q 122 1015 109 1006 l 126 1015 q 146 1004 141 1010 q 163 974 151 999 q 182 919 176 949 q 192 883 189 890 q 207 867 196 876 l 207 859 l 212 854 l 249 732 l 265 697 l 294 606 l 311 568 l 311 546 l 325 517 l 339 461 q 353 436 343 451 q 365 418 363 420 q 372 372 366 416 l 396 347 l 412 281 l 428 256 l 443 215 l 478 139 l 496 123 l 500 92 l 519 69 l 582 -53 l 555 -57 l 555 -60 l 546 -60 z "},"]":{"ha":753,"x_min":97,"x_max":585,"o":"m 330 977 l 354 978 l 349 975 l 374 964 l 374 960 l 403 961 l 401 957 l 414 961 l 416 956 l 421 962 q 432 965 429 965 l 440 964 q 460 960 447 960 l 460 957 l 475 958 l 475 961 l 485 960 l 490 966 q 522 954 517 962 l 522 957 l 532 956 l 529 958 q 547 964 542 958 q 558 971 555 966 q 585 946 585 968 l 585 936 l 576 933 l 578 904 q 564 896 568 901 q 555 879 555 894 q 559 852 555 869 l 555 860 l 551 849 q 533 829 550 844 l 534 823 q 526 791 530 810 q 514 771 523 771 l 513 771 q 504 753 511 753 q 498 720 498 734 l 500 711 q 496 707 500 707 l 494 707 l 494 703 l 490 703 l 493 690 l 489 685 l 492 677 q 467 640 467 667 l 463 640 l 457 611 l 464 608 l 457 606 l 456 593 l 453 593 l 452 586 l 454 586 l 454 579 l 449 579 l 452 576 l 449 576 l 450 571 l 446 572 q 443 570 443 572 q 447 559 443 566 l 443 562 l 440 559 l 446 550 l 439 543 l 421 463 l 419 435 q 412 412 412 421 q 414 406 412 408 l 411 406 l 390 278 l 386 268 l 374 167 l 358 83 l 363 86 l 361 81 l 355 81 l 361 47 q 370 28 368 36 q 357 24 366 24 l 339 3 l 347 -21 l 346 -40 q 319 -31 330 -32 q 304 -39 313 -37 l 301 -41 l 258 -40 l 256 -45 l 250 -40 l 245 -47 l 236 -43 q 216 -64 232 -62 q 193 -37 208 -56 q 167 -17 179 -17 l 138 -22 l 135 -25 q 97 17 122 -23 q 153 36 116 36 l 161 36 q 205 32 202 33 l 205 36 l 212 39 l 212 41 l 240 64 q 256 80 254 69 q 258 92 258 90 l 278 158 l 282 155 l 283 171 q 297 186 297 182 q 292 211 297 200 l 294 211 l 292 236 l 298 244 q 311 279 303 264 l 309 279 l 313 304 l 315 307 l 314 325 q 318 364 314 326 q 334 397 332 377 l 339 404 l 344 418 q 359 440 346 424 q 347 476 351 454 l 350 478 l 349 485 q 358 497 350 486 q 354 515 354 510 l 354 528 l 357 528 q 370 549 362 541 l 370 583 q 396 604 391 595 q 387 616 396 608 l 396 627 q 383 636 391 629 q 375 653 375 644 q 403 676 375 669 l 396 676 l 400 681 l 393 681 l 393 684 l 401 689 l 395 693 l 401 693 l 397 701 l 403 705 l 396 708 l 403 708 l 400 721 l 408 739 l 389 771 l 389 772 q 406 787 393 777 l 407 796 q 404 806 407 800 l 399 806 l 393 823 l 396 825 q 424 843 416 829 l 418 851 l 418 856 l 411 857 l 410 867 q 424 880 420 873 l 418 890 l 424 893 q 392 921 416 921 l 383 921 l 376 922 l 376 917 l 367 924 l 361 924 q 325 935 338 924 q 313 950 313 946 q 318 970 313 960 l 323 964 l 323 974 l 330 974 l 330 977 z "},"^":{"ha":1389,"x_min":279,"x_max":1107,"o":"m 633 991 l 754 991 l 1107 608 l 1044 608 l 693 904 l 340 608 l 279 608 l 633 991 z "},"_":{"ha":694,"x_min":0,"x_max":694,"o":"m 0 -184 l 694 -184 l 694 -277 l 0 -277 l 0 -184 z "},"`":{"ha":694,"x_min":186,"x_max":435,"o":"m 404 761 l 347 741 l 310 762 l 279 815 l 279 821 q 256 872 279 837 q 221 918 232 908 l 218 943 q 186 993 186 987 l 186 1018 l 196 1022 l 196 1032 q 216 1063 197 1036 l 248 1067 l 253 1086 l 273 1093 l 285 1088 q 291 1084 288 1087 q 302 1072 295 1080 l 310 1063 l 347 990 q 351 985 350 989 q 355 973 353 982 q 359 958 357 964 q 366 943 361 951 q 376 923 370 934 q 393 903 383 913 q 407 864 396 900 l 425 860 l 411 831 l 429 817 l 435 791 l 421 774 l 404 761 z "},"a":{"ha":882,"x_min":28,"x_max":882,"o":"m 541 665 q 567 664 545 667 q 595 654 589 661 l 618 660 l 631 659 l 640 640 l 639 627 q 621 603 625 616 l 614 603 l 606 595 q 578 583 603 591 l 576 457 l 587 392 l 589 325 l 599 243 l 642 126 q 657 106 653 113 q 700 125 691 125 q 736 158 728 157 l 736 165 l 812 231 l 814 243 q 843 269 821 244 l 868 264 l 882 233 l 876 207 l 863 212 l 856 197 l 843 197 q 821 164 836 177 l 821 157 l 783 122 l 777 104 q 733 81 764 96 l 728 71 l 726 74 l 718 60 l 700 54 l 697 45 l 688 45 l 692 35 l 681 14 l 671 11 q 648 -29 672 0 l 616 -31 l 610 -50 l 590 -56 q 554 -28 568 -50 l 509 46 l 465 143 l 469 179 l 460 211 l 467 212 q 447 272 447 252 l 450 297 l 429 310 l 415 301 l 415 304 l 408 301 l 390 254 l 380 258 l 378 249 l 371 252 l 371 245 l 368 245 q 349 211 368 241 l 343 214 l 339 184 l 325 177 q 307 159 311 170 l 301 146 l 307 138 l 292 132 l 285 104 l 273 98 l 277 93 q 250 77 260 81 l 244 66 l 239 74 l 229 50 l 221 50 l 210 11 l 197 7 l 196 -14 l 176 -14 l 157 -58 l 147 -65 l 139 -65 l 136 -78 l 93 -94 l 47 -96 l 28 33 l 36 50 l 38 64 q 54 104 39 69 l 52 114 q 68 147 64 142 l 62 150 l 75 183 l 76 196 q 86 221 77 201 q 75 258 81 254 l 81 268 l 98 265 q 118 288 114 286 l 122 300 l 125 300 l 115 314 l 123 350 l 129 347 q 139 368 137 368 l 136 386 l 155 421 l 155 431 l 151 439 l 179 498 l 211 542 q 239 574 227 556 l 262 583 l 294 616 l 325 635 l 343 635 l 358 639 l 379 639 l 389 654 l 408 653 l 428 653 l 428 659 q 446 652 436 658 l 467 660 l 482 656 l 486 661 l 503 656 l 541 665 m 366 558 l 349 555 l 328 557 l 321 545 l 321 534 q 297 525 310 529 l 285 494 q 273 453 275 454 l 267 453 l 257 431 l 252 412 q 239 397 250 403 l 232 374 l 221 353 q 215 329 215 342 l 215 323 l 208 329 l 208 318 l 204 318 l 205 311 l 200 300 l 192 264 l 178 235 l 175 193 l 171 187 l 168 187 l 165 175 l 171 170 l 164 144 l 161 144 l 164 136 l 154 136 l 155 86 l 161 62 l 164 62 l 179 77 l 218 132 l 289 225 l 310 248 l 357 323 l 406 389 l 410 403 l 400 415 l 418 446 l 422 469 q 433 486 422 472 l 435 541 l 416 542 l 401 542 l 382 555 l 378 549 l 366 558 z "},"b":{"ha":682,"x_min":-49,"x_max":661,"o":"m 334 1223 l 355 1217 l 358 1204 l 358 1194 l 364 1179 l 358 1173 l 361 1154 l 349 1137 l 349 1120 l 336 1117 l 339 1090 l 321 1069 l 286 981 l 264 892 l 254 864 l 252 871 l 244 829 l 241 832 l 248 772 l 235 754 l 235 741 l 241 725 l 235 722 l 229 728 l 232 710 l 229 700 l 222 686 q 212 640 220 681 l 210 637 l 229 618 l 227 603 q 200 581 212 597 l 212 581 l 212 576 l 227 576 l 252 568 q 298 583 279 583 l 326 581 l 346 583 l 349 576 l 371 581 l 374 574 l 399 583 l 418 576 l 415 574 l 425 574 l 456 593 l 468 589 l 468 596 l 507 596 l 567 581 l 579 564 l 582 568 q 639 549 610 562 l 642 542 l 661 526 l 642 472 l 636 464 l 627 464 l 624 454 l 624 425 l 619 432 l 616 419 l 597 410 l 591 382 l 572 366 l 576 359 l 570 359 l 572 357 l 562 350 l 559 338 q 519 283 541 331 l 513 288 l 515 281 l 503 278 l 500 265 l 493 268 l 490 256 l 472 240 l 472 233 l 465 221 l 456 224 l 460 218 l 440 214 l 440 205 l 415 186 l 418 179 l 411 171 l 403 171 l 399 176 l 393 167 l 386 167 l 390 158 l 380 154 l 374 136 l 368 132 l 368 126 l 355 126 l 349 114 l 343 117 q 321 85 334 93 l 321 79 l 314 79 l 317 69 l 309 75 l 304 66 l 294 66 l 289 45 l 279 47 l 273 35 q 244 16 248 21 l 248 7 l 241 7 l 241 0 l 232 0 q 212 -12 218 -11 l 210 -9 l 197 -22 q 170 -45 180 -34 l 153 -41 l 110 -75 l 110 -82 l 100 -82 q 58 -117 73 -110 l 56 -123 l 49 -126 l 43 -142 l 36 -136 l 21 -149 l 18 -144 l 11 -167 l -1 -149 l -26 -144 l -39 -149 l -49 -139 l -36 -117 l -21 -110 l -7 -114 l 14 -89 l 14 -69 l 24 -60 l 31 -35 l 46 -19 q 59 -3 56 -9 l 68 20 l 81 28 l 71 35 l 83 47 l 81 66 q 93 119 81 96 l 90 126 l 113 149 l 113 171 l 106 189 l 113 208 l 122 278 q 110 302 111 294 l 122 318 l 118 335 l 122 350 l 118 363 l 115 407 l 118 486 q 131 514 129 498 l 140 514 l 140 529 l 147 536 l 140 539 l 147 546 l 144 551 l 144 571 l 140 576 q 163 615 149 596 l 153 628 l 157 637 l 165 643 l 170 640 l 175 653 l 160 663 l 163 693 l 172 705 l 165 725 q 182 770 176 761 l 178 791 l 192 829 l 187 848 l 187 864 l 192 871 l 182 884 l 184 911 q 200 953 193 925 l 195 965 l 178 974 l 175 993 l 147 990 l 135 974 q 114 944 125 956 q 93 918 102 932 l 87 918 l 65 908 l 31 914 l 18 908 l 5 917 q -21 949 -1 921 l -4 946 l -1 974 l 81 1040 q 103 1047 98 1044 l 144 1075 l 157 1078 q 172 1100 171 1091 l 192 1112 l 216 1145 l 261 1192 l 282 1194 l 286 1207 l 298 1207 q 329 1219 320 1219 l 334 1223 m 408 467 l 403 464 l 386 467 l 376 464 l 380 460 l 371 457 l 368 452 l 364 460 l 361 454 l 346 460 l 321 452 q 301 460 315 457 q 269 444 277 446 q 254 425 267 431 l 252 429 l 244 419 l 241 425 l 239 422 l 227 435 l 220 435 l 216 441 l 204 441 q 184 395 198 416 l 200 366 l 184 302 l 195 283 q 200 245 200 272 l 197 218 l 200 201 l 183 189 l 183 102 l 178 102 l 184 57 l 182 47 l 184 35 l 200 41 l 222 69 l 252 89 l 298 144 l 304 154 l 317 158 q 334 186 331 178 l 343 192 l 374 227 l 376 240 l 403 240 l 399 258 l 414 269 l 421 290 l 446 302 l 475 353 l 481 359 l 481 366 l 490 395 l 478 435 q 425 464 435 448 l 408 467 z "},"c":{"ha":610,"x_min":28,"x_max":568,"o":"m 562 87 l 541 60 l 523 50 q 505 32 514 45 q 486 22 490 28 l 471 22 l 454 20 l 375 -20 l 363 -16 l 357 -22 l 335 -28 l 328 -37 l 315 -41 l 300 -50 l 285 -53 q 258 -66 278 -54 l 243 -66 l 228 -79 l 224 -72 l 221 -85 l 199 -82 l 180 -94 l 171 -94 l 136 -104 l 109 -92 l 94 -72 l 41 -9 l 39 25 l 41 37 l 32 37 l 28 127 l 35 164 l 32 174 l 32 192 l 41 208 l 39 240 l 57 325 l 57 338 l 64 328 l 60 350 l 79 407 l 79 416 l 104 457 q 117 489 109 479 l 117 504 l 139 529 l 164 546 l 199 583 l 250 615 l 289 628 l 319 628 l 347 640 l 350 637 l 372 637 l 397 646 l 414 646 l 427 640 l 427 631 q 449 621 435 623 l 449 615 l 471 606 l 471 589 l 464 576 q 444 549 456 570 q 416 533 429 542 l 404 536 l 395 517 l 382 517 l 370 511 l 370 486 l 354 486 l 332 482 l 322 482 l 300 467 l 290 469 l 285 482 l 285 494 l 278 501 l 253 498 l 243 482 l 240 472 l 212 439 l 203 407 l 192 382 l 186 351 l 175 322 l 168 231 l 180 144 l 180 136 l 191 123 l 191 92 l 218 41 l 224 45 l 233 35 l 253 35 l 275 50 l 275 45 l 288 50 l 325 57 l 347 66 l 357 66 l 359 69 l 382 66 q 429 89 400 79 l 427 94 l 436 92 q 471 107 450 96 l 484 104 l 486 113 l 515 118 l 533 125 l 554 125 l 568 109 l 562 87 z "},"d":{"ha":684,"x_min":28,"x_max":718,"o":"m 642 1021 l 661 1018 l 664 1008 l 673 1006 l 671 978 l 671 968 l 661 958 l 659 937 q 646 904 657 917 l 654 899 l 639 892 l 639 876 l 624 861 l 624 836 l 619 839 l 611 822 l 608 794 q 597 775 607 789 l 602 760 l 595 743 q 587 727 591 732 l 572 713 l 572 688 l 579 685 l 572 646 l 576 637 l 559 608 l 559 583 l 547 571 l 547 539 l 532 517 l 532 504 l 538 498 l 534 479 l 542 469 q 513 441 532 448 l 510 422 l 519 416 l 500 404 l 503 390 l 500 372 q 542 378 536 375 l 554 372 l 497 302 l 478 227 l 465 218 l 468 196 l 463 189 l 465 179 l 463 174 l 463 144 l 465 126 l 460 126 l 456 110 l 446 102 l 440 102 l 440 66 l 453 60 l 437 37 l 443 37 l 440 25 l 450 12 l 450 0 l 460 -9 l 456 -32 l 463 -45 l 463 -94 l 453 -97 l 463 -119 l 463 -139 l 475 -186 l 515 -273 l 513 -273 l 534 -293 q 567 -343 554 -325 q 591 -363 588 -355 l 597 -363 l 597 -370 l 611 -378 l 619 -378 l 632 -387 q 671 -357 660 -380 q 705 -338 685 -355 l 718 -359 l 708 -363 l 708 -375 l 696 -382 l 699 -397 l 699 -410 l 708 -407 l 708 -429 l 689 -439 l 693 -444 l 684 -447 l 679 -454 l 684 -460 l 673 -460 l 676 -467 q 636 -486 659 -471 q 604 -454 629 -483 l 576 -464 l 562 -447 l 557 -435 l 553 -431 q 548 -424 550 -429 q 542 -412 545 -419 l 542 -400 l 532 -385 l 532 -378 l 519 -370 l 450 -283 l 408 -208 l 412 -199 l 396 -174 l 408 -167 l 403 -154 l 399 -119 l 393 -107 l 386 -79 l 374 -61 q 369 -40 371 -57 l 364 -3 l 364 25 l 361 25 l 368 54 l 364 69 l 346 72 l 351 85 l 358 79 l 349 119 l 336 104 l 349 144 l 339 144 l 339 142 l 329 144 l 298 114 l 296 117 l 277 107 l 277 94 l 261 82 l 261 75 l 252 75 l 240 66 q 216 60 235 62 l 220 45 l 204 35 q 187 -3 197 7 l 187 -12 l 175 -22 l 175 -37 l 163 -35 l 144 -72 l 118 -82 l 113 -94 l 100 -97 l 100 -102 l 81 -110 l 78 -110 q 62 -79 71 -87 l 62 -85 q 40 -60 47 -64 l 36 -25 l 40 -9 l 40 0 q 31 16 35 12 l 36 25 l 36 35 l 40 54 l 28 66 l 40 75 q 31 117 31 95 l 31 126 l 33 142 l 28 158 l 40 179 l 33 221 l 40 221 l 46 243 l 46 253 l 53 253 l 53 315 l 62 322 l 65 353 l 65 366 l 87 366 l 93 400 l 115 395 l 131 435 l 131 447 l 135 441 q 157 494 144 456 l 165 501 l 165 511 l 170 501 l 172 521 l 184 524 l 192 539 l 192 546 l 201 549 q 239 586 205 558 l 241 581 l 252 593 l 264 589 l 269 593 l 269 599 l 277 596 l 286 624 l 317 615 l 314 618 l 334 618 l 329 621 l 339 624 l 372 619 l 412 596 l 399 596 l 425 589 l 425 583 l 443 564 q 456 533 451 534 l 465 536 l 472 555 l 485 561 l 485 593 l 488 603 l 497 606 l 494 628 l 500 637 l 515 646 l 510 659 l 513 663 l 500 668 l 500 794 l 510 804 q 515 822 513 818 l 513 827 l 513 864 l 497 854 l 485 857 q 468 851 482 854 l 465 839 l 446 829 l 437 829 l 421 842 l 412 867 l 406 871 l 412 879 l 406 899 l 412 908 l 425 911 l 428 921 l 440 924 l 453 946 l 460 946 l 463 953 l 513 990 l 515 996 l 538 996 l 538 1003 l 545 996 l 554 996 l 557 1006 q 579 1015 570 1008 l 642 1021 m 301 504 l 296 486 l 252 464 l 232 422 l 222 416 l 220 416 l 214 407 l 210 410 l 204 395 l 210 387 q 197 347 204 353 l 197 335 q 179 302 186 326 l 172 302 l 172 288 l 163 258 l 170 243 q 147 192 156 205 l 153 183 l 153 158 l 160 151 l 150 136 l 153 117 l 165 102 l 165 107 l 175 102 l 195 110 l 200 107 l 235 149 l 244 151 l 244 154 l 264 174 l 286 183 l 301 201 l 311 205 l 343 233 l 386 265 l 395 292 q 412 313 396 296 q 428 353 418 339 l 408 375 l 406 425 l 403 441 l 403 447 q 393 467 395 457 l 383 467 l 380 452 l 364 454 l 364 469 l 358 467 l 355 476 l 336 469 l 317 476 l 314 492 l 301 504 z "},"e":{"ha":595,"x_min":0,"x_max":574,"o":"m 323 618 l 340 615 l 343 615 l 340 608 l 346 608 l 355 599 l 387 596 l 419 596 l 437 586 l 444 586 l 454 551 l 440 539 l 440 526 l 463 504 l 460 441 l 450 441 l 447 429 l 444 429 l 444 410 l 457 407 l 463 400 l 454 387 l 454 378 l 437 370 l 425 359 l 390 340 q 366 318 376 326 l 355 290 l 296 267 l 236 268 l 239 253 l 227 253 l 224 249 l 195 243 l 192 253 l 182 249 l 182 243 l 157 233 l 147 205 l 160 171 l 160 154 l 167 139 q 147 97 153 99 l 151 85 l 144 82 l 160 75 l 160 54 l 174 45 q 215 60 208 55 l 225 50 l 228 53 q 272 60 256 56 l 277 68 l 293 68 l 306 69 l 322 61 l 318 66 l 332 66 l 349 81 l 368 82 l 364 82 l 383 90 l 389 86 l 399 96 l 412 96 l 425 109 q 473 126 440 109 l 473 134 l 493 139 l 514 170 l 536 167 q 564 154 548 156 l 574 144 l 558 115 l 561 97 l 539 85 l 536 78 l 504 74 l 486 56 l 467 54 l 461 39 l 435 41 l 427 22 l 406 25 l 397 16 q 374 5 374 7 l 364 11 l 349 -4 l 326 -4 l 313 -11 l 304 -11 l 294 -20 q 258 -35 277 -24 l 249 -28 l 229 -28 l 221 -35 l 214 -32 l 204 -35 l 201 -32 l 195 -47 l 176 -47 l 161 -56 q 129 -62 154 -60 l 122 -69 l 110 -69 l 92 -72 l 78 -89 l 60 -82 l 50 -94 l 43 -92 q 16 -66 40 -92 l 18 -50 l 16 -41 l 18 -25 l 8 0 l 12 20 l 5 50 l 12 75 l 3 114 l 0 117 l 3 136 l 25 144 l 25 158 l 16 161 l 18 179 l 12 189 l 16 205 l 25 211 l 22 227 l 25 253 l 31 256 l 40 288 l 62 328 l 82 335 l 85 357 l 82 363 l 85 375 l 97 382 l 104 404 l 87 404 l 87 412 l 94 422 l 92 432 l 94 441 l 97 441 l 97 464 l 119 467 l 129 486 l 176 539 l 186 539 q 207 561 194 552 l 216 558 q 239 581 226 562 l 245 581 l 258 589 l 264 589 l 273 603 l 323 618 m 307 503 l 283 494 l 265 503 q 239 484 249 489 q 225 454 237 466 q 208 441 213 441 l 196 441 l 204 427 q 184 385 197 413 l 174 387 l 170 370 l 174 345 l 187 337 q 221 329 193 334 l 243 343 l 288 347 l 311 382 l 343 408 l 347 458 l 336 475 l 335 498 l 319 498 l 307 503 z "},"f":{"ha":553,"x_min":-278,"x_max":734,"o":"m -125 -642 l -94 -590 l -89 -595 l -85 -575 l -60 -533 l -47 -528 l -45 -515 l -28 -498 q -16 -473 -18 -474 l -16 -468 q 3 -433 -12 -465 q 16 -408 11 -410 q 37 -342 23 -369 l 47 -304 l 47 -294 l 57 -279 l 77 -183 l 77 -171 q 85 -150 83 -165 l 97 -64 l 114 -41 l 110 -24 l 114 -11 l 123 46 l 129 58 l 126 78 l 129 83 l 142 138 l 144 160 l 151 179 l 149 204 l 151 210 l 167 207 l 179 252 l 179 269 l 186 311 l 196 314 l 196 336 l 201 346 l 201 378 l 221 431 l 224 443 l 218 456 l 233 485 l 233 497 l 237 511 q 208 526 216 526 l 195 526 l 186 521 l 167 529 l 157 529 l 147 551 l 119 557 l 110 567 l 100 567 l 87 589 l 87 606 l 62 639 l 77 659 l 94 659 q 107 667 96 661 l 110 676 l 117 676 q 140 696 122 686 l 154 696 q 189 642 174 684 l 221 642 l 227 629 l 233 636 l 243 627 l 256 624 l 271 624 l 286 671 l 288 689 l 290 686 l 288 699 l 296 708 l 293 724 l 300 730 q 313 758 307 749 l 306 762 l 318 790 l 322 787 l 325 796 l 328 796 l 328 810 l 338 818 l 343 847 l 338 860 l 353 895 l 363 900 l 363 909 l 390 942 q 416 970 397 947 l 422 970 l 422 974 q 457 989 433 982 l 467 1011 l 486 1017 l 489 1034 l 514 1029 l 517 1039 l 599 1080 l 618 1071 q 665 1078 660 1080 l 717 1057 l 725 1002 l 734 964 l 676 916 l 646 933 l 624 930 l 587 939 l 587 966 l 568 961 l 546 966 l 539 982 l 529 977 l 526 970 l 517 979 l 514 954 l 498 942 q 473 895 488 910 l 473 888 l 457 872 l 454 850 l 439 840 l 439 831 l 432 831 q 425 806 429 818 l 416 810 l 410 796 l 410 787 l 407 787 l 410 778 q 382 708 387 745 l 375 705 l 370 693 l 370 676 l 363 679 l 359 661 l 346 635 q 338 611 338 621 l 343 595 l 355 587 q 369 583 361 583 l 389 582 l 404 566 l 412 566 l 418 568 l 425 566 l 437 568 l 444 559 l 457 564 l 468 564 l 468 574 l 478 579 l 484 575 l 496 579 l 503 564 l 510 578 l 524 561 l 532 571 l 546 568 l 546 574 l 568 571 q 582 576 573 574 l 591 572 l 610 572 l 625 542 l 621 525 l 607 518 q 585 510 595 515 l 578 500 l 559 503 l 549 494 l 536 504 l 532 489 l 517 489 l 507 494 l 493 494 l 484 498 l 468 489 l 457 492 l 447 482 l 435 490 l 428 478 l 415 478 l 412 485 l 399 478 l 374 485 l 340 475 l 328 488 l 309 463 l 296 460 l 293 428 l 290 431 l 290 415 l 275 386 l 281 378 l 275 358 l 275 323 l 268 326 l 268 309 l 261 279 q 245 229 245 246 l 249 210 q 233 179 235 185 l 240 165 l 231 157 l 231 144 l 240 135 l 236 122 l 240 113 l 221 90 l 227 75 l 218 58 l 214 5 l 208 -4 l 211 -14 l 199 -29 l 201 -54 l 201 -64 l 192 -74 l 174 -155 q 158 -187 159 -185 l 161 -197 l 161 -205 q 149 -248 149 -234 l 149 -262 l 142 -269 l 144 -288 l 139 -292 l 142 -304 l 139 -307 l 139 -300 l 132 -322 q 121 -367 126 -351 q 97 -401 115 -383 l 94 -414 l 89 -414 l 85 -424 l 89 -427 l 79 -433 l 82 -439 l 66 -468 l 64 -479 q 41 -509 62 -484 l 41 -521 l 37 -515 q 12 -538 21 -536 l 12 -562 l -12 -607 l -22 -603 q -47 -650 -29 -621 l -61 -665 q -78 -697 -66 -670 l -103 -708 l -103 -715 l -109 -724 l -115 -718 l -135 -753 l -151 -743 l -170 -762 l -170 -758 l -176 -768 l -182 -768 l -186 -775 l -192 -778 l -196 -787 l -201 -785 l -211 -798 l -224 -798 l -231 -810 l -245 -810 l -258 -808 l -267 -801 q -278 -778 -271 -798 l -264 -755 l -243 -746 l -233 -730 l -208 -728 l -201 -711 l -182 -708 l -168 -693 q -129 -668 -161 -686 l -125 -642 z "},"g":{"ha":669,"x_min":14,"x_max":600,"o":"m 416 -374 l 416 -392 l 410 -396 l 412 -414 l 397 -416 l 395 -433 l 400 -446 l 395 -461 l 397 -473 l 375 -538 l 372 -533 q 357 -575 358 -570 l 315 -615 l 306 -632 l 306 -644 l 300 -644 l 293 -660 l 290 -657 l 281 -679 l 265 -685 l 249 -712 q 224 -729 245 -717 l 215 -751 l 191 -764 q 172 -785 186 -766 l 157 -787 l 138 -785 l 129 -798 q 101 -816 114 -806 q 85 -842 89 -826 q 56 -854 63 -849 l 47 -848 l 50 -844 l 31 -832 l 28 -817 q 53 -772 33 -804 l 78 -770 q 94 -741 84 -754 q 158 -724 132 -732 l 172 -699 q 232 -652 216 -667 l 240 -660 l 237 -643 q 271 -603 259 -610 l 268 -595 q 297 -572 272 -585 l 290 -559 l 297 -530 l 315 -509 q 328 -496 318 -502 l 345 -401 q 364 -363 348 -401 l 368 -330 l 379 -306 l 379 -290 l 382 -278 l 376 -265 l 376 -253 l 370 -245 l 372 -231 l 370 -221 l 379 -218 l 372 -192 l 376 -176 l 385 -171 l 379 -149 l 389 -144 l 379 -119 q 372 -92 376 -93 l 379 -79 l 359 20 l 364 41 l 351 149 l 335 158 l 319 151 l 317 154 l 310 144 l 297 144 l 297 129 l 278 123 q 248 114 263 115 l 240 104 l 191 25 l 139 -47 l 123 -60 l 118 -57 l 118 -69 l 104 -85 l 96 -85 l 83 -89 l 83 -102 l 57 -107 l 57 -110 l 49 -107 l 39 -114 l 32 -102 l 39 -82 l 26 -72 l 36 -62 l 29 -57 l 32 -45 l 20 -41 l 22 -35 l 20 -22 l 20 -3 l 26 7 q 17 45 19 42 l 22 50 l 20 60 l 22 75 l 22 94 l 14 97 l 20 107 l 14 126 l 17 126 l 14 136 q 22 151 20 141 l 29 154 l 29 171 q 41 205 41 201 l 32 205 l 36 214 l 41 214 l 57 271 l 68 296 q 77 328 74 309 l 89 343 q 114 407 97 390 l 158 452 l 178 457 q 213 495 183 472 l 250 524 q 269 533 258 530 l 272 542 l 290 542 l 307 558 q 335 574 333 570 l 367 576 l 389 581 l 401 581 l 404 583 l 414 576 l 414 581 l 429 576 l 433 583 l 452 576 l 464 581 l 468 568 l 476 571 l 484 568 l 481 564 l 493 568 l 498 555 l 496 546 l 511 536 q 521 494 519 509 l 524 492 l 546 498 l 550 514 l 568 521 l 581 521 l 600 501 l 566 447 l 546 444 l 528 419 l 518 419 l 524 385 l 521 366 l 511 224 l 505 192 l 505 179 l 486 154 l 493 110 l 489 92 l 484 89 l 493 75 l 484 75 l 476 37 l 484 20 l 473 12 q 461 -45 463 -24 l 454 -50 l 454 -60 l 446 -62 l 452 -82 q 441 -132 452 -119 q 458 -186 448 -162 l 441 -189 l 436 -205 l 429 -205 l 439 -218 l 433 -231 l 429 -231 l 436 -243 l 441 -278 l 439 -290 l 446 -315 l 439 -328 l 429 -328 l 416 -374 m 357 467 l 345 457 l 332 460 l 325 454 l 302 454 l 294 460 l 285 452 l 275 452 q 250 439 261 439 l 237 439 l 205 397 q 186 370 191 371 l 191 353 l 180 330 l 180 328 l 161 325 l 161 281 q 153 233 153 262 q 165 176 153 203 l 158 139 l 168 126 l 180 126 l 191 142 q 228 176 227 172 q 275 208 239 180 l 285 201 q 338 236 307 235 l 354 256 l 342 296 q 357 318 356 315 l 379 330 l 392 353 l 399 359 l 401 370 l 414 382 l 414 395 q 395 432 399 427 l 395 441 l 357 467 z "},"h":{"ha":880,"x_min":49,"x_max":876,"o":"m 446 1109 l 456 1117 l 471 1107 l 484 1109 l 493 1097 l 513 1103 q 534 1088 527 1103 l 559 1040 q 538 1003 559 1003 l 530 1003 l 500 968 l 503 961 l 496 965 q 468 949 489 950 l 468 943 q 392 987 453 962 l 383 981 l 379 987 q 361 953 370 976 q 354 942 354 947 q 357 933 354 939 q 342 914 348 924 l 342 892 q 329 854 338 873 l 326 854 q 317 807 317 831 q 309 791 309 804 q 310 782 309 785 q 301 754 307 766 l 297 754 q 285 728 285 730 l 282 732 l 282 725 q 262 672 267 695 l 254 631 l 254 599 l 257 593 q 248 581 254 587 l 244 583 l 237 568 l 237 539 l 225 517 l 225 479 l 220 454 l 220 425 l 203 353 l 200 302 q 195 298 195 302 q 200 293 195 295 l 197 271 q 220 256 205 256 l 222 265 l 248 300 l 250 300 l 250 306 q 275 340 260 317 q 301 366 289 364 l 314 385 l 319 382 q 329 397 327 391 l 332 395 l 336 410 l 342 407 l 347 420 q 356 431 349 425 l 374 447 l 414 467 l 411 469 l 471 511 l 500 526 q 518 536 508 533 l 541 524 l 562 521 l 570 517 q 575 509 572 515 q 578 501 578 502 l 578 486 l 595 452 l 590 422 l 604 395 l 607 359 l 616 315 l 595 290 l 597 278 q 635 218 635 257 l 629 196 l 642 164 l 639 132 l 644 89 q 637 81 642 85 q 632 75 633 76 q 664 54 646 63 q 680 69 671 64 q 701 89 688 74 l 714 89 l 718 96 l 725 98 l 725 106 l 743 119 q 763 132 751 123 l 786 150 q 804 160 794 151 q 818 172 813 170 l 838 174 l 840 183 l 876 172 l 873 160 l 876 135 q 851 100 855 119 l 848 103 l 842 90 l 829 83 l 827 75 q 786 68 809 71 l 786 62 q 754 52 764 52 l 750 31 l 736 22 q 700 8 720 8 q 669 -20 685 -19 l 650 -41 l 625 -45 l 625 -50 q 585 -62 618 -50 l 582 -69 l 575 -66 q 543 -82 571 -82 q 518 -62 532 -82 q 505 -37 505 -41 l 505 -32 q 500 32 500 14 l 501 39 l 496 57 l 496 92 l 478 117 l 481 139 l 473 218 l 488 268 l 458 302 q 443 353 443 320 l 440 353 q 446 367 446 362 q 421 387 446 385 l 401 378 l 389 378 l 386 366 l 383 370 q 357 335 381 338 l 357 330 q 336 306 336 318 l 338 297 q 336 290 338 293 l 326 288 l 317 265 l 307 258 q 282 221 306 237 q 260 189 278 201 q 232 144 250 161 l 222 107 l 241 92 l 220 69 l 215 69 l 207 45 l 207 22 l 200 12 l 195 -3 q 185 -14 193 -7 l 165 -32 l 158 -28 l 153 -45 l 146 -45 q 121 -60 139 -60 l 118 -82 l 106 -82 l 93 -97 l 74 -94 q 61 -110 69 -102 l 49 -92 q 58 -74 58 -84 q 52 -57 58 -68 q 57 -50 56 -55 q 64 -22 58 -44 l 61 -22 q 66 -4 66 -13 q 64 12 66 4 l 68 12 q 81 69 71 51 q 77 83 77 78 l 81 104 l 81 114 l 90 144 l 93 144 l 93 151 l 103 196 l 106 192 l 103 214 l 109 228 l 121 236 l 109 256 l 121 302 l 121 315 q 127 325 127 319 l 125 338 l 125 340 l 131 340 l 127 378 l 127 387 l 131 395 l 127 395 l 131 419 q 142 447 138 431 q 146 464 146 463 l 146 482 l 158 498 q 167 507 167 500 q 155 542 167 517 l 168 571 l 168 596 l 178 624 l 180 621 l 184 646 l 189 660 l 187 665 q 197 688 187 673 l 193 688 q 197 697 193 693 l 193 700 q 203 720 203 714 l 203 725 l 207 725 q 215 747 210 742 l 225 750 l 225 766 q 231 803 231 789 l 231 825 q 235 842 231 833 l 241 844 l 241 871 l 249 892 q 260 925 260 905 l 260 933 l 272 968 q 279 983 272 977 l 282 983 l 297 1028 q 317 1055 312 1051 q 367 1097 353 1060 q 386 1107 378 1097 l 411 1112 l 431 1109 l 443 1117 l 446 1109 z "},"i":{"ha":493,"x_min":0,"x_max":458,"o":"m 419 937 l 415 937 l 390 884 l 387 886 q 380 873 387 879 l 380 871 q 343 836 366 847 l 338 839 l 338 833 q 297 845 311 837 q 275 870 282 852 q 261 908 268 888 q 278 925 271 922 l 283 943 l 306 956 l 318 982 l 340 994 l 340 990 l 353 985 q 359 989 357 987 q 364 993 361 991 q 380 999 367 996 q 399 1006 393 1002 l 407 1010 l 412 1010 l 422 994 l 422 972 l 425 953 l 419 937 m 321 541 l 318 541 l 313 505 l 318 501 l 309 476 l 306 481 l 306 471 q 281 414 306 441 l 286 414 l 286 401 l 283 401 l 286 322 l 281 313 l 283 300 l 273 250 l 277 250 q 270 212 277 237 l 264 193 l 256 103 q 253 87 253 90 q 264 75 253 75 q 292 85 277 75 l 336 115 q 363 138 355 138 l 367 138 q 389 156 378 143 q 404 171 399 169 q 422 189 414 189 q 428 188 423 189 q 453 183 433 186 l 458 164 q 448 129 458 149 q 430 95 437 109 q 401 74 424 82 l 401 69 l 392 72 l 392 62 l 386 62 q 367 41 384 44 l 367 37 l 349 37 l 349 35 l 342 35 l 323 22 l 318 22 l 309 9 l 281 5 q 268 -3 277 -3 l 233 -28 l 233 -33 l 216 -31 l 221 -37 l 199 -43 l 199 -46 l 189 -46 l 189 -56 l 179 -62 l 176 -62 l 176 -65 q 151 -90 168 -90 l 142 -87 q 114 -37 134 -62 q 119 -5 119 -16 l 114 22 l 114 37 q 118 81 114 58 l 122 98 l 122 102 l 121 102 q 119 103 119 102 q 126 125 119 104 q 132 178 132 145 q 126 187 132 186 l 135 205 l 135 288 l 146 311 q 157 354 151 322 q 167 364 165 359 l 161 372 l 167 386 q 142 407 156 407 l 110 407 q 104 395 104 401 l 100 395 q 82 372 96 376 q 62 351 79 355 l 50 332 l 47 332 q 31 317 43 317 q 8 336 17 317 q 0 358 0 356 q 3 364 0 361 q 45 414 9 394 l 45 419 q 75 441 60 434 l 69 441 q 103 472 98 448 q 139 496 109 496 l 147 493 l 164 501 l 154 501 l 170 511 l 174 509 l 186 524 l 189 521 q 227 541 197 541 q 233 546 233 541 l 233 553 l 239 553 l 236 555 l 258 571 q 293 590 269 590 q 319 582 308 590 q 330 566 330 574 q 321 541 330 557 z "},"j":{"ha":545,"x_min":-309,"x_max":475,"o":"m 392 1035 l 389 1038 l 401 1038 q 433 1028 425 1038 q 446 996 442 1018 l 461 983 l 471 983 q 475 958 471 968 l 471 958 l 471 953 l 465 953 l 468 949 l 453 936 l 458 936 l 458 918 l 461 918 q 446 896 459 901 l 446 889 l 436 884 l 433 886 l 431 879 l 427 879 l 421 873 l 418 879 q 404 873 412 873 q 392 879 397 873 q 371 864 371 878 q 358 857 358 864 l 336 848 l 326 864 q 317 884 317 873 q 336 921 317 895 l 342 918 l 349 933 l 345 933 l 345 956 q 358 981 358 958 q 367 1000 367 989 l 358 1025 q 364 1038 358 1034 q 374 1040 370 1041 l 392 1035 m 379 492 l 379 473 q 374 431 377 448 q 371 407 371 413 l 371 404 l 374 385 l 364 357 l 358 357 l 364 322 l 358 283 l 367 256 q 354 233 354 241 l 358 214 l 354 214 l 354 211 l 358 211 l 358 208 l 351 205 q 354 200 354 203 q 351 190 354 197 q 349 176 349 182 q 354 161 349 168 q 345 149 345 161 l 349 149 l 349 143 q 345 129 349 136 q 350 118 350 124 q 342 110 350 114 l 349 102 q 335 69 335 83 q 336 57 335 61 q 323 41 323 55 l 323 37 q 326 11 326 28 q 319 -16 326 1 q 306 -54 306 -29 q 307 -75 306 -68 l 297 -97 l 294 -97 l 294 -110 q 279 -174 294 -140 l 235 -271 q 222 -296 222 -283 l 220 -296 q 225 -314 225 -303 q 215 -339 225 -320 q 200 -363 205 -358 q 172 -425 174 -399 q 163 -438 172 -427 q 153 -464 155 -449 l 150 -460 l 150 -467 q 133 -495 139 -486 q 121 -529 127 -505 l 111 -536 l 111 -546 l 86 -576 l 83 -586 l 39 -643 l 24 -653 l 21 -650 l -3 -690 q -21 -713 -19 -696 q -65 -741 -50 -714 q -85 -750 -79 -741 l -103 -753 l -107 -765 q -167 -794 -149 -779 l -170 -790 l -172 -794 l -176 -790 l -182 -794 l -186 -790 q -199 -802 -190 -791 q -224 -812 -208 -812 l -233 -810 l -254 -823 l -258 -812 q -289 -785 -283 -797 l -309 -787 l -296 -775 l -293 -750 q -273 -737 -281 -741 l -261 -743 l -241 -741 l -245 -747 l -224 -737 l -176 -730 l -144 -718 l -142 -718 q -82 -684 -98 -707 q -21 -628 -21 -658 q 8 -606 8 -624 l 8 -603 q 14 -604 9 -604 q 29 -593 20 -604 q 17 -583 25 -583 q 33 -571 23 -582 l 26 -574 q 52 -551 39 -557 l 58 -529 l 81 -514 l 78 -498 l 93 -486 q 121 -432 100 -455 l 115 -416 l 131 -397 l 138 -359 l 146 -347 l 153 -330 q 172 -306 155 -322 l 165 -290 l 168 -273 q 191 -233 182 -254 q 200 -201 191 -217 l 200 -183 l 212 -171 l 210 -149 q 220 -119 215 -139 l 215 -117 q 232 -92 230 -109 l 225 -92 l 227 -71 q 241 -28 228 -62 l 228 -7 l 244 28 l 237 47 l 250 82 q 241 111 241 96 q 250 149 241 115 l 235 161 l 235 183 l 232 183 q 203 240 225 218 l 210 240 l 210 245 l 222 271 q 220 286 220 281 q 222 300 220 292 l 210 322 l 222 363 l 220 387 l 224 400 q 232 419 228 414 l 228 419 l 225 432 q 195 424 212 424 q 180 425 184 424 l 160 419 l 138 429 l 118 422 l 111 412 q 109 418 111 418 q 103 407 105 418 l 98 410 l 86 400 q 74 382 84 382 l 71 382 q 58 366 66 366 l 52 370 l 52 366 q 41 361 47 361 q 33 363 36 361 q 24 359 28 359 q -5 387 12 359 l -1 395 l -8 395 l -8 407 l -5 407 q 1 422 -5 417 q 11 439 1 435 l 14 444 l 39 457 l 49 469 l 68 481 q 106 511 78 486 l 106 507 q 150 529 130 524 l 150 524 l 160 529 l 160 524 l 172 536 l 172 533 l 187 533 l 187 529 q 228 539 208 529 l 237 542 l 248 542 l 262 529 l 264 538 l 289 551 l 289 555 l 301 558 q 314 568 314 560 l 317 568 q 358 589 332 589 q 387 568 387 589 l 383 542 l 386 514 l 379 492 z "},"k":{"ha":971,"x_min":-31,"x_max":943,"o":"m 288 555 q 286 532 286 547 q 307 497 286 497 q 317 498 313 497 l 317 510 l 366 534 l 389 561 l 393 557 q 427 586 401 585 l 425 591 q 464 623 448 609 q 500 637 481 623 l 507 632 l 543 647 l 603 664 q 659 686 629 686 l 663 686 l 660 690 q 709 711 677 703 l 741 718 q 771 675 771 718 q 758 665 771 665 l 755 665 l 755 659 l 747 654 l 755 653 l 722 597 l 714 590 l 718 586 l 713 587 q 703 581 703 587 q 707 572 703 576 q 677 524 677 536 l 676 526 l 652 517 q 602 451 610 458 q 587 443 593 443 l 586 443 l 584 437 q 572 421 583 433 q 533 388 560 408 q 473 345 506 368 l 468 304 l 484 288 l 486 265 l 494 256 l 501 211 l 530 178 l 547 136 q 586 98 556 121 l 590 87 l 595 90 q 596 86 595 86 l 599 86 q 616 80 608 81 q 647 66 624 78 l 654 53 l 663 49 l 688 46 q 722 40 698 41 l 721 36 l 743 35 l 765 29 l 783 32 l 794 29 l 793 26 l 831 22 q 846 49 846 37 l 840 75 q 869 106 840 97 l 871 103 l 872 110 l 876 107 l 879 123 l 885 122 l 886 127 q 899 134 892 134 l 901 134 q 924 117 916 130 q 932 92 932 104 l 928 69 l 935 56 l 933 36 l 938 17 q 943 -14 943 -3 q 935 -43 943 -28 l 928 -41 l 911 -58 l 903 -57 l 905 -65 q 876 -74 894 -74 l 850 -74 l 827 -50 q 807 -56 820 -51 q 786 -61 794 -61 q 761 -52 777 -61 q 730 -40 745 -43 l 715 -46 q 673 -36 691 -36 l 667 -36 q 659 -40 663 -40 q 648 -24 650 -40 l 632 -28 q 615 -16 624 -24 l 583 -8 q 576 -9 581 -9 q 564 -4 572 -9 l 558 -7 l 554 4 q 524 20 538 9 l 519 18 q 512 20 516 18 q 503 26 508 22 l 492 35 q 480 43 486 39 q 465 53 474 47 q 451 66 456 59 q 439 82 446 74 q 425 97 432 91 l 421 97 q 412 100 416 97 l 408 123 l 396 127 l 395 132 q 373 161 387 138 q 347 193 359 184 q 368 204 362 198 q 353 216 361 216 q 347 205 347 216 l 332 257 l 335 257 q 321 273 330 272 l 298 309 l 282 300 l 285 265 l 279 231 l 282 208 l 275 208 q 260 143 268 185 q 240 89 252 102 l 235 66 l 220 50 q 210 -5 214 43 q 197 -18 203 -14 l 193 -16 l 183 -35 l 175 -37 l 178 -43 l 170 -43 q 157 -53 168 -53 l 153 -53 q 140 -62 145 -62 q 131 -60 133 -62 l 136 -65 l 127 -65 q 111 -85 111 -69 l 93 -85 l 81 -50 l 52 -43 q 83 -22 62 -22 l 88 1 q 102 20 89 4 l 102 39 q 107 53 106 40 q 115 94 109 66 l 123 102 l 123 111 l 131 129 l 135 126 l 135 136 l 131 134 l 135 135 q 132 139 132 136 q 137 152 132 142 q 153 196 142 162 l 163 203 q 174 252 163 239 q 184 265 184 264 q 178 281 184 267 l 180 297 l 170 315 q 172 346 171 336 q 193 389 174 356 q 204 432 204 400 q 193 454 204 439 l 197 454 l 197 476 l 200 476 q 207 484 207 476 q 204 493 207 485 l 200 493 q 205 511 200 507 l 210 546 l 205 555 q 219 579 212 568 q 227 600 227 590 q 222 612 227 604 q 218 625 218 620 q 228 657 218 637 l 235 657 q 225 700 225 668 l 228 704 l 218 710 q 212 729 212 724 q 218 745 212 739 l 218 757 l 222 757 l 231 786 l 228 786 l 231 802 l 212 814 l 212 864 l 197 859 q 184 861 189 861 q 158 851 172 861 l 158 848 l 153 851 l 143 836 l 121 839 q 111 835 111 839 q 115 823 111 830 l 81 833 l 81 827 l 58 823 l 56 814 l 24 791 l 8 799 l 8 794 l -1 794 l -5 804 l -14 799 l -21 827 l -24 827 l -31 836 l 1 859 q 16 882 7 875 q 46 896 25 890 l 96 911 l 146 916 l 212 946 l 215 956 l 235 965 l 257 965 l 253 981 l 253 990 l 262 997 q 275 990 268 997 l 275 997 l 279 1000 l 282 1007 l 345 1054 l 347 1050 l 363 1050 q 389 1043 382 1050 q 396 1018 396 1036 l 396 1007 l 399 1007 q 379 956 379 964 q 382 940 379 951 l 374 937 l 378 933 l 367 930 l 370 908 l 354 868 l 351 829 l 339 799 l 339 786 l 322 760 l 322 722 l 310 697 l 300 653 l 309 653 l 309 648 q 303 617 309 633 q 297 597 297 602 l 300 575 l 300 553 l 288 555 m 574 583 l 574 581 q 565 578 571 579 q 559 575 559 578 l 547 574 l 547 571 l 525 567 q 503 557 517 561 q 468 539 482 548 q 445 517 454 530 q 425 489 435 504 l 425 493 q 366 440 410 471 q 341 427 348 437 q 334 416 335 418 l 330 418 l 323 416 q 297 378 304 399 q 300 370 300 375 l 298 361 q 307 354 307 361 q 311 355 309 355 q 321 351 317 355 l 329 353 l 372 370 l 382 389 l 397 382 l 415 383 l 418 399 q 432 412 432 399 q 467 428 444 421 l 473 439 l 511 457 l 513 468 l 515 465 q 579 549 552 476 l 595 558 l 600 575 l 600 579 q 593 587 600 587 l 590 587 l 574 583 z "},"l":{"ha":545,"x_min":49,"x_max":461,"o":"m 461 175 q 456 153 456 175 q 438 131 446 142 q 421 115 429 120 l 411 118 q 399 98 401 110 q 392 96 397 96 q 386 103 388 96 q 364 86 378 86 l 364 79 l 358 79 l 351 83 q 339 64 339 75 l 329 64 l 332 68 l 326 68 l 326 61 l 317 49 l 304 49 l 304 46 l 297 46 l 297 41 l 285 39 l 285 36 l 279 39 l 277 33 l 272 39 l 244 24 l 248 21 l 241 21 q 225 8 239 8 q 212 -1 221 -1 l 210 -5 q 181 -22 194 -5 q 160 -40 169 -38 l 155 -33 l 153 -40 l 160 -43 l 150 -43 l 150 -46 q 118 -68 138 -49 q 98 -56 103 -64 l 58 24 q 64 35 64 27 q 58 56 64 45 l 61 56 l 49 90 l 56 90 l 49 98 l 52 103 q 56 107 56 103 l 56 111 l 61 109 l 61 115 l 64 125 l 78 131 l 74 134 q 85 173 83 148 q 90 203 87 198 l 83 215 l 83 232 l 90 254 l 93 250 q 103 275 98 258 q 102 283 102 277 q 102 292 102 290 l 115 304 l 111 319 l 121 332 l 121 336 l 125 332 l 125 345 l 121 349 l 125 349 l 134 374 l 134 376 l 138 374 l 143 414 l 146 414 l 160 456 l 155 453 l 178 513 l 175 513 l 197 543 l 197 559 l 203 575 q 191 587 197 576 l 210 619 l 210 652 l 197 660 q 203 672 197 663 q 197 686 199 684 l 165 733 l 160 736 q 140 729 149 736 l 136 729 q 111 746 119 729 l 118 768 l 115 777 l 134 789 l 131 793 q 162 813 153 798 q 178 838 171 829 q 193 840 186 838 q 203 848 199 843 q 210 859 206 853 l 220 859 l 232 878 l 232 885 l 241 893 q 254 905 250 893 l 250 913 l 257 909 l 267 916 q 280 930 270 926 q 307 945 290 935 q 323 957 309 953 l 323 960 l 339 962 l 339 966 l 389 994 l 389 997 q 406 1007 395 1007 q 424 971 424 1007 l 424 957 l 421 957 l 421 947 q 396 903 421 916 q 387 887 395 893 q 364 863 379 881 l 367 863 q 354 833 356 856 q 345 793 351 811 l 342 796 l 345 783 l 342 783 l 339 781 l 345 775 q 336 760 337 768 q 334 751 336 751 l 332 751 l 319 736 q 332 718 332 728 q 323 711 332 713 l 323 704 l 319 707 l 319 672 l 307 672 l 301 652 l 304 632 l 297 616 l 297 612 l 292 612 l 294 597 l 289 600 l 279 541 l 260 478 l 254 453 q 244 433 244 441 q 248 414 244 427 q 220 317 224 364 l 212 314 l 210 310 q 203 289 208 296 l 200 228 l 207 207 l 203 165 l 222 125 q 207 115 210 125 l 203 115 l 215 103 l 212 93 l 220 93 l 232 81 l 244 93 l 260 100 q 279 115 267 103 l 294 115 l 294 121 l 297 118 q 339 140 317 139 l 336 143 l 358 150 l 358 155 q 389 175 378 159 q 421 193 413 179 l 427 193 l 446 207 l 461 175 z "},"m":{"ha":1213,"x_min":3,"x_max":1185,"o":"m 1175 157 l 1161 149 l 1157 154 l 1157 142 l 1154 144 q 1144 122 1147 125 q 1135 119 1140 119 l 1129 119 l 1129 117 q 1120 110 1129 110 l 1122 107 l 1120 104 l 1117 107 l 1117 102 q 1108 97 1112 102 q 1104 92 1104 93 l 1104 82 l 1095 85 l 1097 79 l 1082 72 l 1040 25 l 1038 28 q 1028 16 1038 17 q 1000 -35 1019 -35 l 967 -28 q 949 -26 954 -26 q 918 -7 943 -25 q 897 -17 911 -8 q 876 3 888 -11 l 879 3 l 879 12 l 886 16 l 879 28 l 900 43 l 872 62 l 869 75 q 880 85 880 81 q 857 122 880 85 q 829 154 836 142 l 832 154 l 829 167 l 839 186 l 839 199 l 840 199 q 842 200 842 199 q 832 227 842 201 l 835 227 l 827 236 q 835 260 835 247 q 807 321 835 280 l 799 343 q 782 410 796 399 q 757 376 757 391 l 758 371 q 741 359 758 359 l 734 359 q 710 322 724 340 l 713 310 l 700 300 q 694 280 699 290 q 684 265 690 271 q 668 240 677 259 l 665 243 l 665 235 l 659 231 l 653 218 q 640 204 640 212 q 643 196 640 201 l 640 196 l 640 191 l 636 191 l 628 168 l 614 161 l 618 146 q 583 92 609 122 l 583 77 q 570 20 578 32 l 567 20 q 554 -4 568 10 q 532 -23 540 -18 q 509 -29 524 -29 l 503 -29 q 497 -28 501 -28 q 473 -45 494 -28 l 469 -54 q 465 -58 467 -58 q 460 -58 463 -58 q 452 -57 452 -58 l 436 -35 l 416 -32 l 410 -16 q 427 22 414 3 l 424 32 q 429 37 429 34 q 427 41 429 40 l 432 62 l 432 66 l 428 72 l 431 79 l 435 75 q 450 94 437 91 l 457 107 l 463 110 q 475 132 470 128 l 472 157 q 479 186 472 169 l 484 186 l 484 189 l 479 192 l 496 253 l 505 271 l 505 296 l 489 306 l 484 322 q 476 338 476 332 l 479 363 q 467 395 479 391 q 452 387 458 389 l 452 385 l 441 372 l 427 372 l 424 363 l 416 363 q 397 328 407 351 q 382 296 387 304 q 350 265 361 279 l 350 258 q 325 236 331 258 l 322 240 l 322 233 l 313 233 q 300 206 309 218 q 281 183 291 195 q 272 174 281 176 q 253 149 269 160 l 246 140 q 240 119 243 136 l 231 114 l 231 110 q 221 102 221 108 l 215 102 q 208 85 215 86 q 183 61 192 75 q 174 45 174 47 l 174 37 q 158 -16 158 17 l 155 -16 l 158 -22 l 149 -50 q 174 -41 168 -41 q 183 -54 183 -41 l 176 -60 l 176 -62 l 168 -79 q 136 -110 145 -97 l 136 -114 l 129 -117 q 109 -161 118 -144 l 79 -176 l 71 -157 q 47 -126 66 -149 q 57 -117 56 -121 q 41 -104 54 -111 l 32 -104 q 11 -101 16 -104 q 4 -82 5 -97 l 7 -79 q 3 -71 3 -75 q 4 -66 3 -68 l 4 -54 l 7 -57 l 7 -47 q 22 -28 22 -42 q 32 -12 27 -24 l 26 -3 q 47 25 47 5 q 66 68 66 37 l 66 75 l 77 82 l 69 92 l 77 102 l 69 104 l 69 114 l 82 139 l 77 139 l 77 144 l 64 151 l 64 164 l 79 221 l 74 236 q 79 253 75 237 l 81 253 q 90 259 88 253 q 92 284 92 265 q 94 315 93 303 l 86 322 l 94 338 l 94 357 l 98 370 q 85 390 85 375 l 86 400 l 69 416 l 29 419 l 26 444 l 45 452 l 41 444 l 47 447 q 60 464 47 460 q 84 485 64 482 q 104 511 104 488 l 109 511 l 121 546 l 126 546 l 126 555 l 129 555 q 158 595 135 578 q 200 618 181 612 q 243 646 227 621 l 262 631 l 258 628 q 328 618 289 620 l 328 615 q 312 610 319 613 q 296 602 304 607 q 286 591 288 597 l 281 576 l 265 574 l 265 555 l 268 555 q 262 546 266 547 l 256 526 q 240 494 240 509 l 243 481 q 240 476 243 476 l 233 476 l 233 472 l 231 472 l 233 460 q 225 447 225 458 l 227 443 q 211 416 227 434 q 199 404 211 404 l 183 390 l 191 375 l 186 350 l 186 330 q 174 325 182 328 l 171 309 q 161 290 171 298 l 164 271 l 155 249 l 143 158 q 155 144 145 144 q 168 155 161 149 q 180 169 174 161 q 192 183 187 177 q 211 199 196 189 l 221 218 l 233 218 q 237 233 237 227 q 245 253 245 241 q 281 283 273 259 l 285 283 q 313 318 292 308 q 326 325 321 318 q 345 347 330 331 l 345 357 l 347 357 l 347 366 q 382 390 378 391 l 382 397 l 385 407 l 392 407 q 389 414 389 412 q 401 432 389 422 l 419 432 q 461 482 421 459 l 464 479 l 464 486 l 467 494 l 471 492 q 480 514 475 512 q 489 517 486 517 q 496 514 491 517 q 507 532 497 532 q 524 524 513 532 l 529 524 q 558 498 553 524 q 597 481 588 497 q 606 457 606 465 q 596 439 606 446 l 593 429 q 602 407 593 418 l 603 390 l 600 390 q 583 359 597 375 l 590 350 l 587 325 l 593 313 q 606 290 593 290 q 618 302 616 290 l 625 315 q 660 357 651 341 l 675 359 l 685 382 l 697 390 q 713 411 711 397 q 743 437 728 414 q 770 460 758 459 l 774 464 q 782 479 780 479 l 786 478 q 789 482 789 478 l 802 489 q 827 511 821 489 q 848 521 843 513 l 856 524 l 864 521 q 896 498 888 521 l 911 501 l 930 472 l 930 457 q 950 387 945 413 l 956 387 q 943 347 954 365 l 953 335 l 943 313 q 950 269 950 288 q 943 240 950 248 l 946 199 l 950 199 l 945 182 l 937 179 l 937 171 q 950 123 937 142 q 977 54 954 54 q 1015 92 984 54 l 1032 94 l 1038 110 l 1050 119 l 1047 123 l 1082 154 l 1101 179 l 1107 179 l 1122 205 q 1131 201 1126 201 q 1152 224 1141 201 l 1154 224 q 1157 225 1157 224 l 1157 227 l 1185 197 l 1175 157 z "},"n":{"ha":917,"x_min":20,"x_max":889,"o":"m 271 624 l 297 621 l 335 625 l 335 578 q 323 559 323 569 q 304 530 304 549 q 306 518 304 522 l 301 492 l 250 400 l 243 355 l 231 339 l 232 304 l 212 212 q 210 207 210 210 q 216 197 210 201 l 248 236 l 265 245 l 279 278 l 306 297 l 338 346 q 393 382 351 366 q 414 415 393 393 q 431 427 416 416 q 457 447 445 439 l 454 452 q 503 488 503 478 q 547 522 537 503 q 618 570 596 567 q 636 576 623 570 q 657 583 648 582 q 694 602 671 602 q 708 582 708 602 l 710 538 l 701 513 l 700 481 l 685 443 l 669 347 q 660 338 667 339 l 668 307 l 659 290 l 675 281 l 669 272 q 656 250 665 268 q 667 237 663 243 l 663 183 l 665 183 q 681 111 672 112 l 710 122 q 762 170 727 150 q 781 178 774 172 q 794 184 791 178 q 816 194 806 192 q 856 212 825 197 l 879 207 q 889 192 887 199 q 849 138 871 170 q 819 107 828 107 l 800 107 l 786 86 l 751 79 l 721 40 l 696 33 l 600 -33 l 571 -62 l 567 -37 l 542 -39 l 533 3 l 519 14 l 518 61 l 511 90 q 525 129 511 127 l 525 132 l 533 164 l 532 208 l 547 239 l 536 252 l 558 277 l 559 329 l 571 354 l 551 380 l 557 382 l 557 401 l 570 408 l 570 412 l 568 424 l 568 427 q 538 437 562 433 l 505 411 l 460 390 l 393 315 l 383 300 q 354 267 353 270 l 340 257 q 338 239 338 243 l 311 208 l 283 168 l 236 93 l 233 93 l 225 74 l 212 29 q 161 -18 184 5 l 139 -24 l 125 -47 l 115 -49 l 97 -45 q 65 -52 82 -45 l 79 -24 l 85 1 q 125 118 111 66 l 127 118 l 127 138 l 142 178 l 147 212 l 150 212 l 143 235 l 150 277 l 155 292 q 174 321 157 298 l 170 339 l 178 351 q 165 411 165 384 l 170 433 l 167 437 l 167 446 q 125 458 148 458 q 109 454 117 458 q 83 418 100 450 q 32 399 39 403 l 20 425 q 27 443 20 437 q 39 449 34 449 l 50 449 l 61 464 l 82 469 l 74 475 l 74 482 l 100 478 l 127 509 l 167 532 l 174 541 l 178 541 l 171 550 q 179 547 176 547 q 184 559 184 547 q 235 591 208 588 q 265 614 243 612 l 265 621 l 271 624 z "},"o":{"ha":586,"x_min":29,"x_max":558,"o":"m 397 625 l 432 625 l 454 615 q 481 579 463 579 q 488 593 488 579 q 526 608 509 608 q 545 601 537 608 q 553 586 552 593 l 558 509 l 554 493 q 547 460 549 477 q 541 432 545 442 q 534 419 536 422 l 479 361 l 486 321 l 472 297 l 465 275 l 422 227 l 401 174 q 347 140 382 153 l 338 102 l 298 77 l 264 35 l 201 -12 l 183 -17 l 113 -74 l 93 -56 q 61 -25 70 -38 q 52 -3 52 -13 q 56 7 52 3 l 62 65 l 33 113 q 29 123 29 119 q 37 142 29 132 l 37 144 l 49 155 l 36 189 l 40 260 l 40 278 l 50 283 q 43 315 43 297 q 52 336 43 326 l 64 336 l 53 346 l 61 361 l 75 397 l 96 422 l 102 441 l 122 469 q 127 486 125 479 l 127 485 q 133 503 127 496 q 149 528 138 509 l 182 545 l 184 554 q 252 587 218 581 l 297 596 l 328 614 l 350 612 l 397 625 m 355 504 l 353 498 q 335 498 340 498 q 319 489 330 498 l 300 497 l 225 456 q 178 405 197 440 q 158 346 158 369 q 164 321 158 332 l 167 321 q 175 264 167 305 l 158 237 l 171 218 l 164 195 q 170 178 164 190 q 175 160 175 166 q 186 136 174 155 l 184 122 q 203 85 184 85 q 243 106 218 85 q 267 125 249 123 l 273 146 q 285 157 285 147 l 285 161 q 292 165 288 163 q 297 168 296 168 q 329 228 305 195 l 334 225 l 332 231 l 353 254 l 379 342 l 383 350 l 392 353 l 393 368 l 393 380 q 403 406 393 385 l 361 439 l 393 452 l 389 489 l 395 503 l 386 498 l 355 504 z "},"p":{"ha":749,"x_min":-142,"x_max":664,"o":"m 355 435 q 406 472 373 459 l 406 476 l 437 498 l 440 494 l 440 501 l 446 504 l 450 501 l 497 536 l 500 533 l 515 549 l 534 551 l 538 558 l 562 568 l 602 568 l 619 574 q 654 526 654 551 l 657 524 l 664 479 l 661 479 q 652 457 655 467 q 636 422 649 448 q 648 404 644 410 l 636 397 l 648 378 l 642 315 l 642 288 l 629 258 l 629 236 l 614 199 q 616 193 616 196 q 607 174 616 187 l 610 174 l 582 104 l 538 57 l 532 41 l 510 35 q 497 19 504 26 q 480 2 490 12 q 460 -8 469 -7 l 437 -12 l 403 -50 l 371 -60 q 357 -70 364 -62 l 339 -89 l 279 -97 l 222 -142 l 187 -142 l 172 -192 l 163 -233 l 160 -265 q 138 -322 140 -313 l 125 -366 l 115 -387 l 113 -419 q 90 -466 98 -441 q 74 -510 82 -490 q 65 -539 65 -529 l 46 -564 l 33 -608 l 4 -648 l -21 -721 l -46 -746 l -54 -786 q -62 -800 -54 -787 q -79 -818 -71 -812 q -100 -823 -87 -823 l -111 -822 l -142 -785 q -110 -743 -124 -780 q -93 -718 -95 -732 q -78 -699 -87 -699 l -75 -699 q -65 -686 -65 -691 l -65 -684 l -71 -676 q -54 -650 -57 -651 l -52 -636 q -29 -606 -50 -631 q -11 -543 -24 -561 q 8 -501 2 -524 l 14 -501 l 24 -467 q 40 -439 40 -452 l 40 -419 l 46 -422 l 40 -395 q 46 -375 40 -386 l 53 -372 q 68 -300 64 -330 l 83 -283 l 81 -265 q 84 -253 81 -264 q 90 -211 88 -242 l 96 -211 q 106 -171 106 -184 q 107 -149 106 -153 q 125 -123 109 -145 l 131 -72 l 140 -28 l 147 110 l 157 129 l 140 161 l 140 192 l 138 218 l 143 256 l 127 325 l 127 353 l 113 357 q 75 325 111 357 l 56 328 l 31 293 q 21 290 26 290 q 9 304 11 290 q 1 340 7 318 q 14 353 12 345 l 21 350 q 53 395 27 378 l 106 429 l 109 439 l 125 439 l 140 457 q 160 472 155 457 l 163 469 l 163 492 q 182 526 182 505 l 184 526 l 216 558 l 222 558 q 252 574 244 558 l 267 576 q 294 571 292 576 q 321 536 309 548 l 311 517 l 321 494 l 286 387 q 298 378 296 378 q 304 385 304 378 l 330 418 q 354 435 343 435 l 355 435 m 500 271 q 492 301 498 279 q 486 335 486 322 l 490 359 l 490 390 q 494 414 494 403 l 493 425 q 478 441 493 441 l 472 439 l 453 412 q 444 406 448 410 q 415 389 439 401 q 375 365 391 376 q 349 338 359 353 l 294 258 q 278 240 286 245 l 254 224 l 252 208 l 248 208 q 254 183 248 194 l 239 151 l 232 79 l 204 60 q 203 41 203 53 q 210 12 203 24 q 204 -12 204 1 q 216 -28 204 -28 q 260 7 232 -28 q 285 -3 273 -3 q 297 2 292 -3 q 323 20 302 7 l 321 22 l 329 22 l 326 25 l 349 32 l 349 35 l 355 35 l 368 45 l 368 47 l 374 47 l 374 50 l 393 54 q 431 92 399 79 q 443 102 434 97 l 456 126 q 485 196 470 170 l 481 218 l 493 240 l 490 258 l 500 271 z "},"q":{"ha":768,"x_min":14,"x_max":1185,"o":"m 397 571 q 415 583 408 575 q 428 574 424 581 q 457 581 448 581 l 460 581 l 492 568 l 510 568 l 514 574 l 534 561 l 534 564 l 547 561 l 557 551 l 574 551 q 578 538 578 546 q 542 476 578 522 l 475 460 l 469 447 l 457 441 l 457 439 l 437 439 l 418 454 l 397 457 l 385 464 q 343 472 380 467 l 343 479 l 306 454 q 267 432 281 446 l 258 412 l 236 387 q 207 338 222 357 l 201 283 l 182 258 l 189 258 l 189 245 q 172 189 189 230 l 179 174 l 170 167 l 167 129 l 147 119 l 160 107 l 164 75 l 172 69 l 207 92 l 245 136 l 267 149 l 286 176 l 330 221 l 368 271 l 425 335 l 465 367 q 481 384 471 372 l 505 410 q 529 447 517 425 l 547 457 l 557 467 q 572 474 564 472 l 591 479 l 602 494 q 616 489 610 489 l 661 501 l 664 479 l 684 464 l 668 457 l 668 444 l 661 432 l 661 425 l 643 407 l 643 385 l 636 370 q 616 318 631 340 l 624 318 l 604 288 l 602 253 q 591 208 595 234 q 574 176 582 201 l 557 176 l 551 164 l 547 164 l 554 158 l 539 114 l 542 97 l 526 66 l 526 20 l 514 -3 l 507 -28 q 475 -102 478 -70 l 469 -158 l 460 -174 l 465 -199 l 463 -205 l 465 -205 l 437 -290 l 431 -302 q 444 -315 440 -309 q 429 -336 441 -323 q 418 -357 418 -349 l 418 -363 q 414 -386 418 -380 l 403 -400 l 397 -419 q 383 -454 383 -446 q 414 -471 383 -471 l 428 -469 l 428 -467 l 435 -464 l 435 -467 l 440 -464 l 440 -460 l 447 -464 l 447 -460 l 457 -464 q 493 -480 472 -484 l 534 -469 l 576 -479 l 631 -476 l 693 -488 l 760 -479 l 787 -482 q 800 -472 795 -482 l 807 -476 l 807 -472 l 832 -479 l 882 -476 l 897 -472 q 928 -481 912 -481 l 937 -479 l 942 -479 l 974 -472 l 974 -467 l 989 -467 l 1031 -457 l 1021 -457 q 1054 -422 1054 -442 q 1053 -408 1054 -414 q 1051 -389 1051 -403 q 1075 -359 1051 -368 l 1075 -357 q 1083 -350 1075 -350 q 1096 -353 1085 -350 q 1118 -313 1111 -318 l 1140 -315 l 1169 -309 q 1185 -338 1175 -326 l 1173 -350 l 1169 -370 l 1150 -387 l 1153 -452 q 1103 -504 1135 -471 l 1075 -517 l 1055 -534 q 1039 -542 1048 -539 l 1018 -549 l 949 -551 l 901 -555 l 904 -551 l 860 -555 l 743 -551 l 677 -555 l 677 -551 q 661 -549 662 -549 l 656 -549 q 637 -551 644 -551 l 631 -551 q 606 -557 620 -556 l 576 -561 l 545 -555 l 534 -561 l 529 -551 l 529 -558 l 488 -558 q 482 -571 488 -566 l 460 -564 q 425 -571 446 -564 l 412 -568 l 397 -574 l 383 -564 l 343 -574 l 328 -574 l 315 -589 l 296 -586 l 281 -589 l 281 -586 q 264 -596 269 -595 q 254 -586 256 -591 q 241 -596 249 -596 q 232 -589 237 -596 q 199 -603 212 -601 q 179 -593 184 -596 l 170 -603 l 147 -603 l 90 -628 q 62 -615 65 -619 l 68 -603 l 65 -583 l 85 -574 l 85 -571 q 122 -551 104 -553 q 150 -542 140 -549 l 157 -546 l 154 -533 l 164 -529 l 160 -533 l 167 -536 q 172 -524 170 -533 l 176 -526 q 182 -517 180 -525 q 214 -494 207 -517 l 220 -494 l 216 -498 l 224 -498 l 227 -494 l 232 -494 q 252 -482 236 -494 l 258 -486 l 258 -482 q 289 -435 271 -478 l 298 -432 l 296 -410 l 306 -382 l 311 -390 l 310 -390 q 328 -370 328 -385 l 340 -357 l 334 -350 l 336 -328 l 349 -318 l 346 -293 q 367 -253 359 -266 q 376 -231 374 -240 q 379 -208 378 -222 q 383 -174 380 -193 l 387 -179 l 393 -167 l 390 -144 l 390 -142 q 412 -117 390 -119 l 415 -114 l 418 -117 l 422 -97 l 418 -82 l 428 -66 l 428 -54 l 440 -45 l 435 -12 l 440 7 l 440 32 l 457 41 l 447 54 l 457 68 q 461 83 460 72 l 465 110 l 478 124 q 488 144 485 132 l 472 186 l 475 211 l 471 222 q 463 261 469 227 l 453 265 l 435 240 l 393 192 q 358 151 367 155 q 311 79 344 102 l 281 57 l 239 12 q 191 -2 204 10 q 166 -26 177 -15 q 129 -60 155 -37 l 122 -57 q 107 -67 116 -63 q 82 -85 99 -71 l 82 -92 l 72 -92 l 60 -97 l 53 -85 q 37 -60 37 -77 l 37 -54 q 14 -24 14 -41 q 21 6 14 -15 q 28 45 28 26 l 31 41 l 28 54 l 31 54 l 40 89 l 53 164 l 62 186 q 64 190 62 186 q 68 196 66 193 l 65 201 l 65 208 q 79 233 68 210 q 90 258 90 255 l 78 273 l 87 278 l 87 288 q 100 302 93 296 l 103 328 l 107 325 l 107 330 l 103 340 l 119 343 l 117 370 l 117 374 q 129 387 117 385 q 142 375 136 383 l 144 387 q 139 395 144 395 l 138 395 l 142 416 q 160 432 151 422 q 188 461 173 448 q 203 474 202 473 q 216 485 206 479 q 245 500 225 490 q 267 524 249 501 l 264 517 l 313 549 q 346 562 325 556 q 383 581 367 567 l 397 571 z "},"r":{"ha":547,"x_min":35,"x_max":596,"o":"m 302 624 q 321 602 319 616 q 302 545 302 582 l 302 534 q 296 521 296 528 q 298 510 296 513 l 302 510 l 298 490 l 286 488 l 281 465 l 277 465 q 286 450 279 454 q 340 493 303 452 l 343 490 l 412 542 l 425 545 l 457 562 l 482 570 q 557 591 506 590 q 587 578 580 578 q 596 572 596 578 q 590 545 596 568 l 561 528 l 545 507 l 497 485 l 479 493 l 467 493 l 467 490 q 378 463 418 471 q 308 365 359 425 q 256 273 257 304 l 252 175 l 225 131 l 228 69 q 219 46 225 58 q 210 26 212 35 q 191 -8 207 17 l 178 -12 q 142 -37 174 -12 l 107 -37 l 92 -43 l 69 -21 q 83 28 69 -1 q 100 71 98 57 q 135 150 109 138 l 142 170 l 139 182 l 144 192 l 126 222 l 126 232 l 122 292 q 135 298 132 298 q 147 292 140 298 l 174 326 l 170 351 l 176 380 l 160 393 l 160 463 l 135 443 l 119 443 l 97 428 l 75 433 l 53 431 q 35 443 35 431 q 55 491 35 463 q 117 542 75 519 l 117 545 l 135 547 q 160 567 146 567 q 178 580 168 570 q 224 607 189 590 l 241 597 l 256 604 l 277 610 l 302 624 z "},"s":{"ha":453,"x_min":-5,"x_max":376,"o":"m 329 696 l 351 690 l 364 671 l 376 665 l 367 631 l 336 612 l 212 553 l 193 519 l 197 482 l 240 418 l 249 389 l 273 392 l 300 367 l 300 342 l 313 336 l 359 248 l 374 227 q 368 192 368 201 l 371 182 l 358 163 l 336 117 q 288 62 296 82 l 269 60 l 267 50 l 180 -17 q 127 -57 145 -52 l 46 -79 q 17 -104 34 -96 l 4 -79 l 4 -64 l -5 -52 l 21 -32 q 33 -14 29 -17 l 39 -8 q 72 1 43 -5 q 97 17 87 17 l 107 17 q 135 41 127 33 l 144 41 l 147 49 l 157 52 l 163 72 l 168 72 l 180 92 l 200 100 l 205 117 l 212 122 l 225 164 l 215 186 l 187 268 l 122 314 q 93 351 106 336 l 87 374 q 72 403 85 385 l 65 406 l 56 432 l 56 441 q 46 475 51 467 l 64 519 l 71 517 l 71 536 l 86 549 l 86 557 q 121 586 111 574 l 134 586 l 134 576 l 146 602 l 146 596 q 172 611 146 600 q 187 624 174 621 q 210 656 208 652 l 222 659 l 232 656 l 237 661 l 260 661 l 260 665 l 298 677 q 326 690 304 677 l 329 696 z "},"t":{"ha":628,"x_min":22,"x_max":646,"o":"m 439 796 q 416 746 439 782 l 416 733 l 401 699 l 401 676 l 382 629 l 382 623 q 392 607 382 607 l 414 614 q 449 602 435 602 l 479 602 q 543 612 522 612 q 597 608 568 612 l 597 604 l 623 602 l 646 574 l 624 546 l 585 541 l 546 519 l 531 517 q 509 505 524 515 l 467 510 q 429 503 463 504 l 359 500 q 319 468 329 479 l 322 433 l 313 418 l 307 368 l 290 346 l 288 286 l 271 277 l 268 260 l 278 225 l 265 100 l 293 -8 l 325 5 q 359 24 334 24 l 372 24 q 422 61 406 35 l 454 71 l 450 74 l 460 86 q 476 103 473 96 l 496 110 l 501 122 q 511 132 511 122 q 571 167 524 153 q 581 154 581 162 q 568 108 581 142 q 536 60 556 74 l 498 33 l 487 18 q 471 4 481 8 l 447 -7 l 428 -12 l 387 -49 l 363 -52 l 332 -77 l 319 -90 q 304 -97 315 -93 l 218 -131 l 199 -134 l 183 -146 l 151 -125 l 142 -83 l 132 -62 q 104 83 127 -52 q 117 107 106 88 l 117 131 l 134 138 l 154 195 l 147 214 q 178 222 176 219 q 180 228 180 224 q 174 244 180 231 l 196 311 l 203 371 l 233 453 q 214 483 231 468 q 180 500 197 497 l 154 484 l 146 484 q 118 488 126 484 q 109 493 109 493 q 93 486 102 493 q 77 472 87 472 l 74 472 q 62 471 71 471 q 36 473 55 471 q 22 519 22 511 q 32 550 22 528 q 53 572 42 572 l 62 571 l 82 576 q 109 582 101 582 l 113 582 q 121 581 115 581 q 133 583 127 581 q 144 586 138 586 q 157 583 153 586 l 182 596 l 189 596 q 208 599 199 596 q 228 627 216 602 l 243 624 q 260 664 245 637 q 272 684 272 665 l 272 692 l 268 686 q 285 726 278 713 l 281 753 l 310 808 q 342 831 322 827 q 387 871 355 851 q 429 890 419 890 q 458 869 453 890 l 439 831 l 439 796 z "},"u":{"ha":964,"x_min":14,"x_max":825,"o":"m 358 643 l 379 618 q 354 564 363 588 l 329 549 l 323 533 l 329 529 l 329 517 l 332 511 l 326 504 l 326 489 l 317 467 l 307 460 q 292 410 296 431 l 277 397 l 272 375 l 277 372 l 260 353 l 260 338 l 254 330 l 262 293 l 254 261 l 260 224 l 267 196 l 267 171 l 272 139 l 267 126 l 267 89 q 294 107 286 97 l 307 104 l 307 114 l 339 144 l 354 154 l 354 161 l 379 183 l 386 205 q 411 224 402 214 l 414 218 l 414 231 l 428 243 l 428 236 l 433 245 l 443 245 l 443 253 l 446 258 l 458 258 l 461 268 l 458 283 l 505 322 q 515 334 513 328 l 522 350 q 547 359 535 357 l 550 370 l 557 375 l 566 375 l 566 387 l 570 378 l 570 390 q 582 404 576 401 l 585 412 l 616 447 l 629 447 l 642 460 l 654 486 q 692 533 687 522 l 711 536 l 729 568 l 724 551 l 749 571 l 764 561 l 783 574 l 808 574 l 821 564 l 825 539 l 814 528 q 799 501 808 524 l 803 489 l 796 467 l 796 457 l 786 447 l 786 429 l 774 425 l 774 390 l 771 375 l 774 359 l 761 347 l 768 330 l 761 318 l 768 288 l 761 271 l 761 151 l 768 126 l 781 117 l 806 119 l 818 107 l 815 92 l 799 85 l 793 69 l 781 66 l 771 50 l 761 50 l 755 35 l 726 25 l 717 7 l 679 0 l 664 -16 l 632 -22 l 616 -12 l 604 28 l 616 45 l 610 57 l 619 69 l 632 72 l 647 167 l 647 179 l 639 196 l 652 201 l 647 214 l 652 231 l 639 236 l 632 245 l 644 256 l 644 271 l 652 288 q 627 302 633 302 l 623 335 l 610 335 l 600 340 l 587 318 l 518 243 l 505 233 l 503 224 l 449 161 l 443 149 l 386 82 l 317 7 l 296 -5 q 282 -22 292 -7 q 250 -35 253 -33 l 250 -41 l 241 -37 l 241 -57 l 222 -69 l 197 -66 l 172 -85 l 168 -75 l 153 -66 l 150 -50 q 134 -28 140 -43 l 118 -22 l 113 -7 l 103 102 l 113 142 l 118 142 l 118 171 l 134 183 l 131 196 l 140 218 l 153 218 l 155 227 l 153 245 l 163 249 l 165 271 l 168 273 l 160 283 l 168 302 l 168 325 l 172 372 l 178 372 l 178 395 l 191 410 l 180 422 l 191 439 l 187 447 l 200 472 l 180 494 l 168 492 l 165 479 l 147 476 l 140 460 l 118 460 l 109 472 l 33 447 l 14 479 l 39 504 q 64 529 58 512 l 86 533 l 86 539 l 106 539 l 131 542 l 147 571 l 172 564 l 200 571 q 210 582 202 576 l 232 582 l 229 586 l 235 589 l 250 589 l 254 596 q 285 618 269 602 l 297 618 l 307 631 l 317 633 l 326 631 l 339 637 l 346 631 l 351 643 l 358 643 z "},"v":{"ha":869,"x_min":14,"x_max":884,"o":"m 836 818 l 846 803 l 843 796 l 863 786 l 878 790 l 884 774 l 880 758 l 868 749 q 859 713 862 721 l 863 699 l 848 696 l 840 667 l 828 661 l 828 648 l 811 639 l 814 610 l 814 597 l 806 591 q 786 538 802 573 l 751 458 l 724 411 l 707 406 l 707 385 l 642 282 l 624 237 l 575 174 l 555 158 l 555 149 l 534 142 l 528 142 l 505 107 l 493 110 l 472 81 q 435 54 446 66 l 421 54 l 408 37 q 367 0 370 8 l 376 -12 l 357 -20 q 332 -37 351 -25 l 332 -54 l 322 -60 l 314 -60 l 303 -74 q 291 -85 297 -82 l 272 -94 l 262 -92 l 250 -97 l 232 -75 q 222 -54 227 -57 l 222 -9 l 200 82 l 212 104 l 178 161 l 187 186 q 175 211 186 199 l 184 227 l 175 245 l 180 245 l 178 261 l 180 278 l 187 281 l 187 302 l 163 322 l 172 322 l 175 328 l 172 347 l 158 350 l 153 366 l 158 370 l 158 407 l 163 412 l 153 416 l 146 441 l 138 447 l 134 444 l 123 452 l 111 444 l 98 444 l 89 429 l 77 432 l 64 416 l 52 419 l 56 410 l 39 400 l 21 416 l 14 444 l 41 479 l 56 476 l 93 511 l 111 521 q 138 536 135 536 l 143 536 l 143 524 l 150 524 l 146 533 l 187 549 l 197 546 l 193 549 l 205 549 l 212 551 l 203 555 l 210 555 l 220 568 l 237 574 l 244 582 l 262 582 l 262 589 l 269 589 l 275 599 l 294 599 l 307 586 q 319 581 319 583 l 314 558 l 319 536 l 301 498 l 304 457 l 301 441 l 310 407 l 310 338 l 318 277 l 319 265 q 326 243 319 261 l 354 174 l 361 167 l 361 144 l 367 126 l 354 104 l 364 89 l 446 161 l 484 192 l 497 233 l 518 239 l 515 245 l 525 254 l 532 252 l 538 283 q 587 343 558 307 l 600 363 l 610 374 l 612 382 q 628 406 612 386 q 653 440 644 427 q 677 489 663 453 l 694 496 l 701 522 l 711 534 q 739 572 720 552 l 739 587 l 749 600 l 751 613 q 757 629 751 619 l 768 646 q 783 661 774 654 l 793 686 l 777 711 l 761 704 l 751 708 l 736 682 l 720 682 l 704 661 l 689 661 l 682 667 l 667 654 l 647 652 l 637 661 l 654 676 l 654 689 q 667 708 665 703 l 682 717 l 701 749 l 707 751 l 720 765 q 742 786 730 772 l 754 786 l 766 808 l 774 803 l 793 808 l 808 806 l 821 808 l 836 818 z "},"w":{"ha":1128,"x_min":35,"x_max":1177,"o":"m 1069 779 l 1100 772 l 1100 766 l 1109 770 l 1127 754 q 1137 737 1132 750 l 1157 745 l 1160 732 l 1173 713 l 1177 668 q 1147 633 1159 644 l 1160 633 l 1164 621 l 1154 608 l 1164 603 q 1145 576 1145 581 l 1129 574 l 1129 558 l 1117 533 l 1107 533 q 1084 514 1098 524 l 1082 492 l 1072 479 l 1063 482 l 1060 464 l 1043 444 l 1043 447 q 1008 412 1015 416 l 1013 404 l 1000 397 l 994 387 q 971 370 990 382 l 960 347 q 939 325 956 339 l 939 313 l 827 199 l 789 149 q 762 117 769 134 q 734 89 760 117 l 722 65 q 706 50 720 60 l 677 28 q 672 -12 675 1 l 663 -12 l 659 -20 l 646 -12 l 608 -32 l 599 -32 l 593 -50 l 581 -45 l 581 -37 l 568 -35 l 571 -41 l 549 -50 l 529 -7 l 517 0 l 521 22 l 507 47 l 511 66 l 517 72 l 517 85 l 524 114 q 507 161 507 134 l 511 196 l 482 224 l 457 258 l 452 283 l 452 288 l 439 306 l 432 306 l 419 271 l 419 233 l 318 142 l 310 125 q 290 102 306 117 l 288 104 l 281 89 l 273 85 l 283 72 l 273 66 l 268 25 l 240 20 l 208 -20 l 192 -35 l 179 -35 l 174 -50 q 144 -7 157 -42 q 119 3 124 -3 q 142 35 125 20 l 139 47 l 151 69 l 154 132 l 144 132 l 158 139 q 139 199 143 176 q 151 236 144 201 q 110 296 132 273 l 104 325 l 110 335 l 110 347 l 119 363 l 114 387 l 96 408 q 89 420 92 412 l 82 439 l 62 432 l 60 425 l 41 425 l 35 447 l 54 469 l 79 514 l 92 521 l 89 524 l 97 524 l 97 526 l 114 529 l 142 558 l 164 558 q 183 576 171 562 l 183 571 l 201 581 l 224 576 l 249 576 l 249 558 l 256 533 l 249 514 l 253 507 l 245 504 l 243 479 l 245 454 l 233 435 l 236 416 l 236 404 l 227 400 l 221 387 l 224 347 l 221 330 l 221 290 l 218 288 l 214 256 l 224 233 l 224 208 l 231 201 l 236 171 l 253 164 q 273 192 267 191 l 273 205 l 283 196 l 290 208 l 290 218 l 300 221 l 306 233 l 318 240 l 315 249 q 343 261 331 252 l 350 278 l 350 288 l 353 296 l 359 293 l 353 309 l 366 309 l 378 322 l 416 375 q 439 385 431 383 l 439 395 l 444 395 l 444 407 l 447 404 l 447 416 l 467 425 l 507 482 l 511 479 l 514 489 l 526 492 l 533 501 l 536 498 l 542 521 l 576 549 l 589 549 l 589 542 l 603 524 l 608 524 l 618 529 l 618 533 l 640 524 l 633 504 l 618 494 l 603 494 l 596 479 l 637 469 l 628 457 l 615 454 l 596 435 l 599 400 l 599 387 l 603 372 l 596 353 l 615 293 l 611 273 l 628 253 l 646 192 l 650 164 l 646 144 l 656 132 l 672 136 q 697 174 696 171 l 705 174 l 710 176 l 720 176 l 722 186 l 725 174 l 725 201 l 757 221 l 785 258 l 830 311 q 854 328 836 318 l 854 338 l 876 357 l 879 366 l 884 363 l 886 372 q 914 395 904 382 l 956 444 l 981 469 l 981 472 l 987 482 l 1003 498 q 1025 524 1018 520 l 1031 542 l 1040 551 l 1065 589 l 1065 618 l 1072 637 l 1035 659 l 1015 656 l 1008 663 l 1006 656 l 988 657 q 953 672 981 659 l 943 665 l 933 668 l 926 659 l 918 659 l 892 637 l 879 643 l 861 624 l 844 624 l 839 637 l 861 646 l 873 685 l 879 688 l 901 728 l 953 750 l 1006 760 l 1015 766 l 1028 766 l 1050 779 l 1069 779 z "},"x":{"ha":729,"x_min":0,"x_max":729,"o":"m 578 675 l 603 675 l 618 672 l 623 665 l 660 643 l 667 634 q 692 618 669 631 l 700 599 l 694 596 l 697 581 l 717 581 l 729 564 l 713 546 q 682 529 691 538 q 663 486 672 495 l 650 489 l 571 429 q 553 416 559 418 l 541 397 l 528 400 l 509 382 q 486 366 490 370 l 473 370 l 471 359 l 467 359 l 467 353 q 427 330 453 340 l 419 313 l 407 302 l 401 281 l 389 273 l 385 256 l 392 224 l 407 211 l 416 176 l 411 174 l 419 158 l 436 149 l 450 134 q 456 130 452 132 l 484 117 l 489 117 l 496 107 l 498 107 q 524 82 511 87 l 530 66 l 555 62 l 561 16 l 549 16 l 546 22 q 521 3 537 9 l 518 -7 l 509 -12 l 511 -32 l 501 -50 q 473 -72 482 -59 l 467 -72 l 444 -89 l 439 -79 l 439 -72 q 407 -45 418 -47 l 407 -25 l 389 0 l 392 22 l 397 25 l 367 66 l 342 94 l 338 126 l 332 136 q 294 186 313 185 l 260 147 l 236 113 l 208 100 l 193 77 l 164 46 l 146 33 l 136 8 l 126 8 l 134 -8 l 117 11 l 111 11 l 102 1 l 98 -11 l 107 -24 l 92 -31 l 82 -21 l 69 -24 l 74 -56 l 47 -52 l 20 -93 l 4 -90 l 0 -78 l 9 -71 l 17 -46 l 9 -39 l 20 -1 l 35 14 l 52 24 q 82 61 64 43 l 91 64 q 107 78 94 65 l 111 78 l 114 90 l 126 100 l 136 104 q 161 129 139 106 l 172 154 l 205 183 l 215 186 q 250 218 226 201 l 253 236 l 262 240 l 262 261 l 250 278 l 245 292 q 238 304 243 300 l 225 318 l 228 407 l 221 407 l 218 416 q 171 460 196 422 l 134 469 l 123 454 l 45 385 l 35 370 l 14 370 l 9 378 l 17 390 q 47 429 32 407 l 52 441 q 65 459 54 446 q 83 479 77 471 q 99 490 89 486 q 134 517 109 494 l 139 514 l 143 526 l 149 526 l 164 542 l 174 546 q 196 568 185 560 l 215 568 l 228 576 l 231 576 l 231 581 q 278 603 269 597 l 278 608 l 310 606 q 329 563 322 586 q 335 536 335 539 l 332 521 q 345 494 345 505 l 342 482 q 357 457 347 469 l 354 435 l 359 397 l 357 378 l 367 372 l 370 359 l 385 350 l 395 357 l 399 366 q 414 378 401 370 q 436 387 427 387 l 441 387 l 461 419 l 471 422 l 546 489 l 546 494 l 533 498 l 533 507 l 521 511 l 521 521 l 501 542 l 473 539 l 454 561 l 461 596 l 493 624 l 505 627 q 528 640 511 628 l 543 640 l 546 646 l 578 675 z "},"y":{"ha":901,"x_min":28,"x_max":804,"o":"m 511 -395 l 518 -424 q 494 -472 500 -451 q 479 -514 488 -494 q 471 -543 471 -534 l 452 -568 l 439 -612 l 410 -653 l 385 -725 l 359 -750 l 351 -790 q 343 -804 351 -791 q 327 -822 335 -817 q 306 -828 318 -828 l 294 -827 l 264 -789 q 296 -747 287 -772 q 313 -722 311 -736 q 328 -703 319 -703 l 330 -703 q 340 -690 340 -696 l 340 -688 l 335 -681 q 351 -654 349 -655 l 354 -640 q 376 -610 355 -635 q 394 -549 380 -567 q 414 -505 408 -530 l 419 -505 l 429 -471 q 446 -443 446 -456 l 446 -424 l 452 -427 q 454 -405 452 -415 q 457 -392 457 -394 l 457 -390 l 479 -315 l 511 -231 l 519 -201 l 529 -192 q 549 -161 544 -162 l 551 -117 l 558 -114 l 558 -97 l 564 -92 l 564 -85 q 583 -45 578 -52 l 576 -26 q 593 16 587 6 l 599 16 l 596 37 l 599 54 l 593 75 l 614 97 l 614 186 l 611 227 l 614 249 l 589 335 l 586 325 l 576 328 l 549 300 l 539 300 l 532 288 l 526 288 l 526 281 l 514 278 l 504 253 q 479 230 482 233 q 472 205 476 227 l 454 199 l 446 188 q 425 174 441 183 l 422 161 l 407 154 l 400 139 l 380 132 l 368 108 q 346 92 366 104 l 338 75 q 302 47 317 63 l 296 50 l 290 35 l 283 35 l 278 25 l 258 25 l 256 12 q 233 -3 237 2 l 229 0 l 221 -9 q 199 -20 208 -12 l 192 -12 l 182 -22 l 167 -25 l 147 -12 l 135 -12 l 126 -3 l 129 75 l 126 186 l 126 201 q 147 227 144 214 l 144 243 q 154 265 144 254 l 151 306 l 164 328 l 161 363 q 170 387 161 375 l 164 435 l 170 439 l 167 460 l 144 476 q 119 439 132 467 l 92 427 q 75 410 87 425 q 53 400 62 408 l 28 435 l 31 457 l 35 447 l 45 457 l 37 457 l 50 467 q 66 488 58 481 q 104 501 75 496 l 107 511 l 107 489 l 114 521 l 186 571 l 245 618 l 273 628 l 315 653 l 330 653 l 341 648 q 363 624 346 646 l 338 593 l 340 583 l 334 571 l 330 526 l 318 469 l 321 467 l 315 454 l 309 452 l 313 439 l 306 395 l 290 375 l 286 240 l 290 214 l 283 201 l 296 144 l 306 144 l 334 176 l 338 186 l 350 189 l 366 208 l 375 211 l 390 227 l 407 240 l 425 245 l 460 290 l 494 315 l 529 359 l 536 359 l 602 422 l 614 439 l 618 432 l 618 482 l 621 504 l 628 511 l 624 511 l 626 525 q 632 538 628 533 l 643 551 l 653 551 l 670 569 q 683 577 675 574 q 700 583 690 580 l 718 583 l 728 589 l 734 571 q 762 583 754 582 l 770 596 l 782 603 l 782 611 l 794 603 l 800 589 q 782 539 783 552 q 804 529 791 533 l 804 521 l 791 514 q 775 482 781 489 l 778 452 l 772 439 l 775 425 l 770 397 l 760 395 l 753 372 l 760 353 q 728 288 728 300 l 728 278 l 722 271 q 710 233 714 235 l 710 224 l 713 221 l 696 208 l 693 161 l 700 143 l 693 110 l 684 92 l 684 79 l 668 41 l 661 45 l 656 32 l 654 20 q 643 0 653 16 l 648 -12 l 643 -28 l 636 -26 l 646 -37 l 643 -50 l 643 -62 l 628 -66 l 631 -72 q 611 -123 617 -93 l 606 -129 l 602 -154 q 583 -183 583 -172 l 586 -211 l 579 -218 l 571 -218 l 574 -249 l 558 -261 l 561 -273 q 542 -315 542 -300 l 542 -322 l 536 -335 l 536 -347 l 519 -366 l 511 -395 z "},"z":{"ha":753,"x_min":-62,"x_max":700,"o":"m 395 659 l 410 659 l 416 656 l 412 650 l 422 656 l 432 656 l 476 646 l 485 640 l 482 646 l 507 650 l 539 643 l 561 650 l 564 650 l 575 647 l 595 650 l 596 643 q 636 656 623 650 q 659 640 651 650 l 685 646 q 699 608 690 618 l 693 593 l 671 583 l 643 564 l 628 536 l 586 504 l 574 501 l 568 486 l 551 482 q 526 447 544 456 l 526 439 l 504 412 l 452 375 l 429 343 l 412 343 l 410 335 q 390 306 391 315 l 363 293 l 350 273 l 338 268 l 300 218 q 273 195 278 201 q 265 179 268 189 q 231 154 241 155 q 201 119 213 130 l 196 123 l 196 110 l 149 79 l 151 41 l 170 45 l 199 35 l 211 37 l 236 25 l 249 32 q 268 7 262 23 l 281 7 l 300 16 l 318 9 l 343 9 l 363 0 l 378 9 l 390 9 l 412 3 l 422 3 l 425 -7 l 444 -7 l 444 0 l 457 3 l 476 -3 l 482 3 l 482 9 l 511 3 l 526 7 l 514 7 q 533 22 524 12 l 533 16 l 539 35 l 539 60 q 583 85 557 76 l 596 102 l 646 126 l 650 117 l 650 114 l 659 114 q 685 132 676 132 l 700 104 l 695 97 q 688 60 693 94 l 675 50 q 650 28 661 32 l 653 22 q 624 0 631 13 q 593 -12 612 -1 l 586 -32 l 576 -25 l 564 -41 l 551 -35 l 536 -50 l 528 -53 q 507 -69 524 -54 l 492 -69 l 479 -75 l 467 -69 l 437 -85 l 419 -79 l 403 -82 l 395 -75 l 366 -82 l 363 -79 l 340 -85 l 321 -85 l 313 -89 l 281 -82 l 189 -82 q 161 -94 174 -85 l 144 -82 l 114 -82 q 82 -72 91 -79 l 62 -75 l 47 -66 l 12 -66 l -12 -82 l -22 -82 l -32 -89 l -60 -62 l -62 -50 q -57 -22 -60 -44 q -45 3 -45 -9 l -45 9 l -37 7 l -35 35 l -12 57 l 47 82 l 85 104 l 79 97 l 97 104 l 104 114 l 110 110 l 110 114 l 136 132 l 174 174 l 189 183 l 192 196 l 196 189 l 208 211 l 221 218 l 224 227 l 239 236 l 243 245 l 245 245 q 281 278 253 257 l 286 273 l 296 283 q 335 328 309 315 l 343 347 l 366 353 l 378 366 l 375 390 l 411 416 q 425 432 416 419 l 432 432 l 441 447 l 441 454 l 476 489 l 485 501 l 489 514 l 494 524 l 494 536 l 479 533 l 469 561 q 452 551 456 555 l 447 561 l 437 555 l 353 555 l 347 546 l 296 549 l 290 551 l 273 551 l 265 549 l 261 549 l 249 536 l 243 536 l 239 529 l 231 529 l 218 526 l 218 521 l 204 521 l 214 507 l 211 498 l 218 476 l 211 464 l 201 460 l 192 444 l 189 452 q 161 416 173 435 l 122 404 l 107 412 l 117 432 l 114 457 l 117 479 l 126 486 l 139 482 l 149 494 l 132 533 q 154 576 138 565 l 221 624 l 233 624 l 233 631 l 273 650 l 325 650 l 343 646 l 338 653 l 368 653 l 395 659 z "},"{":{"ha":753,"x_min":192,"x_max":732,"o":"m 428 539 q 410 521 416 525 q 398 515 405 517 q 385 513 391 513 q 361 503 379 513 q 389 478 370 482 l 406 450 l 401 424 l 408 403 l 396 389 l 401 374 l 399 359 l 393 358 q 395 340 395 352 q 386 321 395 327 q 378 296 386 307 l 383 286 l 379 275 q 363 232 363 256 l 364 221 q 347 189 347 202 l 349 183 l 345 186 l 350 151 l 354 151 l 350 139 l 353 139 l 355 107 l 350 106 l 353 104 l 347 97 l 345 100 l 346 86 l 346 57 l 361 39 l 361 20 l 364 22 l 354 5 l 358 7 l 372 -16 l 376 -17 l 375 -25 l 387 -29 q 406 -43 391 -41 l 436 -47 q 469 -57 453 -57 l 481 -56 l 482 -61 l 492 -61 l 496 -57 q 515 -86 515 -71 l 515 -98 q 498 -107 503 -101 q 439 -119 459 -119 q 425 -117 431 -119 l 387 -97 l 345 -85 l 311 -57 l 286 -53 l 262 -33 l 243 20 l 239 77 q 233 86 233 81 l 239 104 l 236 125 l 249 160 l 248 174 q 258 216 248 198 l 268 233 l 278 264 q 300 311 300 286 q 298 322 300 318 l 294 343 q 310 386 294 345 l 302 407 l 315 411 l 304 440 q 294 460 294 450 l 296 468 l 281 482 l 268 478 l 258 496 q 237 486 247 486 q 224 492 229 486 l 205 492 l 192 503 q 237 545 199 553 q 257 543 248 543 q 283 555 273 543 l 286 545 l 306 554 q 319 551 314 551 q 344 564 333 551 q 355 606 355 577 l 355 621 l 366 632 l 366 656 q 379 697 379 680 l 379 710 q 385 722 379 715 l 392 751 l 397 783 q 419 843 410 814 q 467 900 437 858 l 467 901 q 478 920 467 903 q 522 960 490 936 l 517 964 l 536 972 l 546 996 l 618 1011 l 684 1029 q 703 1034 696 1034 q 720 1027 707 1034 q 732 1011 732 1021 l 730 1003 l 730 987 l 729 974 q 718 947 729 970 l 690 954 l 684 965 l 661 957 l 640 960 l 624 956 q 581 920 606 940 q 559 889 580 907 q 539 865 539 872 l 541 851 l 524 835 l 513 833 l 515 827 q 510 786 511 821 l 496 768 l 497 753 q 456 652 456 672 l 456 647 q 439 595 443 602 q 436 575 436 589 l 436 564 q 425 547 425 553 q 428 539 425 541 z "},"|":{"ha":694,"x_min":304,"x_max":390,"o":"m 304 1061 l 390 1061 l 390 -328 l 304 -328 l 304 1061 z "},"}":{"ha":753,"x_min":43,"x_max":576,"o":"m 340 374 q 390 400 358 400 l 407 410 q 380 435 399 431 l 363 464 l 367 490 l 359 511 l 374 525 l 367 539 l 371 554 l 376 555 q 374 575 374 571 q 382 591 374 585 q 392 618 382 606 l 385 627 l 390 639 q 406 681 406 656 l 404 693 q 421 725 421 712 l 419 730 l 425 728 l 418 762 l 414 761 l 419 775 l 416 775 l 412 807 l 419 808 l 415 810 l 421 817 l 425 814 l 422 827 l 424 857 l 407 875 l 408 895 l 404 892 l 414 907 l 411 907 q 393 930 396 929 l 395 939 l 380 942 q 364 957 378 955 l 332 961 q 298 971 315 971 l 289 970 l 288 974 l 278 975 l 273 970 q 253 999 253 984 l 253 1011 q 284 1019 264 1017 q 326 1028 304 1022 q 363 1034 349 1034 q 375 1031 370 1034 l 412 1011 l 456 999 l 490 971 l 492 975 l 505 947 l 526 895 l 529 838 q 534 828 534 836 q 529 808 534 819 l 532 789 l 521 754 l 521 697 l 501 681 l 501 650 q 479 603 479 627 q 481 591 479 595 q 453 528 471 578 l 467 507 l 453 503 l 456 473 q 464 456 464 467 q 463 444 464 448 l 488 432 l 501 435 l 511 418 q 532 428 523 428 q 546 422 541 428 l 562 422 l 576 410 q 533 369 570 362 q 513 371 521 371 q 486 358 496 371 l 482 370 l 463 359 q 443 364 452 364 q 412 309 412 364 l 412 292 l 404 282 l 404 258 q 389 216 389 232 l 390 204 q 387 195 390 202 q 380 175 383 188 q 371 131 378 161 q 349 69 358 100 q 301 12 332 56 l 301 11 q 287 -11 301 7 q 248 -46 272 -28 l 253 -52 l 233 -60 l 224 -82 l 195 -90 l 183 -98 l 118 -115 q 98 -119 106 -119 q 81 -113 90 -119 q 57 -94 57 -111 q 58 -86 57 -89 l 43 -71 l 45 -46 l 77 -39 l 90 -52 l 109 -43 l 129 -47 q 151 -39 142 -47 q 187 -7 159 -31 q 210 23 189 6 q 231 47 231 40 l 229 61 l 244 78 l 256 79 l 253 86 q 258 126 257 92 l 272 144 l 271 161 q 313 262 313 242 l 313 267 q 329 318 326 312 q 332 338 332 325 l 332 349 q 343 366 343 359 q 340 374 343 371 z "},"~":{"ha":1157,"x_min":121,"x_max":1038,"o":"m 1038 514 l 1038 425 q 775 328 901 328 q 699 336 736 328 q 578 375 662 345 q 454 413 495 405 q 382 421 414 421 q 121 313 273 421 l 121 403 q 383 501 264 501 q 480 489 434 501 q 621 443 526 477 q 777 408 715 408 q 1038 514 888 408 z "},"":{"ha":1104,"x_min":-28,"x_max":1187,"o":"m 676 1025 l 708 1021 l 724 996 l 721 965 q 725 950 723 956 q 730 908 726 943 l 736 892 l 736 867 l 751 851 l 751 842 l 774 665 l 781 665 l 790 653 l 768 653 q 790 576 781 616 l 812 568 l 833 586 l 856 576 l 865 576 l 868 574 l 872 576 q 900 571 875 574 l 935 596 l 989 593 l 991 603 l 1026 593 l 1086 608 l 1099 621 q 1116 631 1105 628 l 1143 640 l 1156 621 l 1178 621 l 1187 593 q 1162 554 1175 566 l 1156 558 l 1101 501 l 1074 482 l 1007 482 l 970 472 l 937 479 l 872 452 l 868 454 l 828 437 l 838 290 l 840 290 l 840 283 l 831 273 l 840 265 l 843 233 l 850 227 l 843 214 l 856 196 l 863 142 l 872 129 l 882 132 l 885 123 l 884 114 l 875 114 l 878 35 q 852 0 865 14 l 828 -3 l 821 -22 l 803 -20 l 806 -37 l 795 -51 q 758 -77 790 -57 l 734 -57 q 725 -42 730 -54 l 717 -22 l 717 16 l 704 75 l 699 85 l 704 123 l 699 157 l 711 183 l 696 239 q 704 273 702 252 l 699 283 l 704 313 q 696 363 704 325 l 708 390 l 704 435 l 684 447 l 669 441 l 669 447 l 639 444 l 642 425 l 627 429 l 610 425 l 606 422 q 545 407 574 407 l 525 410 l 485 397 l 443 390 l 440 372 l 411 385 l 411 372 l 406 372 l 386 353 l 358 353 l 368 325 l 342 330 l 301 306 l 292 296 l 269 302 l 244 283 l 220 283 l 220 265 l 195 261 l 184 239 l 172 227 l 155 183 l 160 179 q 138 154 158 173 l 135 117 l 115 102 l 118 94 l 109 94 l 109 79 l 86 62 l 86 57 q 71 32 81 52 l 65 32 l 49 -16 l 43 -7 l 43 -12 l 26 -25 l 22 -38 q 8 -57 21 -45 l -17 -47 q -24 -35 -21 -36 l -21 -25 l -21 -20 l -17 -7 q -26 45 -24 6 l -17 40 l -24 47 l -24 57 l -21 60 l -26 77 l -21 89 l -28 104 l -24 110 q -26 151 -25 125 l -14 161 l 24 132 l 46 132 l 125 231 l 113 239 l 115 253 l 90 243 l 86 236 l 81 239 l 65 231 q 36 224 58 227 l 14 253 q 43 300 30 294 q 65 330 43 307 l 81 335 l 78 338 l 103 372 l 106 372 l 165 385 l 172 372 l 184 375 l 187 372 l 195 372 l 200 385 l 220 382 l 220 387 l 235 400 l 225 416 l 237 435 l 269 447 l 267 454 l 271 465 q 292 486 272 469 q 319 546 304 538 l 314 546 l 346 586 l 349 583 l 396 659 l 393 659 l 411 685 l 415 685 l 453 754 l 458 754 l 490 807 l 500 810 l 515 839 q 528 869 518 842 l 550 886 l 550 889 l 562 921 l 570 924 l 572 949 l 582 949 l 585 958 l 587 958 l 595 974 l 648 1006 l 676 1025 m 570 822 l 547 817 l 547 807 l 525 785 l 518 785 l 488 741 l 485 741 l 463 697 l 463 690 l 454 678 q 443 667 450 671 l 424 656 l 415 633 q 408 586 411 624 l 396 589 l 393 571 l 368 551 l 371 549 l 371 533 l 349 524 l 331 474 q 321 452 326 460 l 304 429 l 307 425 l 307 422 l 314 419 l 354 419 l 371 410 l 424 441 l 468 444 l 471 435 l 475 452 l 500 452 l 545 464 l 557 460 l 585 469 l 585 472 l 627 486 l 627 489 l 679 501 l 679 517 l 661 533 l 661 586 l 676 621 l 661 631 l 642 621 l 616 656 l 652 659 l 652 668 l 610 677 l 614 688 l 602 703 l 610 715 l 587 750 l 591 757 l 597 760 l 587 770 l 579 817 l 570 822 m 883 1289 l 940 1261 l 953 1232 l 982 1189 l 949 1164 l 943 1150 l 912 1132 l 908 1135 l 908 1125 q 848 1095 890 1101 l 839 1078 l 811 1122 l 766 1160 l 770 1194 q 798 1219 785 1217 l 811 1239 l 814 1236 q 836 1251 817 1242 l 839 1249 q 854 1274 841 1267 l 883 1289 m 501 1261 q 514 1271 503 1271 q 546 1236 530 1271 l 568 1236 l 596 1217 l 622 1169 l 571 1129 l 501 1059 l 492 1053 q 467 1087 478 1058 l 454 1090 l 422 1166 l 410 1172 l 418 1191 q 429 1207 422 1201 l 438 1210 q 464 1232 441 1211 q 477 1238 473 1232 q 498 1264 481 1244 l 498 1261 l 501 1261 z "},"":{"ha":1104,"x_min":-28,"x_max":1187,"o":"m 676 1025 l 708 1021 l 724 996 l 721 965 q 725 950 723 956 q 730 908 726 943 l 736 892 l 736 867 l 751 851 l 751 842 l 774 665 l 781 665 l 790 653 l 768 653 q 790 576 781 616 l 812 568 l 833 586 l 856 576 l 865 576 l 868 574 l 872 576 q 900 571 875 574 l 935 596 l 989 593 l 991 603 l 1026 593 l 1086 608 l 1099 621 q 1116 631 1105 628 l 1143 640 l 1156 621 l 1178 621 l 1187 593 q 1162 554 1175 566 l 1156 558 l 1101 501 l 1074 482 l 1007 482 l 970 472 l 937 479 l 872 452 l 868 454 l 828 437 l 838 290 l 840 290 l 840 283 l 831 273 l 840 265 l 843 233 l 850 227 l 843 214 l 856 196 l 863 142 l 872 129 l 882 132 l 885 123 l 884 114 l 875 114 l 878 35 q 852 0 865 14 l 828 -3 l 821 -22 l 803 -20 l 806 -37 l 795 -51 q 758 -77 790 -57 l 734 -57 q 725 -42 730 -54 l 717 -22 l 717 16 l 704 75 l 699 85 l 704 123 l 699 157 l 711 183 l 696 239 q 704 273 702 252 l 699 283 l 704 313 q 696 363 704 325 l 708 390 l 704 435 l 684 447 l 669 441 l 669 447 l 639 444 l 642 425 l 627 429 l 610 425 l 606 422 q 545 407 574 407 l 525 410 l 485 397 l 443 390 l 440 372 l 411 385 l 411 372 l 406 372 l 386 353 l 358 353 l 368 325 l 342 330 l 301 306 l 292 296 l 269 302 l 244 283 l 220 283 l 220 265 l 195 261 l 184 239 l 172 227 l 155 183 l 160 179 q 138 154 158 173 l 135 117 l 115 102 l 118 94 l 109 94 l 109 79 l 86 62 l 86 57 q 71 32 81 52 l 65 32 l 49 -16 l 43 -7 l 43 -12 l 26 -25 l 22 -38 q 8 -57 21 -45 l -17 -47 q -24 -35 -21 -36 l -21 -25 l -21 -20 l -17 -7 q -26 45 -24 6 l -17 40 l -24 47 l -24 57 l -21 60 l -26 77 l -21 89 l -28 104 l -24 110 q -26 151 -25 125 l -14 161 l 24 132 l 46 132 l 125 231 l 113 239 l 115 253 l 90 243 l 86 236 l 81 239 l 65 231 q 36 224 58 227 l 14 253 q 43 300 30 294 q 65 330 43 307 l 81 335 l 78 338 l 103 372 l 106 372 l 165 385 l 172 372 l 184 375 l 187 372 l 195 372 l 200 385 l 220 382 l 220 387 l 235 400 l 225 416 l 237 435 l 269 447 l 267 454 l 271 465 q 292 486 272 469 q 319 546 304 538 l 314 546 l 346 586 l 349 583 l 396 659 l 393 659 l 411 685 l 415 685 l 453 754 l 458 754 l 490 807 l 500 810 l 515 839 q 528 869 518 842 l 550 886 l 550 889 l 562 921 l 570 924 l 572 949 l 582 949 l 585 958 l 587 958 l 595 974 l 648 1006 l 676 1025 m 570 822 l 547 817 l 547 807 l 525 785 l 518 785 l 488 741 l 485 741 l 463 697 l 463 690 l 454 678 q 443 667 450 671 l 424 656 l 415 633 q 408 586 411 624 l 396 589 l 393 571 l 368 551 l 371 549 l 371 533 l 349 524 l 331 474 q 321 452 326 460 l 304 429 l 307 425 l 307 422 l 314 419 l 354 419 l 371 410 l 424 441 l 468 444 l 471 435 l 475 452 l 500 452 l 545 464 l 557 460 l 585 469 l 585 472 l 627 486 l 627 489 l 679 501 l 679 517 l 661 533 l 661 586 l 676 621 l 661 631 l 642 621 l 616 656 l 652 659 l 652 668 l 610 677 l 614 688 l 602 703 l 610 715 l 587 750 l 591 757 l 597 760 l 587 770 l 579 817 l 570 822 m 741 1303 l 750 1303 q 772 1290 760 1299 q 798 1265 784 1280 q 838 1220 812 1251 q 866 1180 863 1190 l 872 1155 q 859 1131 859 1145 l 840 1109 l 844 1109 l 812 1069 l 782 1046 l 750 1016 q 694 999 718 1009 l 660 1005 l 627 999 l 612 1013 l 587 1019 q 563 1067 570 1055 q 549 1097 556 1080 q 539 1166 543 1114 l 547 1162 l 550 1183 l 553 1180 q 574 1202 557 1200 l 570 1211 l 574 1213 l 581 1213 l 581 1224 l 587 1221 q 599 1237 591 1237 q 604 1234 600 1237 l 608 1245 q 618 1252 616 1247 l 622 1245 l 627 1248 l 627 1255 q 640 1265 627 1265 l 646 1261 l 646 1265 l 657 1265 l 660 1276 l 664 1273 q 673 1286 672 1278 l 680 1284 l 692 1286 q 707 1282 700 1282 q 722 1289 713 1282 l 741 1303 m 720 1225 l 673 1202 q 625 1126 625 1178 q 659 1082 625 1086 l 659 1080 l 680 1077 l 680 1080 l 688 1080 l 707 1084 q 734 1106 715 1103 q 741 1119 734 1113 l 741 1123 l 742 1120 l 757 1139 l 757 1143 q 771 1163 771 1152 q 752 1195 771 1177 l 720 1225 z "},"":{"ha":999,"x_min":49,"x_max":985,"o":"m 379 26 l 376 14 l 376 -8 l 372 -4 q 366 -47 372 -42 l 368 -89 l 358 -104 l 375 -129 l 387 -123 l 415 -129 l 425 -139 l 444 -136 l 460 -161 l 473 -175 q 484 -191 482 -183 l 492 -214 l 485 -211 l 475 -224 l 475 -214 l 465 -227 l 457 -227 q 431 -245 439 -245 l 428 -256 l 415 -261 l 412 -281 l 403 -265 l 397 -283 l 397 -293 l 378 -293 l 375 -302 l 363 -306 l 368 -322 l 355 -322 l 353 -335 l 323 -350 l 321 -363 l 309 -357 l 315 -370 l 298 -372 l 298 -375 q 277 -395 281 -393 l 261 -390 l 258 -407 l 241 -407 l 220 -382 q 232 -347 231 -366 q 283 -313 242 -338 l 296 -306 l 309 -291 q 334 -273 315 -283 l 338 -261 l 347 -253 q 373 -231 363 -243 q 397 -192 383 -220 l 385 -179 l 372 -184 l 375 -176 l 359 -179 l 347 -176 l 347 -182 l 334 -172 l 330 -179 l 315 -176 l 264 -143 q 289 -104 276 -132 l 283 -92 l 302 -57 l 313 -7 l 279 18 l 191 33 l 182 49 l 125 68 l 93 103 l 83 140 l 68 153 l 49 197 l 49 232 l 58 245 l 54 261 l 58 279 l 78 317 l 68 346 l 78 351 l 90 386 l 86 424 l 109 433 l 109 458 l 121 458 l 127 488 l 131 488 l 138 497 l 131 503 l 138 503 l 140 511 l 140 542 l 182 572 l 178 579 l 207 619 l 210 619 l 220 639 l 237 644 l 237 657 l 244 657 l 248 673 l 279 711 l 285 714 l 289 721 q 304 739 304 736 l 311 743 l 323 765 l 371 808 l 393 836 q 407 848 399 843 l 428 860 l 431 869 l 465 882 l 463 888 q 490 904 478 901 l 490 907 l 500 922 l 525 932 q 575 966 558 961 l 619 982 l 632 977 l 647 982 l 652 982 l 669 977 l 673 960 l 682 964 l 686 960 l 686 951 l 696 925 l 701 825 l 699 825 l 701 822 l 686 753 l 682 761 l 676 726 l 679 713 l 667 696 l 664 696 l 663 685 l 668 665 l 661 642 l 661 636 l 644 636 l 632 604 l 632 602 l 629 602 l 595 559 l 582 554 l 575 538 l 562 545 l 566 522 l 559 513 l 547 513 l 545 519 l 515 532 l 503 559 l 505 582 l 510 585 l 554 704 l 585 741 l 591 781 l 582 852 l 546 863 l 518 860 l 500 850 l 497 850 l 484 831 l 433 800 l 414 803 l 399 783 l 401 781 l 401 778 l 386 774 l 383 761 q 339 724 365 747 q 314 692 336 718 l 314 689 l 298 679 l 298 673 l 282 667 l 282 657 l 279 657 l 248 610 l 252 604 l 212 528 l 197 522 l 197 515 l 205 515 l 201 484 l 192 465 l 179 408 l 165 396 q 155 314 157 321 l 174 301 l 170 254 l 179 210 q 201 154 199 180 l 221 164 l 241 140 l 277 110 q 336 100 312 102 l 367 117 l 376 104 l 436 119 l 453 111 l 456 117 l 545 143 l 557 143 l 604 175 l 647 187 l 679 200 l 721 229 l 730 229 l 746 241 l 808 304 l 828 317 l 818 351 l 778 371 l 781 386 l 925 450 l 929 456 q 957 468 953 463 l 966 468 l 977 443 l 985 443 l 977 406 l 966 406 l 954 380 l 954 386 l 947 380 l 940 357 l 909 326 l 907 334 q 880 298 885 301 l 880 289 l 850 269 q 840 260 845 263 l 825 260 l 821 252 q 799 225 807 246 l 755 204 l 751 200 l 749 204 q 726 184 736 198 l 721 184 l 711 172 l 704 175 l 701 163 l 676 160 l 663 146 q 629 127 657 140 l 629 125 l 619 127 q 597 115 610 126 l 595 100 l 582 103 l 570 96 l 570 93 l 545 93 q 508 67 526 75 q 436 49 489 60 l 436 40 l 406 43 l 406 31 l 389 33 l 383 31 l 383 26 l 379 26 z "},"":{"ha":945,"x_min":-47,"x_max":896,"o":"m 823 889 l 828 885 l 785 829 l 781 822 l 750 807 l 733 814 q 699 789 717 795 l 686 791 l 673 772 l 659 766 l 635 782 l 628 802 l 582 791 l 551 804 l 498 794 l 447 794 q 433 732 442 751 l 437 725 l 429 677 l 419 643 l 419 616 l 412 610 l 416 597 l 526 589 l 582 600 l 629 587 l 656 618 l 697 618 l 703 606 l 725 596 l 725 576 l 713 566 q 694 530 708 561 l 659 505 l 635 494 q 600 489 622 489 l 524 498 l 485 492 l 456 482 l 425 486 l 408 482 l 390 482 l 385 479 l 372 447 l 364 419 l 347 390 l 329 288 l 317 179 l 304 151 l 302 75 l 315 66 l 364 60 l 385 47 l 412 47 l 427 39 l 447 45 l 468 37 l 530 46 l 561 45 l 567 50 l 599 50 l 627 60 l 653 57 l 660 62 l 717 79 l 707 102 l 714 117 q 742 186 728 161 l 777 183 l 802 199 l 840 199 q 890 151 856 177 l 896 114 l 896 102 l 884 85 l 884 72 l 868 62 l 868 47 q 806 16 849 24 l 800 4 q 789 -7 796 -3 l 771 -20 l 697 -22 l 664 -45 l 614 -45 l 602 -37 l 591 -45 l 579 -32 l 519 -50 l 489 -50 l 479 -60 l 441 -53 l 395 -66 l 372 -62 l 355 -72 l 317 -66 l 265 -72 l 245 -66 l 233 -94 l 221 -110 l 218 -119 q 200 -142 216 -123 l 200 -149 q 178 -179 185 -164 l 143 -192 l 100 -221 l 87 -189 l 96 -167 l 94 -142 l 118 -107 l 142 -97 l 155 -60 l 121 -50 l 113 -57 l 96 -45 l 35 -45 l 25 -57 l -17 -54 l -43 -12 l -43 20 l -45 20 l -47 41 l -32 47 l -26 60 l 3 83 l 35 83 l 64 94 q 125 81 87 94 l 155 92 q 208 79 178 92 l 216 97 l 212 114 l 237 248 q 252 300 239 261 l 248 318 l 260 343 l 281 472 l 257 511 q 292 551 266 528 l 286 583 l 294 586 l 309 618 l 304 633 l 315 656 l 300 677 l 309 703 l 302 720 l 302 745 l 313 760 l 300 772 l 300 807 l 252 817 l 239 817 l 153 796 l 104 804 l 92 785 l 65 782 l 43 822 l 52 839 l 61 842 l 69 857 l 104 886 l 129 886 l 142 911 l 151 908 q 174 926 161 918 l 186 926 l 204 921 l 245 918 l 290 924 l 304 914 l 304 918 l 313 924 l 338 914 l 339 921 l 385 930 l 378 933 q 425 953 409 951 l 419 933 l 429 928 l 472 939 l 482 926 l 534 918 l 547 908 l 558 911 l 564 896 l 615 911 l 615 901 l 639 899 l 668 908 l 737 895 l 799 950 l 815 957 l 839 957 l 856 946 l 859 925 l 833 889 l 823 889 m 696 1315 l 673 1263 l 646 1238 l 623 1225 l 614 1211 l 572 1187 l 517 1161 l 518 1154 l 426 1089 l 426 1078 q 398 1048 418 1076 l 374 1053 l 357 1083 l 361 1109 l 376 1105 l 382 1121 l 394 1121 l 399 1135 q 415 1156 401 1141 l 414 1162 q 445 1180 429 1171 q 471 1217 461 1190 l 494 1223 l 511 1243 l 512 1265 l 529 1272 l 532 1282 l 541 1282 l 537 1292 l 547 1312 l 557 1316 l 557 1326 l 559 1333 l 589 1343 l 593 1371 l 616 1365 l 633 1388 q 671 1361 663 1376 l 696 1315 z "},"":{"ha":1118,"x_min":21,"x_max":1215,"o":"m 1086 1028 l 1092 1025 l 1108 1025 l 1171 981 l 1215 933 l 1140 879 l 1131 867 l 1079 854 l 1054 857 l 1032 873 l 1019 873 l 962 757 l 937 728 l 935 697 l 913 656 l 903 624 l 890 606 l 885 561 l 876 537 q 859 517 875 533 l 859 501 l 850 472 l 856 454 q 838 410 846 422 l 840 385 l 831 353 l 838 347 l 838 330 l 850 318 l 843 296 l 850 245 l 846 245 l 843 208 q 872 164 843 197 l 865 154 l 878 139 l 885 75 l 868 60 l 868 41 l 859 20 l 850 20 l 821 -22 l 796 -20 l 774 -46 l 733 -75 l 704 -22 l 704 32 l 694 79 l 699 102 l 660 158 l 669 174 l 660 192 l 667 199 l 642 208 l 632 201 q 607 237 629 214 l 597 237 l 582 290 l 553 317 l 538 347 q 525 379 526 367 l 488 414 l 478 433 l 481 449 l 471 464 l 461 468 l 453 489 l 446 489 l 436 515 l 416 541 q 408 566 412 546 l 392 562 l 374 524 l 374 511 q 358 452 369 484 l 345 444 l 351 422 l 367 412 l 361 382 l 361 347 l 329 309 l 332 281 l 323 261 l 332 240 l 326 233 l 329 214 l 317 186 l 317 167 l 304 151 l 294 110 l 294 97 l 289 92 l 257 -7 l 248 -25 l 222 -37 l 225 -45 l 175 -66 l 150 -60 l 143 -35 l 160 -16 l 153 -7 l 134 -7 l 134 0 l 155 20 l 150 45 l 172 50 l 203 92 l 212 129 l 212 144 l 228 161 l 228 189 l 269 359 l 267 370 l 267 397 l 285 425 l 279 444 l 294 469 l 297 486 l 304 511 l 301 524 l 311 561 l 285 628 q 304 646 291 637 l 294 681 l 301 703 l 314 705 l 317 725 l 260 725 l 203 705 l 191 713 l 160 650 l 81 576 l 39 558 l 21 593 l 21 618 l 36 624 l 33 637 l 24 640 l 24 656 l 39 668 l 39 681 l 64 672 l 71 681 l 61 690 q 90 728 64 697 l 125 737 l 127 760 l 143 757 l 156 771 q 170 779 160 775 l 197 789 l 200 794 l 219 796 q 239 804 231 798 q 281 817 248 811 l 314 822 l 390 865 l 408 885 l 447 900 l 481 904 l 498 868 q 482 818 479 833 l 503 708 l 513 682 l 513 664 l 530 664 l 533 636 l 562 611 l 559 593 l 566 586 l 619 494 l 676 382 l 692 366 l 692 357 l 704 343 l 724 340 l 726 357 l 736 359 l 736 370 l 761 452 l 763 471 q 777 514 764 479 l 803 533 l 803 549 l 818 574 l 818 593 q 840 643 833 612 q 852 654 845 645 l 859 663 l 897 766 q 911 786 904 781 l 920 822 l 932 832 l 947 861 l 957 889 l 969 904 q 982 930 975 911 l 994 933 l 1029 999 l 1044 1013 l 1051 1013 q 1064 1025 1059 1025 l 1086 1028 m 635 1291 l 646 1273 l 664 1265 l 672 1244 l 720 1199 l 745 1183 l 749 1188 q 779 1174 762 1174 l 794 1177 l 806 1177 l 800 1183 q 836 1202 815 1200 l 833 1206 q 859 1225 856 1208 q 879 1240 876 1225 l 895 1253 q 928 1265 899 1256 q 936 1270 931 1270 q 939 1267 939 1270 l 939 1276 q 976 1286 964 1286 l 987 1284 l 998 1273 q 906 1171 947 1206 q 851 1135 865 1135 q 848 1137 848 1135 l 819 1112 l 760 1074 l 744 1057 l 729 1060 q 686 1029 696 1031 q 675 1042 679 1032 q 667 1040 669 1040 q 652 1049 659 1040 q 631 1056 641 1050 q 611 1070 621 1061 q 588 1096 602 1079 q 568 1117 575 1112 q 554 1130 561 1121 q 545 1147 548 1139 q 538 1156 542 1156 l 529 1155 q 521 1166 523 1155 q 486 1151 507 1151 l 473 1152 l 451 1126 l 425 1112 l 380 1063 q 351 1107 353 1072 l 357 1112 l 355 1117 l 362 1131 l 369 1128 l 382 1139 l 378 1139 q 399 1166 400 1161 l 403 1163 l 406 1170 l 414 1174 l 416 1170 l 416 1180 l 419 1177 l 436 1191 l 431 1191 l 444 1199 l 444 1202 l 451 1202 l 451 1208 l 473 1225 q 489 1240 483 1240 q 494 1237 491 1240 q 509 1244 501 1244 q 521 1251 514 1251 l 536 1261 l 549 1263 q 570 1276 554 1265 q 594 1293 589 1293 q 601 1291 600 1293 l 615 1295 l 635 1291 z "},"":{"ha":689,"x_min":49,"x_max":692,"o":"m 419 918 l 436 914 q 457 890 441 908 q 473 836 472 871 l 496 807 l 493 789 l 521 750 l 518 734 l 528 715 l 521 690 l 541 672 l 549 640 l 578 640 l 606 627 q 618 618 612 624 l 635 603 l 628 561 l 637 551 l 635 526 l 640 507 l 625 482 l 631 460 l 610 437 q 603 419 606 432 l 628 395 l 603 382 l 583 350 l 559 344 q 536 334 546 340 l 511 318 l 518 309 q 493 265 492 269 l 481 258 l 471 227 l 464 224 l 452 201 q 414 161 434 187 l 416 158 l 397 132 l 385 136 l 392 126 l 342 75 l 272 16 l 260 16 l 243 -3 q 212 -20 229 -7 l 196 -9 l 191 -12 l 164 -4 q 134 12 151 0 q 111 28 119 27 l 102 49 l 89 47 l 86 60 l 69 66 l 74 75 l 86 82 l 79 89 l 83 97 l 74 117 l 66 127 q 57 167 64 132 l 49 167 l 52 186 l 49 205 l 54 218 l 49 221 l 57 271 l 49 302 l 57 309 l 54 318 l 57 350 l 52 370 l 64 390 l 64 422 l 79 486 l 77 486 l 83 501 l 79 507 l 86 511 l 83 524 l 110 589 l 111 586 l 111 599 l 114 618 l 121 621 l 121 633 l 123 640 l 136 643 l 131 646 l 139 653 l 136 677 l 146 685 l 155 710 l 158 710 l 163 725 q 178 745 165 732 l 178 757 l 191 760 l 191 766 l 228 807 l 233 822 l 250 829 l 253 844 q 278 864 275 863 q 310 892 285 882 l 357 911 l 392 911 l 419 918 m 325 798 l 297 779 l 275 745 l 258 728 q 233 690 250 720 l 221 659 l 209 635 q 199 599 203 624 l 191 589 l 191 561 l 174 546 l 168 524 l 168 511 l 151 494 l 151 489 l 126 429 l 131 407 l 117 375 l 123 370 l 117 347 l 123 338 l 114 309 l 104 258 l 117 253 l 96 240 l 104 221 l 111 221 l 109 196 l 109 161 q 126 142 122 151 l 123 132 q 139 92 134 109 l 151 85 q 174 60 155 82 l 203 66 l 212 50 l 237 62 l 240 69 l 256 72 l 262 94 l 265 94 l 272 107 l 294 107 q 319 144 315 131 l 332 149 l 338 167 l 359 208 l 379 218 l 382 233 l 411 245 l 397 258 l 397 273 q 411 306 408 290 l 384 314 q 364 330 379 315 l 335 325 l 350 340 l 376 353 l 389 363 q 409 379 404 371 q 416 400 414 388 l 427 407 l 416 419 l 416 439 l 414 460 l 416 467 l 404 482 l 407 492 l 419 498 l 424 507 l 416 507 l 411 539 l 414 555 l 397 561 l 395 583 l 401 589 q 385 640 399 610 l 392 640 l 376 659 l 379 668 q 359 715 362 699 l 350 725 l 350 750 l 345 762 l 338 766 l 325 798 m 593 1289 l 650 1261 l 663 1232 l 692 1189 l 659 1164 l 653 1150 l 622 1132 l 618 1135 l 618 1125 q 558 1095 600 1101 l 549 1078 l 521 1122 l 476 1160 l 479 1194 q 507 1219 495 1217 l 521 1239 l 524 1236 q 546 1251 527 1242 l 549 1249 q 564 1274 551 1267 l 593 1289 m 211 1261 q 224 1271 213 1271 q 256 1236 240 1271 l 278 1236 l 306 1217 l 332 1169 l 281 1129 l 211 1059 l 201 1053 q 176 1087 188 1058 l 164 1090 l 132 1166 l 119 1172 l 127 1191 q 139 1207 132 1201 l 148 1210 q 174 1232 151 1211 q 186 1238 182 1232 q 208 1264 191 1244 l 208 1261 l 211 1261 z "}}}
